<?xml version="1.0" encoding="UTF-8"?>
<svg width="48px" height="48px" viewBox="0 0 48 48" version="1.1" xmlns="http://www.w3.org/2000/svg" xmlns:xlink="http://www.w3.org/1999/xlink">
    <!-- Generator: Sketch 52.2 (67145) - http://www.bohemiancoding.com/sketch -->
    <title>dot-chart</title>
    <desc>Created with Sketch.</desc>
    <g id="Page-1" stroke="none" stroke-width="1" fill="none" fill-rule="evenodd">
        <g id="home" transform="translate(-225.000000, -2620.000000)" fill="#000000" fill-rule="nonzero">
            <g id="dot-chart" transform="translate(225.000000, 2620.000000)">
                <path d="M47,42 L6,42 L6,1 C6,0.448 5.552,0 5,0 C4.448,0 4,0.448 4,1 L4,42 L1,42 C0.448,42 0,42.448 0,43 C0,43.552 0.448,44 1,44 L4,44 L4,47 C4,47.552 4.448,48 5,48 C5.552,48 6,47.552 6,47 L6,44 L47,44 C47.552,44 48,43.552 48,43 C48,42.448 47.552,42 47,42 Z" id="Shape"></path>
                <path d="M15,34 C17.756,34 20,31.756 20,29 C20,27.982 19.69,27.038 19.166,26.248 L24.246,21.168 C25.038,21.69 25.982,22 27,22 C29.756,22 32,19.756 32,17 C32,16.536 31.916,16.096 31.796,15.668 L37.122,12.118 C38.04,13.256 39.428,14 41,14 C43.756,14 46,11.756 46,9 C46,6.244 43.756,4 41,4 C38.244,4 36,6.244 36,9 C36,9.464 36.084,9.904 36.202,10.33 L30.876,13.88 C29.958,12.744 28.57,12 27,12 C24.244,12 22,14.244 22,17 C22,18.018 22.31,18.962 22.834,19.752 L17.754,24.832 C16.962,24.31 16.018,24 15,24 C12.244,24 10,26.244 10,29 C10,31.756 12.244,34 15,34 Z M41,6 C42.654,6 44,7.346 44,9 C44,10.654 42.654,12 41,12 C39.346,12 38,10.654 38,9 C38,7.346 39.346,6 41,6 Z M27,14 C28.654,14 30,15.346 30,17 C30,18.654 28.654,20 27,20 C25.346,20 24,18.654 24,17 C24,15.346 25.346,14 27,14 Z M15,26 C16.654,26 18,27.346 18,29 C18,30.654 16.654,32 15,32 C13.346,32 12,30.654 12,29 C12,27.346 13.346,26 15,26 Z" id="Shape"></path>
                <path d="M14,37 L14,39 C14,39.552 14.448,40 15,40 C15.552,40 16,39.552 16,39 L16,37 C16,36.448 15.552,36 15,36 C14.448,36 14,36.448 14,37 Z" id="Shape"></path>
                <path d="M26,25 L26,39 C26,39.552 26.448,40 27,40 C27.552,40 28,39.552 28,39 L28,25 C28,24.448 27.552,24 27,24 C26.448,24 26,24.448 26,25 Z" id="Shape"></path>
                <path d="M40,17 L40,39 C40,39.552 40.448,40 41,40 C41.552,40 42,39.552 42,39 L42,17 C42,16.448 41.552,16 41,16 C40.448,16 40,16.448 40,17 Z" id="Shape"></path>
            </g>
        </g>
    </g>
</svg>