<?xml version="1.0" encoding="UTF-8"?>
<svg width="48px" height="48px" viewBox="0 0 48 48" version="1.1" xmlns="http://www.w3.org/2000/svg" xmlns:xlink="http://www.w3.org/1999/xlink">
    <!-- Generator: Sketch 52.2 (67145) - http://www.bohemiancoding.com/sketch -->
    <title>party-ribbon</title>
    <desc>Created with Sketch.</desc>
    <g id="Page-1" stroke="none" stroke-width="1" fill="none" fill-rule="evenodd">
        <g id="home" transform="translate(-576.000000, -2618.000000)" fill="#000000" fill-rule="nonzero">
            <g id="section-4" transform="translate(100.000000, 2343.000000)">
                <g id="party-ribbon" transform="translate(476.000000, 275.000000)">
                    <path d="M22,17 C22,16.448 21.552,16 21,16 C16.98,16 14.938,15.52 13.708,14.292 C12.478,13.064 12,11.02 12,7 C12,6.448 11.552,6 11,6 C10.448,6 10,6.448 10,7 C10,11.02 9.52,13.062 8.292,14.292 C7.064,15.522 5.02,16 1,16 C0.448,16 0,16.448 0,17 C0,17.552 0.448,18 1,18 C5.02,18 7.062,18.48 8.292,19.708 C9.522,20.936 10,22.98 10,27 C10,27.552 10.448,28 11,28 C11.552,28 12,27.552 12,27 C12,22.98 12.48,20.938 13.708,19.708 C14.936,18.478 16.98,18 21,18 C21.552,18 22,17.552 22,17 Z M12.29,18.292 C11.744,18.838 11.322,19.474 10.998,20.19 C10.674,19.474 10.252,18.838 9.706,18.292 C9.16,17.746 8.524,17.324 7.808,17 C8.526,16.676 9.16,16.254 9.706,15.708 C10.252,15.162 10.674,14.526 10.998,13.81 C11.322,14.526 11.744,15.162 12.29,15.708 C12.836,16.254 13.472,16.676 14.188,17 C13.472,17.324 12.836,17.746 12.29,18.292 Z" id="Shape"></path>
                    <path d="M19,6 C20.392,6 21.136,6.152 21.494,6.51 C21.848,6.864 22,7.608 22,9 C22,9.552 22.448,10 23,10 C23.552,10 24,9.552 24,9 C24,7.608 24.152,6.864 24.51,6.506 C24.864,6.152 25.608,6 27,6 C27.552,6 28,5.552 28,5 C28,4.448 27.552,4 27,4 C25.608,4 24.864,3.848 24.506,3.49 C24.152,3.136 24,2.392 24,1 C24,0.448 23.552,0 23,0 C22.448,0 22,0.448 22,1 C22,2.392 21.848,3.136 21.49,3.494 C21.136,3.848 20.392,4 19,4 C18.448,4 18,4.448 18,5 C18,5.552 18.448,6 19,6 Z" id="Shape"></path>
                    <path d="M9,40 C7.608,40 6.864,39.848 6.506,39.49 C6.152,39.136 6,38.392 6,37 C6,36.448 5.552,36 5,36 C4.448,36 4,36.448 4,37 C4,38.392 3.848,39.136 3.49,39.494 C3.136,39.848 2.392,40 1,40 C0.448,40 0,40.448 0,41 C0,41.552 0.448,42 1,42 C2.392,42 3.136,42.152 3.494,42.51 C3.848,42.864 4,43.608 4,45 C4,45.552 4.448,46 5,46 C5.552,46 6,45.552 6,45 C6,43.608 6.152,42.864 6.51,42.506 C6.864,42.152 7.608,42 9,42 C9.552,42 10,41.552 10,41 C10,40.448 9.552,40 9,40 Z" id="Shape"></path>
                    <path d="M47,31 C44.738,31 43.55,30.736 42.906,30.094 C42.264,29.45 42,28.262 42,26 C42,25.448 41.552,25 41,25 C40.448,25 40,25.448 40,26 C40,28.262 39.736,29.45 39.094,30.094 C38.45,30.736 37.262,31 35,31 C34.448,31 34,31.448 34,32 C34,32.552 34.448,33 35,33 C37.262,33 38.45,33.264 39.094,33.906 C39.736,34.55 40,35.738 40,38 C40,38.552 40.448,39 41,39 C41.552,39 42,38.552 42,38 C42,35.738 42.264,34.55 42.906,33.906 C43.55,33.264 44.738,33 47,33 C47.552,33 48,32.552 48,32 C48,31.448 47.552,31 47,31 Z M41.492,32.492 C41.306,32.678 41.142,32.878 41,33.09 C40.856,32.876 40.694,32.678 40.508,32.492 C40.322,32.306 40.122,32.142 39.91,32 C40.124,31.856 40.322,31.694 40.508,31.508 C40.694,31.322 40.858,31.122 41,30.91 C41.144,31.124 41.306,31.322 41.492,31.508 C41.678,31.694 41.878,31.858 42.09,32 C41.876,32.144 41.678,32.306 41.492,32.492 Z" id="Shape"></path>
                    <path d="M26.074,30.992 C25.02,30.786 23.962,30.564 23.016,30.258 C24.466,29.782 26.242,29.45 28.008,29.14 C32.692,28.316 37.998,27.382 37.998,23 L37.998,17.018 C37.998,17.012 38,17.006 38,17 C38,13.522 34.22,10 27,10 C26.448,10 26,10.448 26,11 L26,17 C26,17.552 26.448,18 27,18 C29.754,18 32.126,18.59 33.768,19.634 C32.152,20.354 29.876,20.764 27.648,21.158 C22.904,21.998 18,22.868 18,27 L18,33 C18,35.844 19.788,37.224 21.92,38.016 C19.718,38.478 18,39.19 18,41 L18,47 C18,47.552 18.448,48 19,48 C19.552,48 20,47.552 20,47 C20,46.324 22.76,45.876 24.406,45.61 C27.79,45.062 32,44.378 32,41 L32,35 C32,32.144 28.852,31.534 26.074,30.992 Z M28,12.026 C33.252,12.292 35.994,14.656 36,16.994 C36,16.996 35.998,16.998 35.998,17 L35.998,17.012 C35.996,17.548 35.848,18 35.526,18.408 C33.718,16.998 31.106,16.168 28,16.024 L28,12.026 Z M27.998,23.13 C30.988,22.598 34.078,22.052 36,20.676 L36,23 C36,25.516 32.7,26.286 27.664,27.172 C25.044,27.634 22.554,28.072 20.734,29.012 C20.23,28.482 20,27.842 20,27 C20,24.714 23.166,23.984 27.998,23.13 Z M20,33 L20,31.014 C20.012,31.024 20.024,31.034 20.038,31.044 C21.57,32.154 23.666,32.562 25.694,32.956 C28.374,33.476 30,33.874 30,35 C30,35.652 29.626,36.482 26.76,37.14 L26.062,37.004 C22.4,36.296 20,35.638 20,33 Z M24.088,43.634 C22.582,43.878 21.116,44.116 20,44.562 L20,41 C20,40.322 22.764,39.872 24.416,39.602 C25.276,39.462 26.154,39.32 26.986,39.138 C27.67,38.99 28.92,38.716 30,38.102 L30,41 C30,42.554 27.438,43.092 24.088,43.634 Z" id="Shape"></path>
                </g>
            </g>
        </g>
    </g>
</svg>