<?xml version="1.0" encoding="UTF-8"?>
<svg width="42px" height="48px" viewBox="0 0 42 48" version="1.1" xmlns="http://www.w3.org/2000/svg" xmlns:xlink="http://www.w3.org/1999/xlink">
    <!-- Generator: Sketch 52.2 (67145) - http://www.bohemiancoding.com/sketch -->
    <title>camping-knief</title>
    <desc>Created with Sketch.</desc>
    <g id="Page-1" stroke="none" stroke-width="1" fill="none" fill-rule="evenodd">
        <g id="home" transform="translate(-927.000000, -2620.000000)" fill="#000000" fill-rule="nonzero">
            <g id="camping-knief" transform="translate(926.000000, 2620.000000)">
                <path d="M36,0 L32,0 C30.696,0 29.488,0.382 28.44,1.006 C28.404,1.02 28.366,1.02 28.332,1.038 L7.778,11.9 C4.81,13.448 2.734,16.214 2.08,19.496 L1.018,24.804 C0.944,25.176 1.09,25.562 1.392,25.794 C1.57,25.93 1.786,26 2,26 C2.152,26 2.306,25.964 2.446,25.894 L25,14.616 L25,33.38 L24.1,32.93 C23.43,32.596 22.652,32.634 22.018,33.024 C21.38,33.416 21.002,34.098 21.002,34.844 L21.002,35.156 L20.798,35.282 L19.044,34.404 C18.85,34.306 18.696,34.152 18.598,33.958 L17.192,31.15 C16.898,30.566 16.436,30.102 15.852,29.81 L12.448,28.106 C12.138,27.95 11.768,27.968 11.476,28.148 C11.182,28.332 11.002,28.654 11.002,29 L11.002,31.844 C11.002,34.15 12.136,36.306 14.056,37.624 L28.266,46.92 C28.292,46.938 28.324,46.93 28.352,46.946 C29.418,47.602 30.66,48 32,48 L36,48 C39.86,48 43,44.86 43,41 L43,7 C43,3.14 39.86,0 36,0 Z M3.382,23.19 L4.042,19.886 C4.578,17.204 6.276,14.94 8.708,13.672 L25.368,4.868 C25.15,5.544 25,6.252 25,7 L25,12.38 L3.382,23.19 Z M13,31.844 L13,30.62 L14.956,31.598 C15.15,31.696 15.304,31.85 15.402,32.044 L16.808,34.852 C17.102,35.436 17.564,35.9 18.148,36.192 L19.902,37.07 C20.572,37.404 21.352,37.366 21.984,36.976 C22.622,36.584 23,35.902 23,35.156 L23,34.844 L23.206,34.72 L25,35.618 L25,41 C25,41.52 25.066,42.024 25.174,42.512 L15.168,35.964 C13.81,35.03 13,33.49 13,31.844 Z M41,41 C41,43.758 38.758,46 36,46 L32,46 C29.242,46 27,43.758 27,41 L27,35.07 C27,35.064 27,35.06 27,35.054 L27,7 C27,4.242 29.242,2 32,2 L36,2 C38.758,2 41,4.242 41,7 L41,41 Z" id="Shape"></path>
                <path d="M20.554,9.106 L16.554,11.106 C16.06,11.354 15.86,11.954 16.106,12.448 C16.282,12.796 16.634,13 17,13 C17.15,13 17.302,12.966 17.448,12.896 L21.448,10.896 C21.942,10.648 22.142,10.048 21.896,9.554 C21.648,9.06 21.05,8.858 20.554,9.106 Z" id="Shape"></path>
                <path d="M36,34 L35,34 L35,33 C35,32.448 34.552,32 34,32 C33.448,32 33,32.448 33,33 L33,34 L32,34 C31.448,34 31,34.448 31,35 C31,35.552 31.448,36 32,36 L33,36 L33,37 C33,37.552 33.448,38 34,38 C34.552,38 35,37.552 35,37 L35,36 L36,36 C36.552,36 37,35.552 37,35 C37,34.448 36.552,34 36,34 Z" id="Shape"></path>
            </g>
        </g>
    </g>
</svg>