<?xml version="1.0" encoding="UTF-8"?>
<svg width="60px" height="60px" viewBox="0 0 60 60" version="1.1" xmlns="http://www.w3.org/2000/svg" xmlns:xlink="http://www.w3.org/1999/xlink">
    <!-- Generator: Sketch 52.2 (67145) - http://www.bohemiancoding.com/sketch -->
    <title>10-technical-drawing-outline</title>
    <desc>Created with Sketch.</desc>
    <g id="Page-1" stroke="none" stroke-width="1" fill="none" fill-rule="evenodd" stroke-linecap="round" stroke-linejoin="round">
        <g id="home" transform="translate(-224.000000, -2843.000000)" stroke="#000000" stroke-width="2">
            <g id="10-technical-drawing-outline" transform="translate(225.000000, 2844.000000)">
                <polygon id="Shape" points="23 58.002 16 51.002 50.929 16.002 58 23.073"></polygon>
                <polygon id="Shape" points="43 7.002 50 7.002 46 3.002 43 0.002"></polygon>
                <polygon id="Shape" points="30 9.002 42 21.002 18 21.002"></polygon>
                <polygon id="Shape" points="21 10.002 21 17.002 21.333 17.002 25 13.617 25 10.002"></polygon>
                <g id="path-1-link" transform="translate(47.393400, 19.537500)">
                    <path d="M0,0 L2.828,2.828" id="path-1"></path>
                </g>
                <g id="path-2-link" transform="translate(43.857900, 23.073000)">
                    <path d="M0,0 L4.243,4.243" id="path-2"></path>
                </g>
                <g id="path-1-link" transform="translate(40.322400, 26.608600)">
                    <path d="M0,0 L2.828,2.828" id="path-1"></path>
                </g>
                <g id="path-2-link" transform="translate(36.786700, 30.144200)">
                    <path d="M0,0 L4.243,4.243" id="path-2"></path>
                </g>
                <g id="path-1-link" transform="translate(33.251200, 33.679700)">
                    <path d="M0,0 L2.828,2.828" id="path-1"></path>
                </g>
                <g id="path-2-link" transform="translate(29.715700, 37.215200)">
                    <path d="M0,0 L4.243,4.243" id="path-2"></path>
                </g>
                <g id="path-1-link" transform="translate(26.180200, 40.750700)">
                    <path d="M0,0 L2.828,2.828" id="path-1"></path>
                </g>
                <g id="path-2-link" transform="translate(22.644700, 44.286300)">
                    <path d="M0,0 L4.243,4.243" id="path-2"></path>
                </g>
                <g id="path-1-link" transform="translate(19.109100, 47.821800)">
                    <path d="M0,0 L2.828,2.828" id="path-1"></path>
                </g>
                <polygon id="Shape" points="39 27.9552 39 21.0022 21 21.0022 21 37.0022 29.972 37.0022 39 27.9552"></polygon>
                <polygon id="Shape" points="32.0284 34.941 32.0284 31.002 27.0004 31.002 27.0004 37.002 30.0004 37.002 32.0284 34.941 32.0284 34.941"></polygon>
                <polygon id="Shape" points="50 16.9328 50 7.0018 46 3.0018 43 0.0018 12 0.0018 12 58.0018 23 58.0018 16 51.0018"></polygon>
                <polygon id="Shape" points="23 58.002 50 58.002 50 31.057"></polygon>
                <path d="M6,47.002 L6,3.002 C6,1.345 4.657,0.002 3,0.002 C1.343,0.002 0,1.345 0,3.002 L0,47.002 L6,47.002 Z" id="Shape"></path>
                <polygon id="Shape" points="0 9.002 6 9.002 6 5.002 0 5.002"></polygon>
                <polygon id="Shape" points="0 47.002 0 50.002 3 58.002 6 50.002 6 47.002"></polygon>
            </g>
        </g>
    </g>
</svg>