<?xml version="1.0" encoding="UTF-8"?>
<svg width="48px" height="48px" viewBox="0 0 48 48" version="1.1" xmlns="http://www.w3.org/2000/svg" xmlns:xlink="http://www.w3.org/1999/xlink">
    <!-- Generator: Sketch 52.2 (67145) - http://www.bohemiancoding.com/sketch -->
    <title>calculator</title>
    <desc>Created with Sketch.</desc>
    <g id="Page-1" stroke="none" stroke-width="1" fill="none" fill-rule="evenodd">
        <g id="home" transform="translate(-577.000000, -2845.000000)" fill="#000000" fill-rule="nonzero">
            <g id="section-4" transform="translate(100.000000, 2343.000000)">
                <g id="calculator" transform="translate(477.000000, 502.000000)">
                    <path d="M46,26.826 L46,7 C46,3.14 42.86,0 39,0 L7,0 C3.14,0 0,3.14 0,7 L0,39 C0,42.86 3.14,46 7,46 L26.826,46 C28.928,47.262 31.376,48 34,48 C41.72,48 48,41.72 48,34 C48,31.376 47.262,28.928 46,26.826 Z M24.212,44 L7,44 C4.244,44 2,41.756 2,39 L2,7 C2,4.244 4.244,2 7,2 L39,2 C41.756,2 44,4.244 44,7 L44,24.212 C43.984,24.196 43.966,24.182 43.95,24.166 C43.792,24.006 43.622,23.86 43.458,23.708 C43.278,23.542 43.102,23.368 42.912,23.212 C42.86,23.17 42.804,23.132 42.752,23.09 C40.688,21.424 38.186,20.37 35.5,20.084 C35.476,20.082 35.454,20.076 35.43,20.074 C34.958,20.024 34.48,20 34,20 C26.28,20 20,26.28 20,34 C20,34.48 20.024,34.958 20.072,35.428 C20.074,35.452 20.08,35.474 20.082,35.498 C20.368,38.184 21.422,40.684 23.088,42.75 C23.13,42.802 23.168,42.86 23.21,42.91 C23.366,43.098 23.538,43.272 23.704,43.452 C23.856,43.618 24.004,43.79 24.166,43.948 C24.182,43.966 24.196,43.984 24.212,44 Z M34,46 C31.64,46 29.444,45.306 27.586,44.126 C26.758,43.6 26.012,42.984 25.35,42.298 C25.268,42.212 25.19,42.122 25.11,42.032 C24.886,41.786 24.674,41.53 24.474,41.268 C24.38,41.144 24.284,41.022 24.194,40.894 C24,40.62 23.82,40.336 23.652,40.046 C23.592,39.942 23.524,39.844 23.466,39.74 C23.258,39.358 23.072,38.964 22.906,38.562 C22.848,38.42 22.8,38.274 22.748,38.13 C22.642,37.842 22.544,37.552 22.462,37.256 C22.416,37.096 22.376,36.934 22.336,36.77 C22.264,36.462 22.204,36.15 22.156,35.836 C22.134,35.692 22.106,35.548 22.09,35.402 C22.036,34.938 22,34.472 22,34 C22,27.382 27.382,22 34,22 C34.472,22 34.938,22.036 35.4,22.088 C35.546,22.106 35.69,22.132 35.834,22.154 C36.148,22.202 36.46,22.262 36.768,22.334 C36.93,22.372 37.092,22.414 37.252,22.46 C37.548,22.544 37.838,22.642 38.126,22.746 C38.27,22.8 38.418,22.846 38.56,22.904 C38.962,23.07 39.356,23.254 39.738,23.462 C39.844,23.52 39.944,23.59 40.048,23.65 C40.336,23.82 40.62,23.996 40.892,24.19 C41.02,24.28 41.142,24.376 41.266,24.47 C41.53,24.672 41.786,24.884 42.032,25.108 C42.12,25.188 42.21,25.266 42.296,25.348 C42.982,26.01 43.598,26.754 44.124,27.584 C45.306,29.444 46,31.64 46,34 C46,40.618 40.618,46 34,46 Z" id="Shape"></path>
                    <path d="M19,12 L14,12 L14,7 C14,6.448 13.552,6 13,6 C12.448,6 12,6.448 12,7 L12,12 L7,12 C6.448,12 6,12.448 6,13 C6,13.552 6.448,14 7,14 L12,14 L12,19 C12,19.552 12.448,20 13,20 C13.552,20 14,19.552 14,19 L14,14 L19,14 C19.552,14 20,13.552 20,13 C20,12.448 19.552,12 19,12 Z" id="Shape"></path>
                    <path d="M29,14 L39,14 C39.552,14 40,13.552 40,13 C40,12.448 39.552,12 39,12 L29,12 C28.448,12 28,12.448 28,13 C28,13.552 28.448,14 29,14 Z" id="Shape"></path>
                    <path d="M17.706,28.294 C17.316,27.904 16.682,27.904 16.292,28.294 L12,32.586 L7.708,28.294 C7.318,27.904 6.684,27.904 6.294,28.294 C5.904,28.684 5.904,29.318 6.294,29.708 L10.584,34 L6.292,38.292 C5.902,38.682 5.902,39.316 6.292,39.706 C6.488,39.902 6.744,40 7,40 C7.256,40 7.512,39.902 7.706,39.708 L12,35.416 L16.292,39.708 C16.488,39.902 16.744,40 17,40 C17.256,40 17.512,39.902 17.706,39.708 C18.096,39.318 18.096,38.684 17.706,38.294 L13.414,34 L17.706,29.708 C18.096,29.318 18.096,28.684 17.706,28.294 Z" id="Shape"></path>
                    <g id="path-1-link" transform="translate(28.000000, 30.000000)">
                        <path d="M11,0 L1,0 C0.448,0 0,0.448 0,1 C0,1.552 0.448,2 1,2 L11,2 C11.552,2 12,1.552 12,1 C12,0.448 11.552,0 11,0 Z" id="path-1"></path>
                    </g>
                    <g id="path-1-link" transform="translate(28.000000, 36.000000)">
                        <path d="M11,0 L1,0 C0.448,0 0,0.448 0,1 C0,1.552 0.448,2 1,2 L11,2 C11.552,2 12,1.552 12,1 C12,0.448 11.552,0 11,0 Z" id="path-1"></path>
                    </g>
                </g>
            </g>
        </g>
    </g>
</svg>