<?xml version="1.0" encoding="UTF-8"?>
<svg width="60px" height="60px" viewBox="0 0 60 60" version="1.1" xmlns="http://www.w3.org/2000/svg" xmlns:xlink="http://www.w3.org/1999/xlink">
    <!-- Generator: Sketch 52.2 (67145) - http://www.bohemiancoding.com/sketch -->
    <title>chat-user</title>
    <desc>Created with Sketch.</desc>
    <g id="Page-1" stroke="none" stroke-width="1" fill="none" fill-rule="evenodd">
        <g id="home" transform="translate(-918.000000, -2845.000000)" fill="#000000" fill-rule="nonzero">
            <g id="section-4" transform="translate(100.000000, 2343.000000)">
                <g id="chat-user" transform="translate(818.000000, 502.000000)">
                    <path d="M54,0 L28,0 C24.692,0 22,2.692 22,6 L22,9 C22,9.552 22.448,10 23,10 C23.552,10 24,9.552 24,9 L24,6 C24,3.794 25.794,2 28,2 L54,2 C56.206,2 58,3.794 58,6 L58,18 C58,20.206 56.206,22 54,22 L50,22 C49.716,22 49.446,22.12 49.258,22.33 L42.696,29.62 L43.982,23.196 C44.04,22.902 43.964,22.598 43.774,22.366 C43.584,22.134 43.3,22 43,22 L41,22 C40.448,22 40,22.448 40,23 C40,23.552 40.448,24 41,24 L41.78,24 L40.02,32.804 C39.93,33.246 40.148,33.692 40.552,33.894 C40.694,33.966 40.848,34 41,34 C41.276,34 41.548,33.884 41.744,33.668 L50.446,24 L54,24 C57.308,24 60,21.308 60,18 L60,6 C60,2.692 57.308,7.10542736e-15 54,0 Z" id="Shape"></path>
                    <path d="M39.486,48.09 L31.824,46.174 L31.172,43.566 C33.222,41.536 34.626,38.75 35.042,35.888 C36.178,35.57 37.058,34.594 37.21,33.372 L37.71,29.372 C37.816,28.528 37.556,27.676 36.996,27.034 C36.668,26.658 36.254,26.374 35.796,26.2 L35.98,22.434 L36.728,21.686 C37.854,20.488 38.788,18.434 36.836,15.452 C35.336,13.162 32.788,12 29.26,12 C27.87,12 24.664,12 21.68,14.004 C13.16,14.182 12,18.14 12,22 C12,22.898 12.218,24.92 12.36,26.136 C11.848,26.3 11.38,26.6 11.016,27.012 C10.446,27.658 10.182,28.516 10.288,29.37 L10.788,33.37 C10.952,34.676 11.944,35.7 13.194,35.944 C13.608,38.694 14.94,41.392 16.872,43.388 L16.176,46.174 L8.514,48.09 C3.5,49.344 -7.10542736e-15,53.828 -7.10542736e-15,59 C-7.10542736e-15,59.552 0.448,60 1,60 L47,60 C47.552,60 48,59.548 48,58.994 C48,53.828 44.498,49.342 39.486,48.09 Z M2.052,58 C2.462,54.182 5.204,50.98 9,50.032 L17.244,47.972 C17.602,47.882 17.884,47.602 17.972,47.244 L18.952,43.322 C19.042,42.97 18.93,42.598 18.666,42.35 C16.646,40.456 15.31,37.678 15.09,34.922 C15.048,34.402 14.614,34.002 14.092,34.002 L13.766,34.002 C13.264,34.002 12.836,33.626 12.774,33.126 L12.274,29.126 C12.238,28.838 12.324,28.558 12.516,28.34 C12.708,28.122 12.974,28.002 13.266,28.002 L13.474,28.002 C13.762,28.002 14.034,27.88 14.224,27.664 C14.414,27.45 14.502,27.162 14.466,26.878 C14.338,25.852 14.002,22.98 14.002,22.002 C14.002,18.882 14.614,16.076 22.012,16.002 C22.216,16 22.418,15.936 22.584,15.816 C24.816,14.218 27.212,14.002 29.262,14.002 C32.072,14.002 34.058,14.86 35.164,16.55 C36.492,18.58 35.92,19.63 35.294,20.296 L34.294,21.296 C34.118,21.472 34.014,21.706 34.002,21.954 L33.758,26.958 C33.746,27.23 33.844,27.494 34.03,27.692 C34.216,27.89 34.474,28.004 34.746,28.006 C35.036,28.008 35.3,28.13 35.49,28.348 C35.68,28.564 35.764,28.838 35.728,29.124 L35.228,33.124 C35.166,33.624 34.738,34 34.138,34 C33.616,34 33.182,34.4 33.14,34.92 C32.914,37.764 31.514,40.596 29.392,42.498 C29.116,42.744 29,43.124 29.09,43.484 L30.03,47.242 C30.12,47.6 30.4,47.882 30.758,47.97 L39.002,50.03 C42.796,50.98 45.536,54.18 45.946,58 L2.052,58 Z" id="Shape"></path>
                </g>
            </g>
        </g>
    </g>
</svg>