<?xml version="1.0" encoding="UTF-8"?>
<svg width="897px" height="259px" viewBox="0 0 897 259" version="1.1" xmlns="http://www.w3.org/2000/svg" xmlns:xlink="http://www.w3.org/1999/xlink">
    <!-- Generator: Sketch 52.2 (67145) - http://www.bohemiancoding.com/sketch -->
    <title>illustration</title>
    <desc>Created with Sketch.</desc>
    <g id="Page-1" stroke="none" stroke-width="1" fill="none" fill-rule="evenodd">
        <g id="home" transform="translate(-152.000000, -1271.000000)">
            <g id="section-2" transform="translate(100.000000, 900.000000)">
                <g id="illustration" transform="translate(52.000000, 372.000000)">
                    <g id="diagram" transform="translate(569.000000, 95.000000)" stroke="#000000" stroke-width="2">
                        <polyline id="Line-3" stroke-linecap="square" points="25 4.5 25 20 10 20 10 91"></polyline>
                        <polyline id="Line-3-Copy" stroke-linecap="square" transform="translate(32.500000, 47.750000) scale(-1, 1) translate(-32.500000, -47.750000) " points="40 4.5 40 20 25 20 25 91"></polyline>
                        <path d="M1,1 L1,7 L49,7 L49,1 L1,1 Z" id="Rectangle-4-Copy-14" fill="#45F0F9"></path>
                        <rect id="Rectangle-4-Copy-74" fill="#FFFFFF" x="1" y="88" width="18" height="6"></rect>
                        <rect id="Rectangle-4-Copy-81" fill="#FFFFFF" x="1" y="58" width="18" height="16"></rect>
                        <rect id="Rectangle-4-Copy-80" fill="#FFFFFF" x="31" y="88" width="18" height="6"></rect>
                        <rect id="Rectangle-4-Copy-84" fill="#FFFFFF" x="1" y="38" width="18" height="6"></rect>
                        <rect id="Rectangle-4-Copy-83" fill="#FFFFFF" x="31" y="38" width="18" height="6"></rect>
                        <path d="M25,15.0879676 L13.538591,20 L25,24.9120324 L36.461409,20 L25,15.0879676 Z" id="Polygon-2" fill="#CCCCCC"></path>
                    </g>
                    <g id="front" transform="translate(40.000000, 36.000000)">
                        <rect id="Rectangle-4" stroke="#000000" stroke-width="2" fill-opacity="0" fill="#000000" x="1" y="1" width="198" height="188"></rect>
                        <g id="art-2" transform="translate(150.000000, 50.000000)" stroke="#000000" stroke-width="2">
                            <rect id="logo-copy-2" fill="#FFFFFF" x="1" y="1" width="28" height="28"></rect>
                            <g id="text-copy" transform="translate(0.000000, 32.000000)" fill="#000000" fill-opacity="0.200000003">
                                <rect id="Rectangle-4-Copy-6" x="1" y="1" width="21" height="1"></rect>
                                <rect id="Rectangle-4-Copy-9" x="1" y="5" width="25" height="1"></rect>
                                <rect id="Rectangle-4-Copy-11" x="1" y="9" width="18" height="1"></rect>
                                <rect id="Rectangle-4-Copy-12" x="1" y="13" width="6" height="1"></rect>
                                <rect id="Rectangle-4-Copy-14" x="11" y="13" width="17" height="1"></rect>
                                <rect id="Rectangle-4-Copy-13" x="23" y="9" width="2" height="1"></rect>
                            </g>
                        </g>
                        <g id="art-1" transform="translate(115.000000, 50.000000)" stroke="#000000" stroke-width="2">
                            <rect id="logo-copy" fill="#FFFFFF" x="1" y="1" width="28" height="28"></rect>
                            <g id="text" transform="translate(0.000000, 32.000000)" fill="#000000" fill-opacity="0.200000003">
                                <rect id="Rectangle-4-Copy-6" x="1" y="1" width="28" height="1"></rect>
                                <rect id="Rectangle-4-Copy-9" x="1" y="5" width="13" height="1"></rect>
                                <rect id="Rectangle-4-Copy-10" x="18" y="5" width="8" height="1"></rect>
                                <rect id="Rectangle-4-Copy-11" x="1" y="9" width="23" height="1"></rect>
                                <rect id="Rectangle-4-Copy-12" x="1" y="13" width="6" height="1"></rect>
                                <rect id="Rectangle-4-Copy-14" x="17" y="13" width="8" height="1"></rect>
                                <rect id="Rectangle-4-Copy-13" x="11" y="13" width="2" height="1"></rect>
                            </g>
                        </g>
                        <g id="art-1-copy-2" transform="translate(20.000000, 119.000000)" stroke="#000000" stroke-width="2">
                            <rect id="logo-copy" fill="#FFFFFF" x="1" y="1" width="28" height="13"></rect>
                            <g id="text" transform="translate(32.000000, 0.000000)" fill="#000000" fill-opacity="0.200000003">
                                <rect id="Rectangle-4-Copy-6" x="1" y="1" width="38" height="1"></rect>
                                <rect id="Rectangle-4-Copy-9" x="1" y="5" width="13" height="1"></rect>
                                <rect id="Rectangle-4-Copy-10" x="18" y="5" width="18" height="1"></rect>
                                <rect id="Rectangle-4-Copy-11" x="1" y="9" width="23" height="1"></rect>
                            </g>
                        </g>
                        <g id="art-1-copy-3" transform="translate(20.000000, 138.000000)" stroke="#000000" stroke-width="2">
                            <rect id="logo-copy" fill="#FFFFFF" x="1" y="1" width="28" height="13"></rect>
                            <g id="text" transform="translate(32.000000, 1.000000)" fill="#000000" fill-opacity="0.200000003">
                                <rect id="Rectangle-4-Copy-9" x="1" y="1" width="13" height="1"></rect>
                                <rect id="Rectangle-4-Copy-10" x="18" y="1" width="18" height="1"></rect>
                                <rect id="Rectangle-4-Copy-11" x="1" y="5" width="23" height="1"></rect>
                                <rect id="Rectangle-4-Copy-12" x="1" y="9" width="8" height="1"></rect>
                                <rect id="Rectangle-4-Copy-14" x="7" y="9" width="12" height="1"></rect>
                            </g>
                        </g>
                        <g id="art-1-copy-4" transform="translate(20.000000, 157.000000)" stroke="#000000" stroke-width="2">
                            <rect id="logo-copy" fill="#FFFFFF" x="1" y="1" width="28" height="13"></rect>
                            <g id="text" transform="translate(32.000000, 1.000000)" fill="#000000" fill-opacity="0.200000003">
                                <rect id="Rectangle-4-Copy-6" x="1" y="1" width="28" height="1"></rect>
                                <rect id="Rectangle-4-Copy-11" x="1" y="5" width="23" height="1"></rect>
                                <rect id="Rectangle-4-Copy-12" x="1" y="9" width="6" height="1"></rect>
                                <rect id="Rectangle-4-Copy-14" x="17" y="9" width="8" height="1"></rect>
                                <rect id="Rectangle-4-Copy-13" x="11" y="9" width="2" height="1"></rect>
                            </g>
                        </g>
                        <rect id="logo-copy" stroke="#000000" stroke-width="2" fill="#45F0F9" x="116" y="163" width="63" height="8"></rect>
                        <g id="art-2-copy" transform="translate(150.000000, 106.000000)" stroke="#000000" stroke-width="2">
                            <rect id="logo-copy-2" fill="#FFFFFF" x="1" y="1" width="28" height="28"></rect>
                            <g id="text-copy" transform="translate(0.000000, 32.000000)" fill="#000000" fill-opacity="0.200000003">
                                <rect id="Rectangle-4-Copy-6" x="1" y="1" width="21" height="1"></rect>
                                <rect id="Rectangle-4-Copy-9" x="1" y="5" width="25" height="1"></rect>
                                <rect id="Rectangle-4-Copy-11" x="1" y="9" width="18" height="1"></rect>
                                <rect id="Rectangle-4-Copy-12" x="1" y="13" width="6" height="1"></rect>
                                <rect id="Rectangle-4-Copy-14" x="11" y="13" width="17" height="1"></rect>
                                <rect id="Rectangle-4-Copy-13" x="23" y="9" width="2" height="1"></rect>
                            </g>
                        </g>
                        <g id="art-1-copy" transform="translate(115.000000, 106.000000)" stroke="#000000" stroke-width="2">
                            <rect id="logo-copy" fill="#FFFFFF" x="1" y="1" width="28" height="28"></rect>
                            <g id="text" transform="translate(0.000000, 32.000000)" fill="#000000" fill-opacity="0.200000003">
                                <rect id="Rectangle-4-Copy-6" x="1" y="1" width="28" height="1"></rect>
                                <rect id="Rectangle-4-Copy-9" x="1" y="5" width="13" height="1"></rect>
                                <rect id="Rectangle-4-Copy-10" x="18" y="5" width="8" height="1"></rect>
                                <rect id="Rectangle-4-Copy-11" x="1" y="9" width="23" height="1"></rect>
                                <rect id="Rectangle-4-Copy-12" x="1" y="13" width="6" height="1"></rect>
                                <rect id="Rectangle-4-Copy-14" x="17" y="13" width="8" height="1"></rect>
                                <rect id="Rectangle-4-Copy-13" x="11" y="13" width="2" height="1"></rect>
                            </g>
                        </g>
                        <rect id="Rectangle-4-Copy" fill="#000000" x="0" y="0" width="200" height="10"></rect>
                        <rect id="logo" stroke="#000000" stroke-width="2" fill-opacity="0.200000003" fill="#000000" x="21" y="31" width="38" height="8"></rect>
                        <g id="video" transform="translate(20.000000, 50.000000)">
                            <rect id="Rectangle-4-Copy-3" stroke="#000000" stroke-width="2" fill="#CCCCCC" x="1" y="1" width="83" height="45"></rect>
                            <rect id="Rectangle-4-Copy-6" stroke="#000000" stroke-width="2" fill-opacity="0.200000003" fill="#000000" x="1" y="50" width="48" height="1"></rect>
                            <rect id="Rectangle-4-Copy-15" stroke="#000000" stroke-width="2" fill-opacity="0.200000003" fill="#000000" x="1" y="54" width="83" height="1"></rect>
                            <rect id="Rectangle-4-Copy-16" stroke="#000000" stroke-width="2" fill-opacity="0.200000003" fill="#000000" x="1" y="58" width="33" height="1"></rect>
                            <polygon id="Rectangle-5" fill="#000000" points="40 21 45 25 40 29"></polygon>
                        </g>
                        <g id="menu" transform="translate(90.000000, 30.000000)" fill="#000000" fill-opacity="0.200000003" stroke="#000000" stroke-width="2">
                            <rect id="Rectangle-4-Copy-8" x="76" y="1" width="13" height="2"></rect>
                            <rect id="Rectangle-4-Copy-4" x="1" y="1" width="13" height="2"></rect>
                            <rect id="Rectangle-4-Copy-5" x="26" y="1" width="13" height="2"></rect>
                            <rect id="Rectangle-4-Copy-7" x="51" y="1" width="13" height="2"></rect>
                        </g>
                    </g>
                    <g id="window-2" transform="translate(253.000000, 85.000000)" stroke="#000000" stroke-width="2">
                        <rect id="logo-copy-2" fill="#FFFFFF" x="1" y="1" width="48" height="48"></rect>
                        <rect id="logo-copy-3" fill="#000000" x="1" y="1" width="48" height="4"></rect>
                        <rect id="Rectangle-4-Copy-6" fill-opacity="0.200000003" fill="#000000" x="27" y="11" width="11" height="1"></rect>
                        <rect id="Rectangle-4-Copy-57" fill-opacity="0.200000003" fill="#000000" x="7" y="11" width="6" height="6"></rect>
                        <rect id="Rectangle-4-Copy-58" fill-opacity="0.200000003" fill="#000000" x="14" y="18" width="8" height="10"></rect>
                        <rect id="Rectangle-4-Copy-9" fill-opacity="0.200000003" fill="#000000" x="27" y="15" width="15" height="1"></rect>
                        <rect id="Rectangle-4-Copy-11" fill-opacity="0.200000003" fill="#000000" x="27" y="19" width="8" height="1"></rect>
                        <rect id="Rectangle-4-Copy-59" fill-opacity="0.200000003" fill="#000000" x="27" y="23" width="10" height="1"></rect>
                        <rect id="Rectangle-4-Copy-66" fill-opacity="0.200000003" fill="#000000" x="27" y="27" width="5" height="1"></rect>
                        <rect id="Rectangle-4-Copy-60" fill-opacity="0.200000003" fill="#000000" x="41" y="23" width="2" height="1"></rect>
                        <rect id="Rectangle-4-Copy-65" fill-opacity="0.200000003" fill="#000000" x="39" y="19" width="4" height="1"></rect>
                        <rect id="Rectangle-4-Copy-12" fill="#45F0F9" x="7" y="37" width="6" height="6"></rect>
                        <path d="M13,37 L13,43 L43,43 L43,37 L13,37 Z" id="Rectangle-4-Copy-14" fill="#45F0F9"></path>
                    </g>
                    <g id="window-2-copy" transform="translate(253.000000, 140.000000)" stroke="#000000" stroke-width="2">
                        <rect id="logo-copy-2" fill="#FFFFFF" x="1" y="1" width="48" height="48"></rect>
                        <rect id="logo-copy-3" fill="#000000" x="1" y="1" width="48" height="4"></rect>
                        <path d="M25,39 L44,39 L43,38 L43,40 L44,39 L25,39 Z M25,39 L6,39 L7,40 L7,38 L6,39 L25,39 Z" id="Rectangle-4-Copy-6" fill-opacity="0.200000003" fill="#000000"></path>
                        <rect id="Rectangle-4-Copy-57" fill="#CCCCCC" x="7" y="11" width="36" height="24"></rect>
                        <path d="M7,25.7661904 L7,35 L43,35 L43,24.6867991 L31.1508631,20.1294387 L16.055411,31.199437 L7,25.7661904 Z" id="Rectangle-4-Copy-58" fill-opacity="0.200000003" fill="#000000"></path>
                        <rect id="Rectangle-4-Copy-9" fill-opacity="0.200000003" fill="#000000" x="7" y="43" width="31" height="1"></rect>
                    </g>
                    <g id="backend" transform="translate(631.000000, 36.000000)">
                        <rect id="Rectangle-4" stroke="#000000" stroke-width="2" fill="#000000" x="1" y="1" width="198" height="188"></rect>
                        <g id="segment" transform="translate(20.000000, 30.000000)">
                            <rect id="Rectangle-4-Copy-6" fill="#45F0F9" x="0" y="0" width="30" height="2"></rect>
                            <rect id="Rectangle-4-Copy-17" fill="#FFFFFF" x="10" y="4" width="30" height="2"></rect>
                            <rect id="Rectangle-4-Copy-18" fill="#FFFFFF" x="42" y="4" width="30" height="2"></rect>
                            <rect id="Rectangle-4-Copy-19" fill="#FFFFFF" x="74" y="4" width="10" height="2"></rect>
                            <rect id="Rectangle-4-Copy-20" fill="#FFFFFF" x="86" y="4" width="10" height="2"></rect>
                            <rect id="Rectangle-4-Copy-23" fill="#E1F196" x="120" y="4" width="20" height="2"></rect>
                            <rect id="Rectangle-4-Copy-22" fill="#FFFFFF" x="98" y="4" width="20" height="2"></rect>
                            <rect id="Rectangle-4-Copy-32" fill="#FFFFFF" x="10" y="8" width="40" height="2"></rect>
                            <rect id="Rectangle-4-Copy-21" fill="#E1F196" x="52" y="8" width="25" height="2"></rect>
                            <rect id="Rectangle-4-Copy-24" fill="#FFFFFF" x="79" y="8" width="5" height="2"></rect>
                            <rect id="Rectangle-4-Copy-25" fill="#FFFFFF" x="86" y="8" width="16" height="2"></rect>
                            <rect id="Rectangle-4-Copy-26" fill="#E1F196" x="104" y="8" width="24" height="2"></rect>
                            <rect id="Rectangle-4-Copy-27" fill="#FFFFFF" x="130" y="8" width="14" height="2"></rect>
                            <rect id="Rectangle-4-Copy-36" fill="#E1F196" x="10" y="12" width="30" height="2"></rect>
                            <rect id="Rectangle-4-Copy-28" fill="#E1F196" x="42" y="12" width="15" height="2"></rect>
                            <rect id="Rectangle-4-Copy-29" fill="#E1F196" x="59" y="12" width="10" height="2"></rect>
                            <rect id="Rectangle-4-Copy-30" fill="#E1F196" x="71" y="12" width="10" height="2"></rect>
                            <rect id="Rectangle-4-Copy-31" fill="#FFFFFF" x="83" y="12" width="20" height="2"></rect>
                            <rect id="Rectangle-4-Copy-33" fill="#FFFFFF" x="105" y="12" width="10" height="2"></rect>
                        </g>
                        <g id="segment-copy-3" transform="translate(20.000000, 110.000000)">
                            <rect id="Rectangle-4-Copy-6" fill="#45F0F9" x="0" y="0" width="30" height="2"></rect>
                            <rect id="Rectangle-4-Copy-17" fill="#FFFFFF" x="10" y="4" width="30" height="2"></rect>
                            <rect id="Rectangle-4-Copy-18" fill="#FFFFFF" x="42" y="4" width="30" height="2"></rect>
                            <rect id="Rectangle-4-Copy-19" fill="#FFFFFF" x="74" y="4" width="10" height="2"></rect>
                            <rect id="Rectangle-4-Copy-20" fill="#FFFFFF" x="86" y="4" width="10" height="2"></rect>
                            <rect id="Rectangle-4-Copy-23" fill="#E1F196" x="120" y="4" width="20" height="2"></rect>
                            <rect id="Rectangle-4-Copy-22" fill="#FFFFFF" x="98" y="4" width="20" height="2"></rect>
                            <rect id="Rectangle-4-Copy-32" fill="#FFFFFF" x="10" y="8" width="40" height="2"></rect>
                            <rect id="Rectangle-4-Copy-21" fill="#E1F196" x="52" y="8" width="25" height="2"></rect>
                            <rect id="Rectangle-4-Copy-24" fill="#FFFFFF" x="79" y="8" width="5" height="2"></rect>
                            <rect id="Rectangle-4-Copy-25" fill="#FFFFFF" x="86" y="8" width="16" height="2"></rect>
                            <rect id="Rectangle-4-Copy-26" fill="#E1F196" x="104" y="8" width="24" height="2"></rect>
                            <rect id="Rectangle-4-Copy-27" fill="#FFFFFF" x="130" y="8" width="14" height="2"></rect>
                        </g>
                        <g id="segment-copy" transform="translate(20.000000, 54.000000)">
                            <rect id="Rectangle-4-Copy-6" fill="#45F0F9" x="0" y="0" width="36" height="2"></rect>
                            <rect id="Rectangle-4-Copy-54" fill="#FFFFFF" x="10" y="4" width="30" height="2"></rect>
                            <rect id="Rectangle-4-Copy-34" fill="#E1F196" x="42" y="4" width="30" height="2"></rect>
                            <rect id="Rectangle-4-Copy-35" fill="#FFFFFF" x="74" y="4" width="10" height="2"></rect>
                            <rect id="Rectangle-4-Copy-37" fill="#FFFFFF" x="86" y="4" width="10" height="2"></rect>
                            <rect id="Rectangle-4-Copy-38" fill="#FFFFFF" x="98" y="4" width="20" height="2"></rect>
                            <rect id="Rectangle-4-Copy-39" fill="#E1F196" x="10" y="8" width="20" height="2"></rect>
                            <rect id="Rectangle-4-Copy-40" fill="#FFFFFF" x="32" y="8" width="40" height="2"></rect>
                            <rect id="Rectangle-4-Copy-41" fill="#E1F196" x="74" y="8" width="25" height="2"></rect>
                            <rect id="Rectangle-4-Copy-42" fill="#FFFFFF" x="101" y="8" width="5" height="2"></rect>
                            <rect id="Rectangle-4-Copy-43" fill="#FFFFFF" x="108" y="8" width="16" height="2"></rect>
                            <rect id="Rectangle-4-Copy-44" fill="#E1F196" x="10" y="12" width="30" height="2"></rect>
                            <rect id="Rectangle-4-Copy-45" fill="#FFFFFF" x="42" y="12" width="14" height="2"></rect>
                            <rect id="Rectangle-4-Copy-46" fill="#FFFFFF" x="58" y="12" width="30" height="2"></rect>
                            <rect id="Rectangle-4-Copy-47" fill="#E1F196" x="90" y="12" width="15" height="2"></rect>
                            <rect id="Rectangle-4-Copy-48" fill="#E1F196" x="107" y="12" width="10" height="2"></rect>
                            <rect id="Rectangle-4-Copy-49" fill="#FFFFFF" x="10" y="16" width="10" height="2"></rect>
                            <rect id="Rectangle-4-Copy-50" fill="#FFFFFF" x="22" y="16" width="20" height="2"></rect>
                            <rect id="Rectangle-4-Copy-53" fill="#FFFFFF" x="68" y="16" width="10" height="2"></rect>
                            <rect id="Rectangle-4-Copy-52" fill="#FFFFFF" x="56" y="16" width="10" height="2"></rect>
                            <rect id="Rectangle-4-Copy-51" fill="#FFFFFF" x="44" y="16" width="10" height="2"></rect>
                        </g>
                        <g id="segment-copy-4" transform="translate(20.000000, 130.000000)">
                            <rect id="Rectangle-4-Copy-6" fill="#45F0F9" x="0" y="0" width="36" height="2"></rect>
                            <rect id="Rectangle-4-Copy-54" fill="#FFFFFF" x="10" y="4" width="30" height="2"></rect>
                            <rect id="Rectangle-4-Copy-34" fill="#E1F196" x="42" y="4" width="30" height="2"></rect>
                            <rect id="Rectangle-4-Copy-35" fill="#FFFFFF" x="74" y="4" width="10" height="2"></rect>
                            <rect id="Rectangle-4-Copy-37" fill="#FFFFFF" x="86" y="4" width="10" height="2"></rect>
                            <rect id="Rectangle-4-Copy-38" fill="#FFFFFF" x="98" y="4" width="20" height="2"></rect>
                            <rect id="Rectangle-4-Copy-39" fill="#E1F196" x="10" y="8" width="20" height="2"></rect>
                            <rect id="Rectangle-4-Copy-40" fill="#FFFFFF" x="32" y="8" width="40" height="2"></rect>
                            <rect id="Rectangle-4-Copy-41" fill="#E1F196" x="74" y="8" width="25" height="2"></rect>
                            <rect id="Rectangle-4-Copy-42" fill="#FFFFFF" x="101" y="8" width="5" height="2"></rect>
                            <rect id="Rectangle-4-Copy-43" fill="#FFFFFF" x="108" y="8" width="16" height="2"></rect>
                            <rect id="Rectangle-4-Copy-44" fill="#E1F196" x="10" y="12" width="30" height="2"></rect>
                            <rect id="Rectangle-4-Copy-45" fill="#FFFFFF" x="42" y="12" width="14" height="2"></rect>
                            <rect id="Rectangle-4-Copy-46" fill="#FFFFFF" x="58" y="12" width="30" height="2"></rect>
                            <rect id="Rectangle-4-Copy-47" fill="#E1F196" x="90" y="12" width="15" height="2"></rect>
                            <rect id="Rectangle-4-Copy-48" fill="#E1F196" x="107" y="12" width="10" height="2"></rect>
                            <rect id="Rectangle-4-Copy-49" fill="#FFFFFF" x="10" y="16" width="10" height="2"></rect>
                            <rect id="Rectangle-4-Copy-50" fill="#FFFFFF" x="22" y="16" width="20" height="2"></rect>
                            <rect id="Rectangle-4-Copy-53" fill="#FFFFFF" x="68" y="16" width="10" height="2"></rect>
                            <rect id="Rectangle-4-Copy-52" fill="#FFFFFF" x="56" y="16" width="10" height="2"></rect>
                            <rect id="Rectangle-4-Copy-51" fill="#FFFFFF" x="44" y="16" width="10" height="2"></rect>
                        </g>
                        <g id="segment-copy-2" transform="translate(20.000000, 82.000000)">
                            <rect id="Rectangle-4-Copy-6" fill="#45F0F9" x="0" y="0" width="26" height="2"></rect>
                            <rect id="Rectangle-4-Copy-82" fill="#FFFFFF" x="10" y="4" width="40" height="2"></rect>
                            <rect id="Rectangle-4-Copy-55" fill="#E1F196" x="52" y="4" width="40" height="2"></rect>
                            <rect id="Rectangle-4-Copy-56" fill="#FFFFFF" x="94" y="4" width="20" height="2"></rect>
                            <rect id="Rectangle-4-Copy-61" fill="#E1F196" x="10" y="8" width="35" height="2"></rect>
                            <rect id="Rectangle-4-Copy-62" fill="#FFFFFF" x="47" y="8" width="15" height="2"></rect>
                            <rect id="Rectangle-4-Copy-63" fill="#FFFFFF" x="64" y="8" width="26" height="2"></rect>
                            <rect id="Rectangle-4-Copy-64" fill="#E1F196" x="92" y="8" width="40" height="2"></rect>
                            <rect id="Rectangle-4-Copy-68" fill="#E1F196" x="10" y="12" width="20" height="2"></rect>
                            <rect id="Rectangle-4-Copy-69" fill="#FFFFFF" x="32" y="12" width="20" height="2"></rect>
                            <rect id="Rectangle-4-Copy-70" fill="#FFFFFF" x="54" y="12" width="30" height="2"></rect>
                            <rect id="Rectangle-4-Copy-71" fill="#FFFFFF" x="86" y="12" width="20" height="2"></rect>
                            <rect id="Rectangle-4-Copy-72" fill="#FFFFFF" x="108" y="12" width="20" height="2"></rect>
                            <rect id="Rectangle-4-Copy-79" fill="#FFFFFF" x="98" y="16" width="20" height="2"></rect>
                            <rect id="Rectangle-4-Copy-78" fill="#FFFFFF" x="76" y="16" width="20" height="2"></rect>
                            <rect id="Rectangle-4-Copy-77" fill="#FFFFFF" x="54" y="16" width="20" height="2"></rect>
                            <rect id="Rectangle-4-Copy-76" fill="#FFFFFF" x="32" y="16" width="20" height="2"></rect>
                            <rect id="Rectangle-4-Copy-75" fill="#FFFFFF" x="10" y="16" width="20" height="2"></rect>
                        </g>
                        <g id="segment-copy-5" transform="translate(20.000000, 158.000000)">
                            <rect id="Rectangle-4-Copy-6" fill="#45F0F9" x="0" y="0" width="26" height="2"></rect>
                            <rect id="Rectangle-4-Copy-82" fill="#FFFFFF" x="10" y="4" width="40" height="2"></rect>
                            <rect id="Rectangle-4-Copy-55" fill="#E1F196" x="52" y="4" width="40" height="2"></rect>
                            <rect id="Rectangle-4-Copy-56" fill="#FFFFFF" x="94" y="4" width="20" height="2"></rect>
                            <rect id="Rectangle-4-Copy-61" fill="#E1F196" x="10" y="8" width="35" height="2"></rect>
                            <rect id="Rectangle-4-Copy-62" fill="#FFFFFF" x="47" y="8" width="15" height="2"></rect>
                            <rect id="Rectangle-4-Copy-63" fill="#FFFFFF" x="64" y="8" width="26" height="2"></rect>
                            <rect id="Rectangle-4-Copy-64" fill="#E1F196" x="92" y="8" width="40" height="2"></rect>
                            <rect id="Rectangle-4-Copy-68" fill="#E1F196" x="10" y="12" width="20" height="2"></rect>
                            <rect id="Rectangle-4-Copy-69" fill="#FFFFFF" x="32" y="12" width="20" height="2"></rect>
                            <rect id="Rectangle-4-Copy-70" fill="#FFFFFF" x="54" y="12" width="30" height="2"></rect>
                            <rect id="Rectangle-4-Copy-71" fill="#FFFFFF" x="86" y="12" width="20" height="2"></rect>
                            <rect id="Rectangle-4-Copy-72" fill="#FFFFFF" x="108" y="12" width="20" height="2"></rect>
                        </g>
                        <rect id="Rectangle-4-Copy" stroke="#000000" stroke-width="2" fill="#FFFFFF" x="1" y="1" width="198" height="8"></rect>
                    </g>
                    <g id="mouse" transform="translate(0.000000, 162.000000)">
                        <path d="M15,15 C7.2680135,15 1,21.2680135 1,29 L1,49 C1,56.7319865 7.2680135,63 15,63 C22.7319865,63 29,56.7319865 29,49 L29,29 C29,21.2680135 22.7319865,15 15,15 Z" id="Rectangle-8" stroke="#000000" stroke-width="2" fill="#FFFFFF"></path>
                        <rect id="Rectangle-8-Copy" stroke="#000000" stroke-width="2" fill="#FFFFFF" x="11" y="23" width="8" height="8" rx="4"></rect>
                        <rect id="Rectangle-9" fill="#000000" x="14" y="0" width="2" height="10" rx="1"></rect>
                        <rect id="Rectangle-9-Copy" fill="#000000" transform="translate(21.616025, 7.531089) rotate(30.000000) translate(-21.616025, -7.531089) " x="20.6160254" y="4.03108891" width="2" height="7" rx="1"></rect>
                        <rect id="Rectangle-9-Copy-2" fill="#000000" transform="translate(8.616025, 7.531089) scale(-1, 1) rotate(30.000000) translate(-8.616025, -7.531089) " x="7.6160254" y="4.03108891" width="2" height="7" rx="1"></rect>
                    </g>
                    <g id="paper" transform="translate(370.000000, 90.000000)" fill="#000000">
                        <path d="M1,1 L1,79 L59,79 L59,10.4142136 L49.5857864,1 L1,1 Z" id="Rectangle-10" stroke="#000000" stroke-width="2" fill-opacity="0"></path>
                        <polygon id="Rectangle-11" points="49 1 59 11 49 11"></polygon>
                    </g>
                    <g id="paper-copy" transform="translate(440.000000, 90.000000)" fill="#000000">
                        <path d="M1,1 L1,79 L59,79 L59,10.4142136 L49.5857864,1 L1,1 Z" id="Rectangle-10" stroke="#000000" stroke-width="2" fill-opacity="0"></path>
                        <polygon id="Rectangle-11" points="49 1 59 11 49 11"></polygon>
                    </g>
                    <g id="arrow" transform="translate(404.000000, 112.000000)">
                        <rect id="Rectangle-12" fill="#000000" x="1" y="8" width="62" height="2"></rect>
                        <path d="M0.5,9.5 L9.55538514,0.444614862" id="Line-2" stroke="#000000" stroke-width="2"></path>
                        <path d="M0.5,17.5 L9.55538514,8.44461486" id="Line-2-Copy" stroke="#000000" stroke-width="2" transform="translate(5.000000, 13.000000) scale(1, -1) translate(-5.000000, -13.000000) "></path>
                    </g>
                    <g id="arrow-copy" transform="translate(435.500000, 141.000000) scale(-1, 1) translate(-435.500000, -141.000000) translate(404.000000, 132.000000)">
                        <rect id="Rectangle-12" fill="#000000" x="1" y="8" width="62" height="2"></rect>
                        <path d="M0.5,9.5 L9.55538514,0.444614862" id="Line-2" stroke="#000000" stroke-width="2"></path>
                        <path d="M0.5,17.5 L9.55538514,8.44461486" id="Line-2-Copy" stroke="#000000" stroke-width="2" transform="translate(5.000000, 13.000000) scale(1, -1) translate(-5.000000, -13.000000) "></path>
                    </g>
                    <path d="M240.5,69 L318.5,69 C324.29899,69 329,73.7010101 329,79.5 L329,79.9999632 C329,85.522831 333.477169,90 339.000037,90 L339.000037,90 C344.522905,90 349.000074,85.522831 349.000074,79.9999632 L349.000074,16.0011382 C349.000074,13.2390858 351.239159,11 354.001212,11 L354.001212,11 C356.763264,11 359.00235,13.2390858 359.00235,16.0011382 L359.00235,28.0074869 C359.00235,37.3996982 366.616242,45.0135898 376.008453,45.0135898 C376.008914,45.0135898 376.009376,45.0135898 376.009837,45.0135898 L533.50379,45.0007731 C538.750068,45.0003462 543.003363,49.2529488 543.00379,54.499227 C543.00379,54.4994846 543.00379,54.4997423 543.00379,54.5 L543.00379,54.5 C543.00379,59.7467051 547.257085,64 552.50379,64 L553.001895,64 C558.523696,64 563,59.523696 563,54.0018951 L563,5 C563,2.23857625 565.238576,-1.26909153e-15 568,-1.77635684e-15 L568,-1.77635684e-15 C570.761424,-2.28362215e-15 573,2.23857625 573,5 L573,69 C573,74.5228475 577.477153,79 583,79 L583,79 C588.522847,79 593,74.5228475 593,69 L593,67 C593,60.372583 598.372583,55 605,55 L633,55" id="Line" stroke="#000000" stroke-width="2" stroke-linecap="square"></path>
                    <path d="M240.5,205 L319.5,205 C324.746705,205 329,200.746705 329,195.5 L329,195.5 C329,190.253295 333.253295,186 338.5,186 L339.000037,186 C344.522905,186 349.000074,190.477169 349.000074,196.000037 L349.000074,251.998862 C349.000074,254.760914 351.239159,257 354.001212,257 L354.001212,257 C356.763264,257 359.00235,254.760914 359.00235,251.998862 L359.00235,234.007487 C359.00235,221.30877 369.296146,211.014136 381.994863,211.013103 L527.50379,211.001261 C536.064408,211.000565 543.00379,204.060618 543.00379,195.5 L543.00379,184.998105 C543.00379,182.237728 545.241518,180 548.001895,180 L548.001895,180 C550.762272,180 553,182.237728 553,184.998105 L553,221 C553,223.761424 555.238576,226 558,226 L558,226 C560.761424,226 563,223.761424 563,221 L563,218.5 C563,214.357864 566.357864,211 570.5,211 L633,211" id="Line-Copy" stroke="#000000" stroke-width="2" stroke-linecap="square"></path>
                    <g id="note" transform="translate(837.000000, 124.000000)" stroke="#000000" stroke-width="2">
                        <path d="M1,3 L1,101 L48,101 C54.0751322,101 59,96.0751322 59,90 L59,14 C59,7.92486775 54.0751322,3 48,3 L1,3 Z" id="Rectangle-13" fill-opacity="0.200000003" fill="#000000"></path>
                        <rect id="Rectangle-13" fill="#FFFFFF" x="1" y="33" width="58" height="38"></rect>
                        <rect id="Rectangle-13-Copy" fill="#FFFFFF" x="6" y="3" width="1" height="97"></rect>
                        <rect id="Rectangle-13-Copy-2" fill="#000000" x="37" y="1" width="6" height="102" rx="2"></rect>
                    </g>
                    <g id="time" transform="translate(411.000000, 186.000000)">
                        <circle id="Oval" stroke="#000000" stroke-width="2" fill="#E1F196" cx="25" cy="25" r="24"></circle>
                        <circle id="Oval-Copy" stroke="#000000" stroke-width="2" fill="#FFFFFF" cx="25" cy="25" r="18"></circle>
                        <rect id="Rectangle-14" fill="#000000" x="24" y="14" width="2" height="11" rx="1"></rect>
                        <rect id="Rectangle-14-Copy" fill="#000000" x="24" y="24" width="9" height="2" rx="1"></rect>
                    </g>
                    <g id="text" transform="translate(411.000000, 32.000000)" stroke="#000000" stroke-width="2">
                        <path d="M1,1 L1,29 L19.236068,29 L28,33.381966 L28,29 L49,29 L49,1 L1,1 Z" id="logo-copy-2" fill="#E1F196"></path>
                        <rect id="Rectangle-4-Copy-6" fill-opacity="0.200000003" fill="#000000" x="11" y="11" width="21" height="1"></rect>
                        <path d="M24.5,15 L39,15 L38,14 L38,16 L39,15 L24.5,15 Z M24.5,15 L10,15 L11,16 L11,14 L10,15 L24.5,15 Z" id="Rectangle-4-Copy-67" fill-opacity="0.200000003" fill="#000000"></path>
                        <path d="M19,19 L28,19 L27,18 L27,20 L28,19 L19,19 Z M19,19 L10,19 L11,20 L11,18 L10,19 L19,19 Z" id="Rectangle-4-Copy-73" fill-opacity="0.200000003" fill="#000000"></path>
                    </g>
                    <g id="gear-option" transform="translate(352.000000, 114.000000)" fill="#000000" fill-rule="nonzero">
                        <path d="M161.703646,14.7134387 L161.513378,14.6459389 L160.770261,12.8805028 L160.850847,12.699104 C163.102046,7.61767531 162.946824,7.46609692 162.573427,7.09770115 L159.570566,4.18218556 C159.447795,4.06096591 159.232216,3.97570307 159.046383,3.97570307 C158.877424,3.97570307 158.365679,3.97570307 153.93067,5.97485839 L153.752841,6.05430786 L151.923065,5.32096128 L151.849619,5.13967008 C149.764025,0 149.550393,0 149.031401,0 L144.790662,0 C144.273617,0 144.038135,0 142.104193,5.14860545 L142.031396,5.33603299 L140.211139,6.07454702 L140.037096,6.00252575 C137.035209,4.74296101 135.282449,4.10424327 134.825546,4.10424327 C134.640146,4.10424327 134.423809,4.18703004 134.300497,4.30792673 L131.294824,7.23183941 C130.91353,7.60615622 130.755388,7.76290205 133.124491,12.7382904 L133.211566,12.9228113 L132.46726,14.6863096 L132.285105,14.7563931 C127,16.7891368 127,16.9873298 127,17.5167776 L127,21.6526715 C127,22.1835188 127,22.4039965 132.295597,24.2928053 L132.484892,24.3593362 L133.229306,26.117667 L133.14937,26.2973434 C130.89817,31.3811405 131.040953,31.5187237 131.424193,31.8981003 L134.422511,34.8175991 C134.548203,34.9378499 134.765729,35.0237587 134.951238,35.0237587 C135.119115,35.0237587 135.629669,35.0237587 140.0676,33.0255722 L140.24532,32.9427855 L142.076286,33.6797923 L142.14746,33.8620524 C144.234352,39 144.448742,39 144.968058,39 L149.210095,39 C149.742716,39 149.963596,39 151.899052,33.8479496 L151.9712,33.6604144 L153.794377,32.9268525 L153.967879,32.9972589 C156.967279,34.2603763 158.719173,34.8978022 159.173156,34.8978022 C159.356934,34.8978022 159.575218,34.8175991 159.700585,34.6940111 L162.711126,31.7637467 C163.089823,31.3874921 163.247641,31.233653 160.874319,26.2630014 L160.786054,26.0763275 L161.529062,24.3204727 L161.706458,24.2512505 C167,22.2078489 167,22.0086869 167,21.4785932 L167,17.3451754 C166.999892,16.8144357 166.999892,16.5952499 161.703646,14.7134387 Z M146.999892,26.2076667 C143.20989,26.2076667 140.12666,23.1977376 140.12666,19.5007536 C140.12666,15.8036619 143.209998,12.7977161 146.999892,12.7977161 C150.788271,12.7977161 153.870961,15.8043079 153.870961,19.5007536 C153.871069,23.1970917 150.788379,26.2076667 146.999892,26.2076667 Z" id="Shape"></path>
                        <path d="M20,21 C14.8055428,21 11.0000927,16.2989453 11,10 C11,2.45833624 14.8054502,1.0125234e-13 19,1.0125234e-13 C24.1943645,1.0125234e-13 28,2.45833624 28,10 C28,16.2989453 24.1941792,21 20,21 Z M39,36 C39.1105195,36.5451242 39.0495955,37.3419467 39,38 C38.253683,38.6187804 37.57999,39 37,39 L3,39 C2.41988128,39 1.74637398,38.6189741 1,38 C0.950275718,37.3419467 0.889537471,36.5454147 1,36 L5,26 C5.68117228,25.2885896 6.02619153,24.9055298 6,25 L13,21 C13.2739176,20.9708131 13.452046,20.9863098 14,21 C15.4714534,22.5789863 17.6896997,23.3656391 20,23 C22.3100787,23.3656391 24.5285107,22.5789863 26,21 C26.5475466,20.9863098 26.725675,20.9708131 27,21 L34,25 C33.9736797,24.9055298 34.3190704,25.2887834 35,26 L39,36 Z" id="Combined-Shape"></path>
                    </g>
                    <text id="Front-end" font-family="FuturaPT-Medium, Futura PT" font-size="14" font-weight="400" fill="#161616">
                        <tspan x="114.868" y="251">Front-end</tspan>
                    </text>
                    <text id="Back-end" font-family="FuturaPT-Medium, Futura PT" font-size="14" font-weight="400" fill="#161616">
                        <tspan x="699.715" y="251">Back-end</tspan>
                    </text>
                </g>
            </g>
        </g>
    </g>
</svg>