<?xml version="1.0" encoding="UTF-8"?>
<svg width="128px" height="31px" viewBox="0 0 128 31" version="1.1" xmlns="http://www.w3.org/2000/svg" xmlns:xlink="http://www.w3.org/1999/xlink">
    <!-- Generator: Sketch 52.2 (67145) - http://www.bohemiancoding.com/sketch -->
    <title>walmart-seeklogo.com</title>
    <desc>Created with Sketch.</desc>
    <style>
        * {
            fill: white !important;
        }
    </style>
    <g id="Page-1" stroke="none" stroke-width="1" fill="none" fill-rule="evenodd">
        <g id="home" transform="translate(-195.000000, -1787.000000)">
            <g id="section-3" transform="translate(8.000000, 1631.000000)">
                <g id="walmart-seeklogo.com" transform="translate(187.000000, 156.000000)">
                    <path d="M72.1934463,21.1441136 C72.1934463,21.3857727 72.1695819,21.6365909 72.1030508,21.8535909 C71.8217401,22.7610455 70.8548701,23.5297045 69.6479096,23.5297045 C68.6427119,23.5297045 67.84,22.9717045 67.84,21.7944091 C67.84,19.9935909 69.8764294,19.4961818 72.1934463,19.5081591 L72.1934463,21.1441136 Z M75.8266215,18.0067727 C75.8266215,15.0357045 74.5234802,12.4225455 70.1230282,12.4225455 C67.8645876,12.4225455 66.0696949,13.0404318 65.0912542,13.5906818 L65.8071864,15.9783864 C66.7017401,15.4281364 68.1278192,14.973 69.4765198,14.973 C71.7096497,14.9680682 72.0748475,16.20525 72.0748475,16.9978636 L72.0748475,17.1852727 C67.2072316,17.1775227 64.132339,18.8191136 64.132339,22.1642955 C64.132339,24.2074773 65.699435,26.1224318 68.4214237,26.1224318 C70.0977175,26.1224318 71.4977627,25.4707273 72.3366328,24.428 L72.4212429,24.428 C72.4212429,24.428 72.9759096,26.6917045 76.0385085,25.8272273 C75.8794124,24.8838409 75.8266215,23.8770455 75.8266215,22.6680455 L75.8266215,18.0067727 Z" id="Fill-3" fill="#0072AD"></path>
                    <path d="M0,8.37704545 C0,8.37704545 3.17975141,21.07225 3.68741243,23.1330455 C4.27968362,25.5383636 5.34707345,26.4225682 8.42485876,25.8272273 L10.4099435,17.9560455 C10.9139887,15.9995227 11.2509831,14.6066364 11.5742373,12.6177045 L11.6313672,12.6177045 C11.8577175,14.6270682 12.1824181,16.0058636 12.596791,17.9623864 C12.596791,17.9623864 13.404565,21.5351364 13.8189379,23.4120455 C14.2347571,25.2875455 15.3889266,26.4711818 18.4030734,25.8272273 L23.1354576,8.37704545 L19.3149831,8.37704545 L17.699435,15.9213182 C17.2640904,18.1166818 16.8721356,19.8336591 16.5669605,21.8430227 L16.5134463,21.8430227 C16.2364746,19.8533864 15.8864633,18.2054545 15.443887,16.0664545 L13.7625311,8.37704545 L9.78079096,8.37704545 L7.98300565,15.872 C7.47317514,18.1497955 6.99661017,19.9893636 6.69288136,21.9289773 L6.63864407,21.9289773 C6.32768362,20.1020909 5.91331073,17.7904773 5.46711864,15.5859545 C5.46711864,15.5859545 4.39683616,10.2257727 4.02223729,8.37704545" id="Fill-4" fill="#0072AD"></path>
                    <path d="M30.3569718,21.1441136 C30.3569718,21.3857727 30.336,21.6365909 30.2665763,21.8535909 C29.9852655,22.7610455 29.0198418,23.5297045 27.8128814,23.5297045 C26.8055141,23.5297045 26.0056949,22.9717045 26.0056949,21.7944091 C26.0056949,19.9935909 28.040678,19.4961818 30.3569718,19.5081591 L30.3569718,21.1441136 Z M33.9901469,18.0067727 C33.9901469,15.0357045 32.6877288,12.4225455 28.2872768,12.4225455 C26.0266667,12.4225455 24.2339435,13.0404318 23.2540565,13.5906818 L23.971435,15.9783864 C24.8659887,15.4281364 26.2906215,14.973 27.6407684,14.973 C29.8746215,14.9680682 30.2398192,16.20525 30.2398192,16.9978636 L30.2398192,17.1852727 C25.3714802,17.1775227 22.2973107,18.8191136 22.2973107,22.1642955 C22.2973107,24.2074773 23.8629605,26.1224318 26.5849492,26.1224318 C28.2597966,26.1224318 29.6612881,25.4707273 30.5008814,24.428 L30.5825989,24.428 C30.5825989,24.428 31.139435,26.6917045 34.2042034,25.8272273 C34.0422147,24.8838409 33.9901469,23.8770455 33.9901469,22.6680455 L33.9901469,18.0067727 Z" id="Fill-5" fill="#0072AD"></path>
                    <polyline id="Fill-6" fill="#0072AD" points="40.0538757 22.1213182 40.0538757 8.37563636 36.4170847 8.37563636 36.4170847 25.8272273 40.0538757 25.8272273"></polyline>
                    <path d="M87.6409492,8.37704545 L87.6409492,21.2519091 C87.6409492,23.0238409 87.9830056,24.2687727 88.7177401,25.0289773 C89.3570169,25.6919545 90.412113,26.1224318 91.6762034,26.1224318 C92.7537175,26.1224318 93.8124294,25.92375 94.3092429,25.7426818 L94.2622373,22.9731136 C93.8919774,23.0618864 93.4638644,23.1330455 92.8802712,23.1330455 C91.6422147,23.1330455 91.2271186,22.3608636 91.2271186,20.7664773 L91.2271186,15.8431136 L94.3931299,15.8431136 L94.3931299,12.5035682 L91.2271186,12.5035682 L91.2271186,8.37704545" id="Fill-7" fill="#0072AD"></path>
                    <path d="M78.252113,12.7184545 L78.252113,25.8272273 L82.0024407,25.8272273 L82.0024407,19.1143182 C82.0024407,18.7521818 82.0263051,18.4358409 82.0841582,18.1469773 C82.3632994,16.7407045 83.4661243,15.8431136 85.0520226,15.8431136 C85.4866441,15.8431136 85.7983277,15.8882045 86.1324294,15.9354091 L86.1324294,12.5035682 C85.8518418,12.4472045 85.6594802,12.4225455 85.3072994,12.4225455 C83.9058079,12.4225455 82.3134011,13.3018182 81.6451977,15.1907045 L81.5425085,15.1907045 L81.5425085,12.7184545" id="Fill-8" fill="#0072AD"></path>
                    <path d="M42.6008588,12.7184545 L42.6008588,25.8272273 L46.2571751,25.8272273 L46.2571751,18.1392273 C46.2571751,17.7792045 46.2991186,17.3966364 46.4292881,17.0669091 C46.7330169,16.2926136 47.4720904,15.3858636 48.6508475,15.3858636 C50.1261017,15.3858636 50.8167232,16.6005 50.8167232,18.3562273 L50.8167232,25.8272273 L54.4687006,25.8272273 L54.4687006,18.0462273 C54.4687006,17.7024091 54.5171525,17.2888409 54.6220113,16.9830682 C54.9214011,16.1023864 55.7176045,15.3858636 56.8153672,15.3858636 C58.3115932,15.3858636 59.0289718,16.5807727 59.0289718,18.6443864 L59.0289718,25.8272273 L62.6838418,25.8272273 L62.6838418,18.1068182 C62.6838418,14.0338409 60.5613559,12.4225455 58.1669605,12.4225455 C57.1053559,12.4225455 56.2679322,12.6811136 55.5115028,13.1341364 C54.8743955,13.5152955 54.3052655,14.0549773 53.8070056,14.7665682 L53.7534915,14.7665682 C53.1749605,13.3539545 51.8161356,12.4225455 50.0443842,12.4225455 C47.7693107,12.4225455 46.7474802,13.5455909 46.1255593,14.4995455 L46.071322,14.4995455 L46.071322,12.7184545" id="Fill-9" fill="#0072AD"></path>
                    <path d="M114.052339,10.7894091 C114.773333,10.7894091 115.369944,10.4230455 115.450215,9.95029545 L116.163977,2.08193182 C116.163977,1.30481818 115.22965,0.6665 114.053785,0.6665 C112.880814,0.6665 111.946486,1.30481818 111.946486,2.08193182 L112.659525,9.95029545 C112.737627,10.4230455 113.334237,10.7894091 114.056678,10.7894091" id="Fill-10" fill="#F3B53C"></path>
                    <path d="M109.688045,13.2475682 C110.048904,12.6381364 110.020701,11.9512045 109.639593,11.6475455 L103.002395,7.11168182 C102.312497,6.72418182 101.27765,7.192 100.688994,8.18470455 C100.101785,9.17529545 100.203751,10.2828409 100.89365,10.67175 L108.241718,14.0049545 C108.703819,14.1719318 109.329356,13.8520682 109.690215,13.24475" id="Fill-11" fill="#F3B53C"></path>
                    <path d="M118.419525,13.24475 C118.782554,13.8520682 119.405198,14.1719318 119.865853,14.0049545 L127.216814,10.67175 C127.908881,10.2828409 128.007955,9.17529545 127.419299,8.18470455 C126.83209,7.19270455 125.797243,6.72418182 125.106621,7.11168182 L118.468701,11.6475455 C118.08904,11.9512045 118.063729,12.6381364 118.421695,13.2475682" id="Fill-12" fill="#F3B53C"></path>
                    <path d="M114.052339,20.615 C114.773333,20.615 115.369944,20.9813636 115.450215,21.4541136 L116.163977,29.3224773 C116.163977,30.0995909 115.22965,30.7393182 114.053785,30.7393182 C112.880814,30.7393182 111.946486,30.0995909 111.946486,29.3224773 L112.659525,21.4541136 C112.737627,20.9813636 113.334237,20.615 114.056678,20.615" id="Fill-13" fill="#F3B53C"></path>
                    <path d="M118.419525,18.1610682 C118.782554,17.5509318 119.405198,17.2338864 119.865853,17.4001591 L127.216814,20.7326591 C127.908881,21.1222727 128.007955,22.2298182 127.419299,23.2218182 C126.83209,24.2117045 125.797243,24.6816364 125.106621,24.2941364 L118.468701,19.7582727 C118.08904,19.4532045 118.063729,18.7669773 118.421695,18.15825" id="Fill-14" fill="#F3B53C"></path>
                    <path d="M109.688045,18.15825 C110.048904,18.7669773 110.020701,19.4525 109.639593,19.7582727 L103.002395,24.2920227 C102.312497,24.6795227 101.27765,24.2117045 100.688994,23.2218182 C100.101785,22.2298182 100.203751,21.1208636 100.89365,20.73125 L108.241718,17.4001591 C108.703819,17.2317727 109.329356,17.5502273 109.690215,18.1603636" id="Fill-15" fill="#F3B53C"></path>
                </g>
            </g>
        </g>
    </g>
</svg>