<?xml version="1.0" encoding="UTF-8"?>
<svg width="92px" height="34px" viewBox="0 0 92 34" version="1.1" xmlns="http://www.w3.org/2000/svg" xmlns:xlink="http://www.w3.org/1999/xlink">
    <!-- Generator: Sketch 52.2 (67145) - http://www.bohemiancoding.com/sketch -->
    <title>ebay-seeklogo.com</title>
    <desc>Created with Sketch.</desc>
    <style>
        * {
            fill: white;
        }
    </style>
    <defs>
        <polygon id="path-1" points="0.0194366197 0.29687037 0.0194366197 20.2967407 21.8464366 20.2967407 21.8464366 0.29687037 0.0194366197 0.29687037"></polygon>
        <polygon id="path-3" points="0.273084507 26.7403704 43.1894648 26.7403704 43.1894648 0.29687037 0.273084507 0.29687037"></polygon>
    </defs>
    <g id="Page-1" stroke="none" stroke-width="1" fill="none" fill-rule="evenodd">
        <g id="home" transform="translate(-543.000000, -1785.000000)">
            <g id="section-3" transform="translate(8.000000, 1631.000000)">
                <g id="ebay-seeklogo.com" transform="translate(535.000000, 154.000000)">
                    <g id="Group-3" transform="translate(0.000000, 7.240741)">
                        <mask id="mask-2" fill="white">
                            <use xlink:href="#path-1"></use>
                        </mask>
                        <g id="Clip-2"></g>
                        <path d="M11.0814648,3.14342593 C14.7520704,3.14342593 17.2551831,5.32918519 17.2551831,8.60514815 L4.59092958,8.60514815 C4.59092958,5.12707407 7.85692958,3.14342593 11.0814648,3.14342593 Z M11.2398732,0.29687037 C5.10891549,0.29687037 0,2.82451852 0,10.4512222 C0,16.4928333 3.43542254,20.2967407 11.3973099,20.2967407 C20.7702958,20.2967407 21.3705634,14.297 21.3705634,14.297 L16.8288732,14.297 C16.8288732,14.297 15.8560704,17.5273148 11.1209859,17.5273148 C7.26443662,17.5273148 4.49050704,14.9958889 4.49050704,11.4469815 L21.8464366,11.4469815 L21.8464366,9.2202963 C21.8457887,5.70916667 19.5525915,0.29687037 11.2398732,0.29687037 L11.2398732,0.29687037 Z" id="Fill-1" fill="#D3333A" mask="url(#mask-2)"></path>
                    </g>
                    <path d="M33.0827465,10.5088333 C37.242831,10.5088333 39.8894507,13.5102778 39.8894507,17.5380185 C39.8894507,21.8572778 36.834338,24.6821111 33.1125493,24.6821111 C28.6712817,24.6821111 26.2753944,21.3117037 26.2753944,17.5761111 C26.2750704,14.0948889 28.4250845,10.5088333 33.0827465,10.5088333 Z M21.8425493,0.153314815 L21.8425493,23.7080741 C21.8425493,25.0447778 21.7440704,26.9226481 21.7440704,26.9226481 L26.0758451,26.9226481 C26.0758451,26.9226481 26.2310141,25.5739815 26.2310141,24.3417963 C26.2310141,24.3417963 28.3713099,27.5954074 34.1906338,27.5954074 C40.3173803,27.5954074 44.4797324,23.4612593 44.4797324,17.5380185 C44.4797324,12.0275 40.6562254,7.59553704 34.2006761,7.59553704 C28.1536197,7.59553704 26.2747465,10.7685556 26.2747465,10.7685556 L26.2747465,0.153314815 L21.8425493,0.153314815 L21.8425493,0.153314815 Z" id="Fill-4" fill="#365C9A"></path>
                    <g id="Group-8" transform="translate(43.732394, 7.240741)">
                        <mask id="mask-4" fill="white">
                            <use xlink:href="#path-3"></use>
                        </mask>
                        <g id="Clip-6"></g>
                        <path d="M16.577493,10.7587963 L16.577493,11.9887778 C16.577493,13.5943333 15.5599859,17.5852407 9.55795775,17.5852407 C6.27219718,17.5852407 4.86433803,15.9913333 4.86433803,14.1430556 C4.86433803,10.7805185 9.60816901,10.7587963 16.577493,10.7587963 Z M11.5132817,0.29687037 C2.28898592,0.29687037 1.69746479,5.20514815 1.69746479,5.98966667 L6.28839437,5.98966667 C6.28839437,5.98966667 6.52876056,3.12359259 11.1961408,3.12359259 C14.2282535,3.12359259 16.577169,4.47288889 16.577169,7.06601852 L16.577169,7.98905556 L11.1961408,7.98905556 C4.05059155,7.98905556 0.273084507,10.0205556 0.273084507,14.1427407 C0.273084507,18.1994444 3.76325352,20.4069259 8.47987324,20.4069259 C14.9082113,20.4069259 16.979507,16.9556111 16.979507,16.9556111 C16.979507,18.3282037 17.0877042,19.6812778 17.0877042,19.6812778 L21.1693944,19.6812778 C21.1693944,19.6812778 21.0109859,18.0045741 21.0109859,16.9310556 L21.0109859,7.65724074 C21.0109859,1.57659259 15.9642676,0.29687037 11.5132817,0.29687037 L11.5132817,0.29687037 Z" id="Fill-5" fill="#EAAA2C" mask="url(#mask-4)"></path>
                        <polyline id="Fill-7" fill="#7EB141" mask="url(#mask-4)" points="18.5383239 1.06722222 23.7042535 1.06722222 31.1164085 15.4980185 38.5110704 1.06722222 43.1894648 1.06722222 29.7195634 26.7592593 24.811493 26.7592593 28.698493 19.597537 18.5383239 1.06722222"></polyline>
                    </g>
                    <path d="M89.3287606,6.47511111 C89.3287606,6.29566667 89.3255211,6.14518519 89.3154789,6.01075926 L89.6646901,6.01075926 L89.6812113,6.2412037 L89.6912535,6.2412037 C89.7702958,6.11937037 89.9154225,5.9755 90.1852676,5.9755 C90.3961549,5.9755 90.5607183,6.09072222 90.6300423,6.26355556 L90.6365211,6.26355556 C90.6925634,6.17698148 90.7586479,6.11307407 90.8341268,6.06837037 C90.9228873,6.00761111 91.0249296,5.9755 91.1567746,5.9755 C91.4237042,5.9755 91.6938732,6.1517963 91.6938732,6.65109259 L91.6938732,7.57003704 L91.298662,7.57003704 L91.298662,6.7087037 C91.298662,6.4492963 91.206338,6.29566667 91.0119718,6.29566667 C90.8736479,6.29566667 90.7716056,6.39168519 90.7288451,6.50375926 C90.7188028,6.54216667 90.7090845,6.59033333 90.7090845,6.63503704 L90.7090845,7.57003704 L90.3138732,7.57003704 L90.3138732,6.66714815 C90.3138732,6.44961111 90.2251127,6.29598148 90.0372254,6.29598148 C89.8856197,6.29598148 89.7835775,6.4112037 89.7472958,6.52012963 C89.7307746,6.55853704 89.7242958,6.60355556 89.7242958,6.64825926 L89.7242958,7.57035185 L89.3290845,7.57035185 L89.3290845,6.47511111 L89.3287606,6.47511111 Z M88.6371408,5.56561111 L88.6371408,6.01075926 L89.0226338,6.01075926 L89.0226338,6.30542593 L88.6371408,6.30542593 L88.6371408,6.99361111 C88.6371408,7.1825 88.6899437,7.28166667 88.8447887,7.28166667 C88.9141127,7.28166667 88.9669155,7.27222222 89.0028732,7.26246296 L89.0093521,7.56342593 C88.9500704,7.58577778 88.8444648,7.60183333 88.7161831,7.60183333 C88.5681408,7.60183333 88.4427746,7.55366667 88.3669718,7.4737037 C88.2814507,7.38398148 88.2419296,7.24325926 88.2419296,7.03831481 L88.2419296,6.30511111 L88.0112817,6.30511111 L88.0112817,6.01044444 L88.2419296,6.01044444 L88.2419296,5.65816667 L88.6371408,5.56561111 L88.6371408,5.56561111 Z" id="Fill-9" fill="#0B0B09"></path>
                </g>
            </g>
        </g>
    </g>
</svg>