<?xml version="1.0" encoding="UTF-8"?>
<svg width="105px" height="25px" viewBox="0 0 105 25" version="1.1" xmlns="http://www.w3.org/2000/svg" xmlns:xlink="http://www.w3.org/1999/xlink">
    <!-- Generator: Sketch 52.2 (67145) - http://www.bohemiancoding.com/sketch -->
    <title>Yahoo!_logo</title>
    <desc>Created with Sketch.</desc>
    <style>
        * {
            fill: white !important;
        }
    </style>
    <defs>
        <linearGradient x1="14.9747423%" y1="98.4280101%" x2="81.4960028%" y2="10.0245694%" id="linearGradient-1">
            <stop stop-color="#210045" offset="0%"></stop>
            <stop stop-color="#430085" offset="59.415621%"></stop>
            <stop stop-color="#5000B2" offset="100%"></stop>
        </linearGradient>
        <linearGradient x1="6.47374515%" y1="3.41268354%" x2="96.8697263%" y2="98.4661253%" id="linearGradient-2">
            <stop stop-color="#5500BD" offset="0%"></stop>
            <stop stop-color="#5000AC" offset="100%"></stop>
        </linearGradient>
        <linearGradient x1="67.7220118%" y1="78.4014338%" x2="81.9806436%" y2="75.9968071%" id="linearGradient-3">
            <stop stop-color="#2A005A" offset="0%"></stop>
            <stop stop-color="#210046" offset="100%"></stop>
        </linearGradient>
        <linearGradient x1="25.2658172%" y1="99.9267298%" x2="99.4602805%" y2="14.0285992%" id="linearGradient-4">
            <stop stop-color="#21004E" offset="0%"></stop>
            <stop stop-color="#39007F" offset="100%"></stop>
        </linearGradient>
        <linearGradient x1="31.5262065%" y1="62.5324518%" x2="43.2134571%" y2="67.497874%" id="linearGradient-5">
            <stop stop-color="#1B0041" offset="0%"></stop>
            <stop stop-color="#21004F" offset="100%"></stop>
        </linearGradient>
        <linearGradient x1="86.9728324%" y1="-0.0982719896%" x2="12.0755496%" y2="97.3041937%" id="linearGradient-6">
            <stop stop-color="#5500BD" offset="0%"></stop>
            <stop stop-color="#47008D" offset="100%"></stop>
        </linearGradient>
        <linearGradient x1="20.051225%" y1="0.78358497%" x2="99.7336236%" y2="96.1581269%" id="linearGradient-7">
            <stop stop-color="#5100B2" offset="0%"></stop>
            <stop stop-color="#5500BD" offset="100%"></stop>
        </linearGradient>
        <linearGradient x1="72.6049441%" y1="81.9248506%" x2="84.6078984%" y2="76.551846%" id="linearGradient-8">
            <stop stop-color="#27005D" stop-opacity="0.98039216" offset="0%"></stop>
            <stop stop-color="#2B005D" offset="31.76744%"></stop>
            <stop stop-color="#280055" offset="59.756237%"></stop>
            <stop stop-color="#24004D" offset="80.877602%"></stop>
            <stop stop-color="#230049" offset="100%"></stop>
        </linearGradient>
        <linearGradient x1="32.8880034%" y1="-0.446085218%" x2="96.37919%" y2="100.17197%" id="linearGradient-9">
            <stop stop-color="#5500BD" offset="0%"></stop>
            <stop stop-color="#5300B5" offset="100%"></stop>
        </linearGradient>
        <linearGradient x1="84.9943307%" y1="0.479772846%" x2="84.9943307%" y2="100.040254%" id="linearGradient-10">
            <stop stop-color="#210045" offset="0%"></stop>
            <stop stop-color="#25004D" offset="25%"></stop>
            <stop stop-color="#2B005C" offset="50%"></stop>
            <stop stop-color="#340071" offset="74.854362%"></stop>
            <stop stop-color="#3E0088" offset="100%"></stop>
        </linearGradient>
        <linearGradient x1="1.85805624%" y1="99.0531849%" x2="99.9098093%" y2="3.56269993%" id="linearGradient-11">
            <stop stop-color="#4D00A1" offset="0%"></stop>
            <stop stop-color="#5200B4" offset="100%"></stop>
        </linearGradient>
        <linearGradient x1="0.225906038%" y1="66.1455343%" x2="99.6435665%" y2="66.1455343%" id="linearGradient-12">
            <stop stop-color="#6700E8" offset="0%"></stop>
            <stop stop-color="#6700E8" offset="50.604492%"></stop>
            <stop stop-color="#6700E8" offset="100%"></stop>
        </linearGradient>
        <linearGradient x1="27.5986427%" y1="43.412674%" x2="99.5633058%" y2="43.412674%" id="linearGradient-13">
            <stop stop-color="#5A00C9" offset="0%"></stop>
            <stop stop-color="#4F00A8" offset="100%"></stop>
        </linearGradient>
        <linearGradient x1="0.928796779%" y1="1.75367288%" x2="100.982139%" y2="1.75367288%" id="linearGradient-14">
            <stop stop-color="#390080" offset="0%"></stop>
            <stop stop-color="#31006E" offset="50%"></stop>
            <stop stop-color="#250056" offset="100%"></stop>
        </linearGradient>
        <linearGradient x1="-1.29074335%" y1="97.0614422%" x2="72.6865423%" y2="97.0614422%" id="linearGradient-15">
            <stop stop-color="#3F008B" offset="0%"></stop>
            <stop stop-color="#220050" offset="100%"></stop>
        </linearGradient>
        <linearGradient x1="0.0614877543%" y1="56.3143491%" x2="99.9704294%" y2="56.3143491%" id="linearGradient-16">
            <stop stop-color="#6700E8" offset="0%"></stop>
            <stop stop-color="#6700E8" offset="50%"></stop>
            <stop stop-color="#6700E8" offset="100%"></stop>
        </linearGradient>
        <linearGradient x1="70.1336478%" y1="5.81647289%" x2="15.0841296%" y2="84.4892364%" id="linearGradient-17">
            <stop stop-color="#1C0044" offset="0%"></stop>
            <stop stop-color="#2F0065" offset="10.005283%"></stop>
            <stop stop-color="#34006D" offset="20.479059%"></stop>
            <stop stop-color="#3B007A" offset="30.000001%"></stop>
            <stop stop-color="#3C007A" offset="40.000001%"></stop>
            <stop stop-color="#490096" offset="50%"></stop>
            <stop stop-color="#5000AB" offset="60.000002%"></stop>
            <stop stop-color="#5400BA" offset="70.02604%"></stop>
            <stop stop-color="#5500BC" offset="80.312496%"></stop>
            <stop stop-color="#5700C2" offset="89.999998%"></stop>
            <stop stop-color="#5C00CE" offset="100%"></stop>
        </linearGradient>
        <linearGradient x1="15.5815818%" y1="88.9542935%" x2="77.8082486%" y2="7.07921876%" id="linearGradient-18">
            <stop stop-color="#1B0041" offset="0%"></stop>
            <stop stop-color="#1B0041" offset="10.005283%"></stop>
            <stop stop-color="#1B0041" offset="20.479059%"></stop>
            <stop stop-color="#240052" offset="30.000001%"></stop>
            <stop stop-color="#32006A" offset="40.000001%"></stop>
            <stop stop-color="#3D007D" offset="50%"></stop>
            <stop stop-color="#490098" offset="60.000002%"></stop>
            <stop stop-color="#4F00A8" offset="70.02604%"></stop>
            <stop stop-color="#5500BC" offset="80.312496%"></stop>
            <stop stop-color="#5700C2" offset="89.999998%"></stop>
            <stop stop-color="#6000DA" offset="100%"></stop>
        </linearGradient>
        <linearGradient x1="61.8279612%" y1="2.02790079%" x2="16.8281329%" y2="87.1886636%" id="linearGradient-19">
            <stop stop-color="#1E0046" offset="0%"></stop>
            <stop stop-color="#2D0061" offset="10.005283%"></stop>
            <stop stop-color="#33006B" offset="20.479059%"></stop>
            <stop stop-color="#400082" offset="30.000001%"></stop>
            <stop stop-color="#490096" offset="40.000001%"></stop>
            <stop stop-color="#5000AC" offset="50%"></stop>
            <stop stop-color="#5500BD" offset="60.000002%"></stop>
            <stop stop-color="#4F00A8" offset="70.02604%"></stop>
            <stop stop-color="#5500BC" offset="80.312496%"></stop>
            <stop stop-color="#5700C2" offset="89.999998%"></stop>
            <stop stop-color="#6000DA" offset="100%"></stop>
        </linearGradient>
        <linearGradient x1="20.3116811%" y1="92.3181485%" x2="71.3851328%" y2="3.94792241%" id="linearGradient-20">
            <stop stop-color="#1B0041" offset="0%"></stop>
            <stop stop-color="#1B0041" offset="10.005283%"></stop>
            <stop stop-color="#1B0041" offset="20.479059%"></stop>
            <stop stop-color="#240052" offset="30.000001%"></stop>
            <stop stop-color="#32006A" offset="40.000001%"></stop>
            <stop stop-color="#3D007D" offset="50%"></stop>
            <stop stop-color="#490098" offset="60.000002%"></stop>
            <stop stop-color="#4F00A8" offset="70.02604%"></stop>
            <stop stop-color="#5500BC" offset="80.312496%"></stop>
            <stop stop-color="#5700C2" offset="89.999998%"></stop>
            <stop stop-color="#6000DA" offset="100%"></stop>
        </linearGradient>
        <radialGradient cx="55.0289409%" cy="19.9036504%" fx="55.0289409%" fy="19.9036504%" r="83.4778657%" gradientTransform="translate(0.550289,0.199037),scale(0.982129,1.000000),translate(-0.550289,-0.199037)" id="radialGradient-21">
            <stop stop-color="#6000D8" offset="0%"></stop>
            <stop stop-color="#5C00CD" offset="20.885758%"></stop>
            <stop stop-color="#5500BE" offset="37.415123%"></stop>
            <stop stop-color="#2D0062" offset="72.099608%"></stop>
            <stop stop-color="#210045" offset="100%"></stop>
        </radialGradient>
        <linearGradient x1="-0.210019779%" y1="99.6103756%" x2="66.9345913%" y2="11.0474408%" id="linearGradient-22">
            <stop stop-color="#47008D" offset="0%"></stop>
            <stop stop-color="#5100B3" offset="100%"></stop>
        </linearGradient>
        <linearGradient x1="-0.580778823%" y1="69.3447414%" x2="99.5801094%" y2="69.3447414%" id="linearGradient-23">
            <stop stop-color="#5500BD" offset="0%"></stop>
            <stop stop-color="#5200B2" offset="100%"></stop>
        </linearGradient>
        <radialGradient cx="53.2966025%" cy="32.3893815%" fx="53.2966025%" fy="32.3893815%" r="55.9519944%" gradientTransform="translate(0.532966,0.323894),scale(0.893625,1.000000),translate(-0.532966,-0.323894)" id="radialGradient-24">
            <stop stop-color="#6700E8" offset="0%"></stop>
            <stop stop-color="#5C00CE" offset="39.935982%"></stop>
            <stop stop-color="#5600BF" stop-opacity="0.04504504" offset="70.123935%"></stop>
            <stop stop-color="#220047" stop-opacity="0" offset="100%"></stop>
        </radialGradient>
    </defs>
    <g id="Page-1" stroke="none" stroke-width="1" fill="none" fill-rule="evenodd">
        <g id="home" transform="translate(-537.000000, -2180.000000)">
            <g id="section-3" transform="translate(8.000000, 1631.000000)">
                <g id="Yahoo!_logo" transform="translate(529.000000, 549.000000)">
                    <path d="M103.607039,0.339908798 C104.410705,0.477356223 104.947552,0.980556867 104.947552,1.84691094 C104.947552,2.13363734 104.832065,2.53736159 104.754826,2.87859549 C104.216328,5.30670172 102.113321,13.8859152 101.227946,19.6122457 L100.413252,18.7789034 L103.006195,1.16466631 L103.607039,0.339908798 Z" id="path3223" fill="url(#linearGradient-1)" fill-rule="nonzero"></path>
                    <path d="M51.2010315,2.67107296 C50.1157322,2.93691202 49.0500682,2.92960944 48.002464,2.67107296 L49.6657196,4.43783476 L51.2010315,2.67107296 Z" id="path3201" fill="#6700E8" fill-rule="nonzero"></path>
                    <path d="M34.5739227,2.67107296 C35.659222,2.93691202 36.724886,2.92960944 37.7724902,2.67107296 L36.1092357,4.43783476 L34.5739227,2.67107296 Z" id="path3193" fill="#6700E8" fill-rule="nonzero"></path>
                    <path d="M25.1858811,2.66416953 C27.6386423,9.01370923 31.498629,18.6244292 33.4219395,22.2976717 L30.5746689,21.4077071 L23.5293881,3.3855515 L25.1858811,2.66416953 Z" id="path3181" fill="url(#linearGradient-2)" fill-rule="nonzero"></path>
                    <path d="M22.9556329,2.6636588 C23.7389685,2.93209549 24.3886888,2.94855258 25.1861014,2.6636588 L23.6008427,3.65976609 L22.9556329,2.6636588 Z" id="path3175" fill="#6700E8" fill-rule="nonzero"></path>
                    <path d="M24.0821224,3.35663519 L31.2609976,21.3662607 C30.8362521,21.8367951 30.6468388,22.0836899 30.2338678,22.3038026 C28.1531203,16.8219002 25.9186049,11.3386234 24.0255524,5.92750966 L23.0910734,4.30696352 L24.0821224,3.35663519 Z" id="path3177" fill="url(#linearGradient-3)" fill-rule="nonzero"></path>
                    <path d="M17.9079231,22.2969646 L15.7886224,21.5291695 L23.2509965,3.61988948 L24.0826259,3.35688412 L24.0826259,6.0082897 C22.9222657,9.43309871 19.9775245,16.9473208 17.9079231,22.2969646 L17.9079231,22.2969646 Z" id="path3173" fill="url(#linearGradient-4)" fill-rule="nonzero"></path>
                    <path d="M16.1501853,0.0536480687 L16.8538636,1.68953863 L18.6450629,0.838875536 L19.373486,0.0536480687 C18.2212238,0.32101073 17.1819545,0.329896996 16.1501853,0.0536480687 Z" id="path3167" fill="#6700E8" fill-rule="nonzero"></path>
                    <path d="M11.0964441,14.3186148 L9.88098252,14.7766642 L9.11332867,13.4025161 L16.7259231,0.969746781 L17.2701818,0.779061159 C18.0214196,0.605407725 18.8407762,0.419184549 19.374451,0.0536480687 C18.165493,1.7241867 13.7633182,9.5325676 11.0964441,14.3186148 L11.0964441,14.3186148 Z" id="path3165" fill="url(#linearGradient-5)" fill-rule="nonzero"></path>
                    <path d="M9.43318531,14.1223079 L9.75304196,13.7951298 L17.2839545,0.776259657 L16.1501853,0.0536480687 C15.2409336,1.78600322 11.8874371,7.39182833 9.75304196,10.9813981 L8.7294965,12.9444667 L9.43318531,14.1223079 Z" id="path3163" fill="url(#linearGradient-6)" fill-rule="nonzero"></path>
                    <path d="M3.35590909,0.0536480687 C5.02543007,3.0801309 7.58831119,7.31404506 9.75304196,10.9813981 L9.75304196,13.7951298 L9.24126923,14.3186148 L1.75662587,0.708004292 L3.35590909,0.0536480687 Z" id="path3161" fill="url(#linearGradient-7)" fill-rule="nonzero"></path>
                    <path d="M2.12227972,0.876795064 L3.35590909,0.0536480687 C2.03214336,0.342428112 1.47839161,0.360809013 0.157342657,0.0536480687 L0.669115385,0.64256867 L2.12227972,0.876795064 Z" id="path3159" fill="#6700E8" fill-rule="nonzero"></path>
                    <path d="M9.75304196,13.7951298 L9.1773042,14.6457929 L8.40963986,14.3186148 C6.98042308,11.7918444 2.77913287,4.09470386 0.157342657,0.0536480687 C0.688793706,0.447570815 1.40679021,0.663730687 2.23604895,0.801492489 L9.75304196,13.7951298 Z" id="path3157" fill="url(#linearGradient-8)" fill-rule="nonzero"></path>
                    <polygon id="path3155" fill="url(#linearGradient-9)" fill-rule="nonzero" points="11.2883497 24.85375 9.11332867 23.80678 9.30524476 14.5149217 9.75304196 13.7951298 11.0964441 14.3186148"></polygon>
                    <polygon id="path3153" fill="url(#linearGradient-10)" fill-rule="nonzero" points="9.75304196 24.1339582 8.21773427 24.85375 8.40963986 14.3186148 9.75304196 13.7951298"></polygon>
                    <path d="M14.7428077,22.3017607 C17.4117063,16.7369056 20.3795559,9.27441094 22.9554755,2.66258584 L24.0826259,3.35723712 L16.7963916,21.5891277 L15.3185559,22.1054539 L14.7428077,22.3017607 Z" id="path3171" fill="url(#linearGradient-11)" fill-rule="nonzero"></path>
                    <path d="M31.1847084,21.3335429 L33.4244465,22.2984045 C32.5652717,22.0768519 31.4022703,21.991897 30.2335038,22.3040268 L30.6707927,21.2023852 L31.1847084,21.3335429 Z" id="path3179" fill="#200045" fill-rule="nonzero"></path>
                    <path d="M19.0935734,15.8639882 L20.6683007,15.1728305 C22.9366259,15.2543895 25.204951,15.2532189 27.4732741,15.1728305 L29.0706199,15.8842275 L27.5835336,16.2167972 L20.2216049,16.2167972 L19.0935734,15.8639882 Z" id="path3185" fill="url(#linearGradient-12)" fill-rule="nonzero"></path>
                    <path d="M20.142451,16.5435762 L19.0850874,15.8639882 C22.4074406,15.8120129 25.7347867,15.8162468 29.067792,15.8842275 L28.0104346,16.5435762 C25.3877727,16.4566448 22.7651119,16.4670558 20.142451,16.5435762 L20.142451,16.5435762 Z" id="path3183" fill="#200045" fill-rule="nonzero"></path>
                    <path d="M37.7724902,22.3017607 L35.5334937,21.5165333 L35.5334937,3.91434979 L36.173207,3.58717167 L37.7724902,2.67107296 C37.4406357,9.20305365 37.4333643,15.7466427 37.7724902,22.3017607 L37.7724902,22.3017607 Z" id="path3191" fill="url(#linearGradient-13)" fill-rule="nonzero"></path>
                    <path d="M36.173207,21.385662 L36.173207,21.8437114 L34.5739227,22.3017607 C34.8282304,15.768603 34.8524822,9.22603433 34.5739227,2.67107296 L36.173207,3.58717167 L36.173207,21.385662 Z" id="path3189" fill="url(#linearGradient-14)" fill-rule="nonzero"></path>
                    <path d="M48.002464,22.3017607 L50.2414615,21.5165333 L50.2414615,3.91434979 L49.6017483,3.58717167 L48.002464,2.67107296 C48.3343185,9.20305365 48.3415899,15.7466427 48.002464,22.3017607 L48.002464,22.3017607 Z" id="path3199" fill="url(#linearGradient-15)" fill-rule="nonzero"></path>
                    <path d="M36.1795143,12.4457951 L37.523829,11.8327146 C41.096272,11.9248155 44.6729224,11.9179324 48.2529021,11.8327146 L49.6014577,12.4457951 L47.9334325,12.853544 L37.5125203,12.853544 L36.1795143,12.4457951 Z" id="path3205" fill="url(#linearGradient-16)" fill-rule="nonzero"></path>
                    <path d="M62.4914129,2.66373069 C56.2086766,2.66373069 53.0736336,6.68170064 53.0736336,12.5240622 C53.0736336,19.841368 57.8187892,22.3762135 62.40945,22.3762135 C67.862251,22.3762135 71.7712573,19.237941 71.7712573,12.5424689 C71.7712573,6.09863734 68.0711297,2.66373069 62.4914129,2.66373069 L62.4914129,2.66373069 Z M62.3034976,3.59618884 C62.3625472,3.59494421 62.4221549,3.59618884 62.4814175,3.59618884 C66.6308287,3.59618884 69.678192,6.48715451 69.678192,12.5281513 C69.678192,18.5615193 66.6348262,21.4519356 62.4894136,21.4519356 C57.9663724,21.4519356 55.3086315,18.1365869 55.3086315,12.5445107 C55.3086315,6.22004614 58.5833591,3.67414914 62.3034976,3.59618884 L62.3034976,3.59618884 Z" id="path3207" fill="url(#linearGradient-17)" fill-rule="nonzero"></path>
                    <path d="M62.4694227,2.40607833 C55.6839294,2.40607833 52.1240591,6.80693777 52.1240591,12.5117929 C52.1240591,18.7560139 56.0104668,22.5643412 62.4594273,22.5643412 C69.4316087,22.5643412 72.8367766,18.272412 72.8367766,12.5772285 C72.8367766,6.2274206 68.7701643,2.40607833 62.4694227,2.40607833 Z M62.4894136,3.05634442 C67.8469615,3.05634442 71.3994241,6.35316845 71.3994241,12.5404206 C71.3994241,18.9692951 67.6451318,21.9835998 62.40945,21.9835998 C58.0015783,21.9835998 53.4454668,19.5500097 53.4454668,12.5240622 C53.4454668,6.91433155 56.4568406,3.05634442 62.4894136,3.05634442 Z" id="path3209" fill="url(#linearGradient-18)" fill-rule="nonzero"></path>
                    <path d="M85.9369101,1.65969957 C79.560471,1.65969957 75.191722,5.34710193 75.191722,12.5342897 C75.191722,19.5847564 79.2560444,23.5233788 85.9628948,23.5233788 C91.042564,23.5233788 96.6081283,20.8546974 96.6081283,12.634485 C96.6081283,3.76276824 90.528964,1.65969957 85.9369101,1.65969957 L85.9369101,1.65969957 Z M85.902922,2.44492704 C90.9773203,2.44492704 94.7149731,5.59816524 94.7149731,12.5526899 C94.7149731,20.112632 90.1937035,22.5643412 85.9109182,22.5643412 C81.3351766,22.5643412 77.1668371,19.8175826 77.1668371,12.4034185 C77.1668371,4.71874356 81.7870448,2.44492704 85.902922,2.44492704 L85.902922,2.44492704 Z" id="path3213" fill="url(#linearGradient-19)" fill-rule="nonzero"></path>
                    <path d="M85.8949259,1.224147 C79.137557,1.224147 73.9722682,5.14898283 73.9722682,12.4463573 C73.9722682,18.4587071 77.4080664,23.7503616 85.9509,23.7503616 C93.1833399,23.7503616 97.9055434,19.6830472 97.9055434,12.5526899 C97.9055434,5.82878648 93.5003937,1.224147 85.8949259,1.224147 L85.8949259,1.224147 Z M85.9369101,1.95620815 C90.4040979,1.95620815 96.3182549,4.00400966 96.3182549,12.634485 C96.3182549,20.631176 90.9024346,23.2268766 85.9608986,23.2268766 C79.4364178,23.2268766 75.4835906,19.3950848 75.4835906,12.5363315 C75.4835906,5.54458047 79.7338594,1.95620815 85.9369101,1.95620815 L85.9369101,1.95620815 Z" id="path3215" fill="url(#linearGradient-20)" fill-rule="nonzero"></path>
                    <path d="M98.4272675,23.4248133 C98.4272675,22.58053 98.9292,21.7954206 99.9354052,21.7954206 C100.898519,21.7954206 101.619194,22.384603 101.619194,23.325691 C101.619194,24.4981931 100.860622,24.9303036 100.165567,24.9303036 C99.2045517,24.9303036 98.4272675,24.4202264 98.4272675,23.4248133 L98.4272675,23.4248133 Z" id="path3217" fill="url(#radialGradient-21)" fill-rule="nonzero"></path>
                    <path d="M100.034119,19.4249689 C100.814071,13.7857854 101.288494,7.85925429 101.744021,1.94986159 C101.744021,0.772078326 102.505076,0.31143133 103.272981,0.31143133 C103.407564,0.31143133 103.606054,0.340111588 103.606054,0.340111588 L103.397182,1.75272318 L100.66155,19.2683552 L100.034119,19.4249689 Z" id="path3221" fill="url(#linearGradient-22)" fill-rule="nonzero"></path>
                    <path d="M8.21773427,24.85375 L9.75590559,23.7010365 L11.2883497,24.85375 C11.2883497,24.85375 10.4388357,24.6956255 9.75587413,24.6956255 C9.13963636,24.6956255 8.21773427,24.85375 8.21773427,24.85375 Z" id="path3151" fill="#200045" fill-rule="nonzero"></path>
                    <path d="M14.7425664,22.3041888 L16.8882483,21.3553004 C17.2156364,21.7568004 17.5068881,22.0970386 17.908993,22.2984045 C17.1365559,22.0845998 15.9671643,21.9886717 14.7428077,22.3017414 L14.7425664,22.3041888 Z" id="path3169" fill="#200045" fill-rule="nonzero"></path>
                    <path d="M34.5739227,22.3017607 C35.6127042,22.0457049 36.6764066,22.0343777 37.7684916,22.3017607 L36.173207,21.385662 L34.5739227,22.3017607 Z" id="path3187" fill="#200045" fill-rule="nonzero"></path>
                    <path d="M37.523829,13.1716524 L36.1766864,12.4457951 C40.651521,12.4935236 45.1263545,12.5015461 49.6011892,12.4457951 L48.255792,13.1673594 C44.6784713,13.1182049 41.1011497,13.1205536 37.523829,13.1716727 L37.523829,13.1716524 Z" id="path3203" fill="#200045" fill-rule="nonzero"></path>
                    <path d="M49.6017483,21.385662 L49.6017483,21.8437114 L51.2010315,22.3017607 C50.9467238,15.768603 50.922472,9.22603433 51.2010315,2.67107296 L49.6017483,3.58717167 L49.6017483,21.385662 Z" id="path3197" fill="url(#linearGradient-23)" fill-rule="nonzero"></path>
                    <path d="M51.2010315,22.3017607 C50.16225,22.0457049 49.0985476,22.0343777 48.0064626,22.3017607 L49.6017483,21.385662 L51.2010315,22.3017607 Z" id="path3195" fill="#200045" fill-rule="nonzero"></path>
                    <path d="M100.73971,18.7634667 L100.030908,19.4249689 C100.505837,19.3394056 100.873122,19.4661996 101.230089,19.6133444 L100.73971,18.7634667 Z" id="path3219" fill="#200045" fill-rule="nonzero"></path>
                    <path d="M104.908997,1.73958479 C104.908997,2.5089769 104.21104,3.13268967 103.350063,3.13268967 C102.489086,3.13268967 101.791129,2.5089769 101.791129,1.73958479 C101.791129,0.970199218 102.489086,0.346486446 103.350063,0.346486446 C104.21104,0.346486446 104.908997,0.970199218 104.908997,1.73958479 Z" id="path3507" fill="url(#radialGradient-24)"></path>
                </g>
            </g>
        </g>
    </g>
</svg>