<?xml version="1.0" encoding="UTF-8"?>
<svg width="191px" height="24px" viewBox="0 0 191 24" version="1.1" xmlns="http://www.w3.org/2000/svg" xmlns:xlink="http://www.w3.org/1999/xlink">
    <!-- Generator: Sketch 52.2 (67145) - http://www.bohemiancoding.com/sketch -->
    <title>SpaceX-Logo</title>
    <desc>Created with Sketch.</desc>
    <style>
        * {
            fill: white !important;
        }
    </style>
    <g id="Page-1" stroke="none" stroke-width="1" fill="none" fill-rule="evenodd">
        <g id="home" transform="translate(-850.000000, -2177.000000)" fill-rule="nonzero">
            <g id="section-3" transform="translate(8.000000, 1631.000000)">
                <g id="SpaceX-Logo" transform="translate(842.000000, 546.000000)">
                    <path d="M44.4661807,8.8355122 L28.333009,8.8355122 L27.7352711,9.29034146 L27.7352711,23.8934634 L32.2013343,23.8934634 L32.2013343,18.4173659 L32.6276325,18.0286829 L44.466756,18.0286829 C47.4560211,18.0286829 48.8574548,17.2103415 48.8574548,15.1106341 L48.8574548,11.7576585 C48.8568795,9.65443902 47.4560211,8.8355122 44.4661807,8.8355122 L44.4661807,8.8355122 Z M44.4661807,14.2343415 C44.4661807,15.2236098 43.822994,15.4290732 42.4215602,15.4290732 L32.6765331,15.4290732 L32.200759,14.958439 L32.200759,11.8302439 L32.6270572,11.4333659 L42.4215602,11.4333659 C43.822994,11.4333659 44.4661807,11.6364878 44.4661807,12.630439 L44.4661807,14.2343415 Z" id="Shape" fill="#005288"></path>
                    <polyline id="Shape" fill="#005288" points="57.0014187 11.5978537 60.8444307 17.3268293 60.6315693 17.8817561 52.1326446 17.8817561 49.9631837 20.5972683 62.6140572 20.5972683 63.4908163 21.1404878 65.4548946 23.8969756 70.5658705 23.8969756 59.3630301 8.64878049"></polyline>
                    <polyline id="Shape" fill="#005288" points="107.821801 20.9309268 107.821801 16.8778537 108.281467 16.4739512 116.831593 16.4739512 116.831593 13.8930732 103.280373 13.8930732 103.280373 23.8963902 123.269789 23.8963902 123.269789 21.3278049 108.301602 21.3278049"></polyline>
                    <rect id="Rectangle-path" fill="#005288" x="103.280373" y="8.8355122" width="20.2005512" height="2.83785366"></rect>
                    <path d="M80.7498524,11.5229268 L97.0239729,11.5229268 C96.7731416,9.41736585 95.4890693,8.83317073 92.2317139,8.83317073 L80.5766867,8.83317073 C76.9010873,8.83317073 75.7286235,9.56312195 75.7286235,12.3933659 L75.7286235,20.3338537 C75.7286235,23.1670244 76.9010873,23.8969756 80.5766867,23.8969756 L92.2317139,23.8969756 C95.5368193,23.8969756 96.8024819,23.2653659 96.8887771,21.0813659 L80.7498524,21.0813659 L80.2712018,20.6230244 L80.2712018,11.8296585" id="Shape" fill="#005288"></path>
                    <path d="M16.8753102,14.7032195 L5.03618675,14.7032195 L4.68755422,14.3127805 L4.68755422,11.736 L5.03446084,11.4632195 L20.9944669,11.4632195 L21.212506,10.9205854 C20.6688464,9.49756098 19.2610843,8.8337561 16.6469157,8.8337561 L5.56028614,8.8337561 C1.88698795,8.8337561 0.712798193,9.56370732 0.712798193,12.3939512 L0.712798193,14.0587317 C0.712798193,16.8924878 1.88698795,17.6212683 5.56028614,17.6212683 L17.3729458,17.6212683 L17.7440151,17.9525854 L17.7440151,20.646439 L17.4414066,21.0667317 L3.92930723,21.0667317 L3.92930723,21.0538537 L0.390054217,21.0538537 C0.390054217,21.0538537 -0.0149578313,21.2604878 0.000575301205,21.3570732 C0.302608434,23.3367805 1.62810241,23.897561 4.80146386,23.897561 L16.8753102,23.897561 C20.5480331,23.897561 21.7573163,23.1676098 21.7573163,20.334439 L21.7573163,18.2604878 C21.7573163,15.432 20.5480331,14.7032195 16.8753102,14.7032195" id="Shape" fill="#005288"></path>
                    <path d="M136.188178,8.77346341 L129.542873,8.77346341 L129.18216,9.47180488 L136.562123,14.945561 C137.960105,14.1219512 139.481202,13.2872195 141.135768,12.4636098" id="Shape" fill="#005288"></path>
                    <path d="M142.142545,19.0846829 L148.629066,23.897561 L155.355488,23.897561 L155.633934,23.2600976 L145.948163,16.0466341 C144.661789,17.0072195 143.390949,18.0216585 142.142545,19.0846829" id="Shape" fill="#005288"></path>
                    <path d="M135.199235,23.886439 L129.186762,23.886439 L128.678771,23.076878 C132.766861,19.0606829 151.051084,1.8444878 190.795193,0 C190.795193,0 157.435777,1.14497561 135.199235,23.886439" id="Shape" fill="#A7A9AC"></path>
                </g>
            </g>
        </g>
    </g>
</svg>