<?xml version="1.0" encoding="UTF-8"?>
<svg width="128px" height="32px" viewBox="0 0 128 32" version="1.1" xmlns="http://www.w3.org/2000/svg" xmlns:xlink="http://www.w3.org/1999/xlink">
    <!-- Generator: Sketch 52.2 (67145) - http://www.bohemiancoding.com/sketch -->
    <title>paypal-seeklogo.com</title>
    <desc>Created with Sketch.</desc>
    <style>
        .hover {
            fill: white;
        }
    </style>
    <defs>
        <polygon id="path-1" points="0 0.0789126214 0 18.6566214 64.8036325 18.6566214 64.8036325 0.0789126214"></polygon>
        <polygon id="path-3" points="54.4617931 0.0789126214 54.4617931 22.9902913 27.2970932 22.9902913 0.132393293 22.9902913 0.132393293 0.0789126214"></polygon>
    </defs>
    <g id="Page-1" stroke="none" stroke-width="1" fill="none" fill-rule="evenodd">
        <g id="home" transform="translate(-855.000000, -1786.000000)">
            <g id="section-3" transform="translate(8.000000, 1631.000000)">
                <g id="paypal-seeklogo.com" transform="translate(847.000000, 155.000000)">
                    <g id="Group-4" transform="translate(40.669951, 8.077670)">
                        <mask id="mask-2" fill="white">
                            <use xlink:href="#path-1"></use>
                        </mask>
                        <g id="Clip-2"></g>
                        <path d="M59.6584039,6.34221359 C59.28733,8.74283495 57.4269163,8.74283495 55.6273498,8.74283495 L54.6033498,8.74283495 L55.3215369,4.26066019 C55.3650443,3.98974757 55.6021281,3.79029126 55.8805123,3.79029126 L56.3496355,3.79029126 C57.5747783,3.79029126 58.7318227,3.79029126 59.3283153,4.47782524 C59.685202,4.88947573 59.7933399,5.49933981 59.6584039,6.34221359 Z M58.8752709,0.0789126214 L52.0884335,0.0789126214 C51.6243547,0.0789126214 51.2293202,0.411650485 51.1571232,0.863378641 L48.4126897,18.0122718 C48.3584631,18.3506019 48.6239212,18.6566214 48.9713498,18.6566214 L52.4535172,18.6566214 C52.7782463,18.6566214 53.0550542,18.4236117 53.1054975,18.1076505 L53.8839015,13.2458252 C53.9560985,12.7940971 54.351133,12.4613592 54.8152118,12.4613592 L56.9628374,12.4613592 C61.433064,12.4613592 64.0129261,10.3294757 64.6872906,6.10392233 C64.9908966,4.256 64.6995862,2.8038835 63.8215567,1.78733981 C62.856197,0.669825243 61.1455369,0.0789126214 58.8752709,0.0789126214 L58.8752709,0.0789126214 Z" id="Fill-1" fill="#238EC2" mask="url(#mask-2)"></path>
                        <path d="M11.2529655,6.34221359 C10.8818916,8.74283495 9.02116256,8.74283495 7.22191133,8.74283495 L6.19791133,8.74283495 L6.91609852,4.26066019 C6.95960591,3.98974757 7.19637438,3.79029126 7.47475862,3.79029126 L7.94419704,3.79029126 C9.16902463,3.79029126 10.3263842,3.79029126 10.9228768,4.47782524 C11.2797635,4.88947573 11.3879015,5.49933981 11.2529655,6.34221359 Z M10.4695172,0.0789126214 L3.6826798,0.0789126214 C3.21891626,0.0789126214 2.8235665,0.411650485 2.75136946,0.863378641 L0.00693596059,18.0122718 C-0.0469753695,18.3506019 0.218167488,18.6566214 0.56591133,18.6566214 L3.80626601,18.6566214 C4.27034483,18.6566214 4.66537931,18.3238835 4.73757635,17.8721553 L5.47814778,13.2458252 C5.5506601,12.7940971 5.94569458,12.4613592 6.4097734,12.4613592 L8.55708374,12.4613592 C13.0276256,12.4613592 15.6074877,10.3294757 16.2818522,6.10392233 C16.5851429,4.256 16.2941478,2.8038835 15.415803,1.78733981 C14.4507586,0.669825243 12.7400985,0.0789126214 10.4695172,0.0789126214 L10.4695172,0.0789126214 Z" id="Fill-3" fill="#253667" mask="url(#mask-2)"></path>
                    </g>
                    <path d="M66.8954483,20.5763107 C66.5814384,22.4062136 65.1075468,23.6346408 63.2272709,23.6346408 C62.2849261,23.6346408 61.5304828,23.335767 61.0452808,22.7700194 C60.5644926,22.2092427 60.3835271,21.4104854 60.5361182,20.520699 C60.8286897,18.7072621 62.3262266,17.4393786 64.1778128,17.4393786 C65.1006108,17.4393786 65.8500099,17.7407379 66.34467,18.311767 C66.8424828,18.886835 67.0379507,19.6911845 66.8954483,20.5763107 Z M71.4243153,14.3431456 L68.1748177,14.3431456 C67.8961182,14.3431456 67.6590345,14.5426019 67.6158424,14.8138252 L67.4730246,15.7092039 L67.2457143,15.3848544 C66.5420296,14.3779417 64.9735567,14.0417864 63.4072906,14.0417864 C59.8169852,14.0417864 56.7500296,16.7229515 56.1529064,20.4831068 C55.8423645,22.359301 56.2834286,24.1519223 57.362601,25.4033398 C58.3544433,26.5528544 59.7696946,27.0316117 61.4557635,27.0316117 C64.3496355,27.0316117 65.9546798,25.199534 65.9546798,25.199534 L65.8096552,26.0896311 C65.7554286,26.4279612 66.0208867,26.7342913 66.3686305,26.7342913 L69.2949754,26.7342913 C69.7590542,26.7342913 70.1540887,26.4018641 70.2262857,25.9501359 L71.9832906,14.9871845 C72.0375172,14.6488544 71.7720591,14.3431456 71.4243153,14.3431456 L71.4243153,14.3431456 Z" id="Fill-5" fill="#253667"></path>
                    <path d="M115.300887,20.5763107 C114.987192,22.4062136 113.512985,23.6346408 111.633025,23.6346408 C110.690365,23.6346408 109.935921,23.335767 109.450719,22.7700194 C108.969931,22.2092427 108.788966,21.4104854 108.941557,20.520699 C109.234128,18.7072621 110.73198,17.4393786 112.583567,17.4393786 C113.506365,17.4393786 114.255448,17.7407379 114.750108,18.311767 C115.247921,18.886835 115.443389,19.6911845 115.300887,20.5763107 Z M119.830069,14.3431456 L116.580256,14.3431456 C116.301872,14.3431456 116.064788,14.5426019 116.021596,14.8138252 L115.878463,15.7092039 L115.651468,15.3848544 C114.947468,14.3779417 113.378995,14.0417864 111.812729,14.0417864 C108.222424,14.0417864 105.155468,16.7229515 104.558345,20.4831068 C104.247803,22.359301 104.688867,24.1519223 105.768355,25.4033398 C106.759882,26.5528544 108.175133,27.0316117 109.861202,27.0316117 C112.755074,27.0316117 114.360433,25.199534 114.360433,25.199534 L114.215094,26.0896311 C114.160867,26.4279612 114.426325,26.7342913 114.774069,26.7342913 L117.700729,26.7342913 C118.164493,26.7342913 118.559527,26.4018641 118.632039,25.9501359 L120.388729,14.9871845 C120.442956,14.6488544 120.177498,14.3431456 119.830069,14.3431456 L119.830069,14.3431456 Z" id="Fill-6" fill="#238EC2"></path>
                    <g id="Group-10" transform="translate(73.458128, 8.077670)">
                        <mask id="mask-4" fill="white">
                            <use xlink:href="#path-3"></use>
                        </mask>
                        <g id="Clip-8"></g>
                        <path d="M15.2748768,6.26547573 L12.0083547,6.26547573 C11.6959212,6.26547573 11.403665,6.4183301 11.2283744,6.6727767 L6.72252217,13.2122718 L4.81292611,6.92815534 C4.69343842,6.53514563 4.32614778,6.26547573 3.90967488,6.26547573 L0.698640394,6.26547573 C0.310857143,6.26547573 0.0381477833,6.64139806 0.162995074,7.00302913 L3.75992118,17.4064466 L0.376748768,22.1104466 C0.11129064,22.479534 0.379270936,22.9902913 0.838305419,22.9902913 L4.10167488,22.9902913 C4.41095567,22.9902913 4.70068966,22.8408544 4.87661084,22.5904466 L15.7399015,7.14066019 C15.9996847,6.77095146 15.7313892,6.26547573 15.2748768,6.26547573" id="Fill-7" fill="#253667" mask="url(#mask-4)"></path>
                        <path d="M50.2021675,0.549902913 L47.4167488,18.0125825 C47.3628374,18.3509126 47.6282956,18.6566214 47.9757241,18.6566214 L50.7769064,18.6566214 C51.2409852,18.6566214 51.6360197,18.3238835 51.7082167,17.8721553 L54.4548571,0.723572816 C54.5090837,0.384932039 54.2436256,0.0789126214 53.8958818,0.0789126214 L50.7611429,0.0789126214 C50.4824433,0.0789126214 50.2453596,0.278679612 50.2021675,0.549902913" id="Fill-9" fill="#238EC2" mask="url(#mask-4)"></path>
                    </g>
                    <path d="M25.0019897,8.12998152 C25.4013771,5.64071441 24.9992403,3.94692346 23.621821,2.41276524 C22.1052851,0.723632495 19.3656595,0 15.8604343,0 L5.68567709,0 C4.9691991,0 4.35921221,0.50953474 4.24758901,1.20127652 L0.0108561608,27.46274 C-0.0727237734,27.9808745 0.336927878,28.4493813 0.873599034,28.4493813 L7.15492435,28.4493813 L6.72144509,31.1368009 C6.64831265,31.5900789 7.00664329,32 7.47623055,32 L12.7707261,32 C13.3973923,32 13.9309476,31.5542467 14.0286408,30.949219 L14.0805117,30.6862102 L15.0779722,24.5038912 L15.1423068,24.1622306 C15.2398167,23.5572028 15.7733719,23.1114495 16.4000381,23.1114495 L17.1922146,23.1114495 C22.3213832,23.1114495 26.337619,21.0743855 27.5112206,15.183562 C28.0015195,12.7218857 27.7480304,10.6672639 26.4512584,9.22286546 C26.0590192,8.78589105 25.571103,8.42470186 25.0019897,8.12998152" id="Fill-11" fill="#238EC2"></path>
                    <path d="M24.7611441,8.07924686 C25.1566842,5.60551386 24.7584212,3.92229292 23.3942707,2.39770852 C21.8923437,0.71911671 19.179109,0 15.7076499,0 L5.63090665,0 C4.92133053,0 4.31721968,0.506355019 4.20667175,1.19378003 L0.0107515828,27.2913605 C-0.0720232213,27.8062615 0.333682233,28.2718447 0.865183607,28.2718447 L7.08600057,28.2718447 L8.64873805,18.5528194 L8.60027122,18.8574514 C8.71081915,18.1702045 9.30984734,17.6638494 10.0192419,17.6638494 L12.9758998,17.6638494 C18.7826613,17.6638494 23.3294667,15.3499993 24.6580386,8.65806548 C24.6974293,8.45990334 24.7310112,8.26797271 24.7611441,8.07924686" id="Fill-12" fill="#20274F"></path>
                    <path d="M10.3274692,8.11218486 C10.3939068,7.69859038 10.6643771,7.36013015 11.0286952,7.18885254 C11.1942448,7.11104763 11.3792174,7.06778312 11.5732663,7.06778312 L19.4720883,7.06778312 C20.4078429,7.06778312 21.2802458,7.1277837 22.0780424,7.25383832 C22.3060362,7.28980306 22.5278581,7.33128714 22.7433267,7.37811252 C22.9587954,7.42511594 23.1679106,7.47746065 23.3704911,7.5356808 C23.4717813,7.56452381 23.5712563,7.5949692 23.6692791,7.62683894 C24.0608257,7.75449596 24.4255068,7.90494251 24.7611441,8.07924686 C25.1566842,5.60551386 24.7584212,3.92229292 23.3942707,2.39770852 C21.8923437,0.71911671 19.179109,0 15.7076499,0 L5.63090665,0 C4.92133053,0 4.31721968,0.506355019 4.20667175,1.19378003 L0.0107515828,27.2913605 C-0.0720232213,27.8062615 0.333682233,28.2718447 0.865183607,28.2718447 L7.08600057,28.2718447 L10.3274692,8.11218486" id="Fill-13" fill="#253667"></path>
                </g>
            </g>
        </g>
    </g>
</svg>