<?xml version="1.0" encoding="UTF-8"?>
<svg width="120px" height="30px" viewBox="0 0 120 30" version="1.1" xmlns="http://www.w3.org/2000/svg" xmlns:xlink="http://www.w3.org/1999/xlink">
    <!-- Generator: Sketch 52.2 (67145) - http://www.bohemiancoding.com/sketch -->
    <title>Dow_Jones</title>
    <desc>Created with Sketch.</desc>
    <style>
        * {
            fill: white !important;
        }
    </style>
    <defs>
        <linearGradient x1="2.15531512e-15%" y1="39.9121338%" x2="82.9999697%" y2="39.9121338%" id="linearGradient-1">
            <stop stop-color="#1A1919" offset="0%"></stop>
            <stop stop-color="#8A8B8A" offset="100%"></stop>
        </linearGradient>
        <linearGradient x1="82.9999697%" y1="39.9121338%" x2="100%" y2="39.9121338%" id="linearGradient-2">
            <stop stop-color="#8A8B8A" offset="0%"></stop>
            <stop stop-color="#FFFFFE" offset="100%"></stop>
        </linearGradient>
    </defs>
    <g id="Page-1" stroke="none" stroke-width="1" fill="none" fill-rule="evenodd">
        <g id="home" transform="translate(-199.000000, -1927.000000)">
            <g id="section-3" transform="translate(8.000000, 1631.000000)">
                <g id="Dow_Jones" transform="translate(191.000000, 296.000000)">
                    <g id="Group-6" transform="translate(14.042553, 13.750000)">
                        <path d="M9.57319149,16.121875 C9.57319149,16.121875 23.1338298,8.2075 45.1787234,4.348125 C79.782766,-1.53875 105.434681,6.11375 105.434681,6.11375 C105.434681,6.11375 87.3312766,-2.71625 45.78,1.66625 C15.5853191,5.198125 0.220851064,16.121875 0.220851064,16.121875 L9.57319149,16.121875" id="Fill-2" fill="url(#linearGradient-1)"></path>
                        <path d="M9.57319149,16.121875 C9.57319149,16.121875 23.1338298,8.2075 45.1787234,4.348125 C79.782766,-1.53875 105.434681,6.11375 105.434681,6.11375 C105.434681,6.11375 87.3312766,-2.71625 45.78,1.66625 C15.5853191,5.198125 0.220851064,16.121875 0.220851064,16.121875 L9.57319149,16.121875" id="Fill-4" fill="url(#linearGradient-2)"></path>
                    </g>
                    <path d="M6.21957447,3.9775 L7.1387234,3.9775 C9.48319149,3.9775 10.4023404,4.7425 9.75893617,7.938125 C9.2993617,10.63875 8.05787234,11.85375 5.89787234,11.85375 L4.9787234,11.85375 L6.21957447,3.9775 Z M5.89787234,15.319375 C10.2644681,15.319375 13.4821277,13.204375 14.2634043,7.623125 C15.1825532,2.7625 12.7008511,0.511875 8.37957447,0.511875 L2.35851064,0.511875 L0.06,15.319375 L5.89787234,15.319375 L5.89787234,15.319375 Z" id="Fill-7" fill="#242423"></path>
                    <path d="M22.7668085,3.6625 C24.743617,3.6625 25.0653191,5.778125 24.743617,7.938125 C24.4678723,10.32375 23.3642553,12.16875 21.3880851,12.16875 C19.1814894,12.16875 19.043617,9.73875 19.3653191,7.938125 C19.6870213,5.958125 20.7446809,3.6625 22.7668085,3.6625 Z M23.3642553,0.196875 C19.043617,0.196875 15.6421277,3.2125 15.0446809,7.758125 C14.1255319,12.889375 16.5619149,15.769375 20.7446809,15.769375 C24.9274468,15.769375 28.4668085,12.889375 29.2480851,7.938125 C29.8455319,3.9775 28.1451064,0.196875 23.3642553,0.196875 L23.3642553,0.196875 Z" id="Fill-8" fill="#242423"></path>
                    <polyline id="Fill-9" fill="#242423" points="41.4746809 9.73875 41.4746809 9.73875 44.3706383 0.511875 48.737234 0.511875 42.9912766 15.319375 38.532766 15.319375 38.3489362 6.723125 35.4070213 15.319375 31.086383 15.319375 30.0293617 0.511875 34.35 0.511875 34.35 9.73875 34.4878723 9.73875 37.5676596 0.511875 41.2908511 0.511875 41.4746809 9.73875"></polyline>
                    <path d="M42.8534043,19.865 L42.8534043,16.22 C45.1519149,16.22 46.8523404,15.499375 47.3119149,13.654375 L49.4725532,0.511875 L53.9770213,0.511875 L51.8170213,13.069375 C51.1729787,16.85 49.656383,19.865 42.8534043,19.865" id="Fill-10" fill="#242423"></path>
                    <path d="M61.6991489,3.6625 C63.7212766,3.6625 64.1814894,5.778125 63.8597872,7.938125 C63.3995745,10.32375 62.2965957,12.16875 60.4582979,12.16875 C58.2976596,12.16875 58.1597872,9.73875 58.4355319,7.938125 C58.757234,5.958125 59.676383,3.6625 61.6991489,3.6625 Z M62.2965957,0.196875 C58.1597872,0.196875 54.7582979,3.2125 53.9770213,7.758125 C53.1957447,12.889375 55.493617,15.769375 59.8608511,15.769375 C63.8597872,15.769375 67.3985106,12.889375 68.3182979,7.938125 C68.9617021,3.9775 67.2606383,0.196875 62.2965957,0.196875 L62.2965957,0.196875 Z" id="Fill-11" fill="#242423"></path>
                    <polyline id="Fill-12" fill="#242423" points="78.0625532 8.65875 78.3842553 5.193125 79.1655319 0.511875 83.4861702 0.511875 81.0044681 15.319375 76.8217021 15.319375 73.2823404 7.308125 72.9606383 10.63875 72.1793617 15.319375 67.8580851 15.319375 70.3404255 0.511875 74.5231915 0.511875 78.0625532 8.65875"></polyline>
                    <polyline id="Fill-13" fill="#242423" points="82.2453191 15.319375 84.5438298 0.511875 95.6674468 0.511875 95.0693617 3.9775 88.4048936 3.9775 88.1291489 6.093125 93.8285106 6.093125 93.2310638 9.60375 87.6695745 9.60375 87.2093617 11.85375 94.1502128 11.85375 93.5068085 15.319375 82.2453191 15.319375"></polyline>
                    <path d="M103.711277,4.8775 C103.711277,4.2925 103.389574,3.9775 103.251702,3.8425 C102.929362,3.6625 102.469787,3.5275 102.010213,3.5275 C101.091064,3.5275 100.631489,3.8425 100.493617,4.4275 C100.171915,6.543125 108.215745,5.193125 107.43383,10.63875 C106.790426,14.104375 103.895106,15.769375 100.171915,15.769375 C96.6325532,15.769375 94.6097872,13.519375 94.9314894,10.77375 L99.2521277,10.77375 C99.2521277,11.26875 99.39,11.71875 99.7117021,11.98875 C100.034043,12.16875 100.493617,12.30375 100.953191,12.30375 C102.010213,12.30375 102.791489,11.98875 102.929362,11.26875 C103.389574,8.97375 95.207234,10.50375 96.1270213,4.8775 C96.6325532,1.7275 99.39,0.196875 102.791489,0.196875 C106.652553,0.196875 108.031915,2.1775 107.894043,4.8775 L103.711277,4.8775" id="Fill-14" fill="#242423"></path>
                </g>
            </g>
        </g>
    </g>
</svg>