<?xml version="1.0" encoding="UTF-8"?>
<svg width="90px" height="27px" viewBox="0 0 90 27" version="1.1" xmlns="http://www.w3.org/2000/svg" xmlns:xlink="http://www.w3.org/1999/xlink">
    <!-- Generator: Sketch 52.2 (67145) - http://www.bohemiancoding.com/sketch -->
    <title>intuit-seeklogo.com</title>
    <desc>Created with Sketch.</desc>
    <style>
        .hover {
            fill: white;
        }
    </style>
    <defs>
        <polygon id="path-1" points="16.0905528 18.7352542 0.0701005025 18.7352542 0.0701005025 0.0828305085 16.0905528 0.0828305085 16.0905528 18.7352542"></polygon>
    </defs>
    <g id="Page-1" stroke="none" stroke-width="1" fill="none" fill-rule="evenodd">
        <g id="home" transform="translate(-544.000000, -1919.000000)">
            <g id="section-3" transform="translate(8.000000, 1631.000000)">
                <g id="intuit-seeklogo.com" transform="translate(536.000000, 288.000000)">
                    <g id="Group-3" transform="translate(45.226131, 8.237288)">
                        <mask id="mask-2" fill="white">
                            <use xlink:href="#path-1"></use>
                        </mask>
                        <g id="Clip-2"></g>
                        <path d="M15.1258794,18.3114915 L12.7519598,18.3114915 C12.2698492,18.3114915 11.8998995,18.0492712 11.8637186,17.5623559 L11.8257286,16.6233051 C10.1188945,18.0135763 8.07919598,18.7627119 5.92824121,18.7627119 C1.77512563,18.7627119 0.0701005025,16.1002373 0.0701005025,12.045661 L0.0701005025,0.946830508 C0.0701005025,0.308440678 0.440502513,0.0828305085 1.0320603,0.0828305085 L3.62939698,0.0828305085 C4.22321608,0.0828305085 4.55743719,0.269542373 4.55743719,0.946830508 L4.55743719,11.2571695 C4.55743719,13.3219831 5.0761809,14.7470339 7.30221106,14.7470339 C8.70919598,14.7470339 10.4906533,13.9599153 11.6032161,12.9467288 L11.6032161,0.946830508 C11.6032161,0.308440678 11.9374372,0.0828305085 12.528995,0.0828305085 L15.1620603,0.0828305085 C15.7563317,0.0828305085 16.0905528,0.269542373 16.0905528,0.946830508 L16.0905528,17.2616949 C16.0905528,18.0492712 15.8666834,18.3114915 15.1258794,18.3114915" id="Fill-1" fill="#4E7AB0" mask="url(#mask-2)"></path>
                    </g>
                    <path d="M0,9.06879661 C0,8.61986441 0.222964824,8.31920339 0.667085427,8.31920339 L3.80442211,8.31920339 C4.24944724,8.31920339 4.50859296,8.58188136 4.50859296,9.06879661 L4.50859296,25.6111017 C4.50859296,26.2865593 4.21100503,26.5487797 3.58145729,26.5487797 L0.964673367,26.5487797 C0.298944724,26.5487797 0,26.2865593 0,25.6111017 L0,9.06879661" id="Fill-4" fill="#4E7AB0"></path>
                    <path d="M65.9568844,9.06879661 C65.9568844,8.61986441 66.181206,8.31920339 66.6248744,8.31920339 L69.7617588,8.31920339 C70.2076884,8.31920339 70.4668342,8.58188136 70.4668342,9.06879661 L70.4668342,25.6111017 C70.4668342,26.2865593 70.1696985,26.5487797 69.538794,26.5487797 L66.9215578,26.5487797 C66.2558291,26.5487797 65.9568844,26.2865593 65.9568844,25.6111017 L65.9568844,9.06879661" id="Fill-5" fill="#4E7AB0"></path>
                    <path d="M24.3877387,26.5487797 L21.7180402,26.5487797 C21.0505025,26.5487797 20.8284422,26.2115085 20.8284422,25.5731186 L20.8284422,15.3657458 C20.8284422,13.3032203 20.2730653,11.8392712 18.0094975,11.8392712 C16.5627136,11.8392712 14.7835176,12.628678 13.6338693,13.6404915 L13.6338693,25.6111017 C13.6338693,26.2508644 13.3742714,26.5487797 12.7451759,26.5487797 L10.0365829,26.5487797 C9.48030151,26.5487797 9.1460804,26.2508644 9.1460804,25.6486271 L9.1460804,9.26191525 C9.1460804,8.66105085 9.40748744,8.32377966 10.0741206,8.32377966 L12.4837688,8.32377966 C13.0025126,8.32377966 13.3385427,8.47342373 13.3742714,9.03630508 L13.4109045,10.0375932 C15.1177387,8.65052542 17.2691457,7.86294915 19.4201005,7.86294915 C23.5736683,7.86294915 25.2786935,10.4892712 25.2786935,14.5795424 L25.2786935,25.5731186 C25.2786935,26.2115085 25.0566332,26.5487797 24.3877387,26.5487797" id="Fill-6" fill="#4E7AB0"></path>
                    <path d="M37.6050754,3.19881356 C37.6050754,1.6790339 36.3880402,0.446186441 34.8851759,0.446186441 C33.3836683,0.446186441 32.1648241,1.6790339 32.1648241,3.19881356 C32.1648241,4.71905085 33.3836683,5.9500678 34.8851759,5.9500678 C36.3880402,5.9500678 37.6050754,4.71905085 37.6050754,3.19881356" id="Fill-7" fill="#4E7AB0"></path>
                    <path d="M41.4750754,8.31920339 C41.9201005,8.31920339 42.1796985,8.46884746 42.1796985,8.95713559 L42.1796985,11.5999322 C42.1796985,12.0497797 41.8834673,12.3129153 41.4375377,12.3129153 L37.1396985,12.3129153 L37.1396985,25.6111017 C37.1396985,26.2865593 36.8434673,26.5487797 36.1750251,26.5487797 L33.5948744,26.5487797 C32.9268844,26.5487797 32.6311055,26.2865593 32.6311055,25.6111017 L32.6311055,12.3129153 L28.3319095,12.3129153 C27.8873367,12.3129153 27.5906533,12.0497797 27.5906533,11.5999322 L27.5906533,8.95713559 C27.5906533,8.46884746 27.849799,8.31920339 28.2952764,8.31920339 L41.4750754,8.31920339" id="Fill-8" fill="#4E7AB0"></path>
                    <path d="M83.6253769,3.19881356 C83.6253769,1.6790339 82.4074372,0.446186441 80.9050251,0.446186441 C79.4030653,0.446186441 78.1851256,1.6790339 78.1851256,3.19881356 C78.1851256,4.71905085 79.4030653,5.9500678 80.9050251,5.9500678 C82.4074372,5.9500678 83.6253769,4.71905085 83.6253769,3.19881356" id="Fill-9" fill="#4E7AB0"></path>
                    <path d="M87.4953769,8.31920339 C87.9394975,8.31920339 88.1986432,8.46884746 88.1986432,8.95713559 L88.1986432,11.5999322 C88.1986432,12.0497797 87.9028643,12.3129153 87.4569347,12.3129153 L83.1590955,12.3129153 L83.1590955,25.6111017 C83.1590955,26.2865593 82.8633166,26.5487797 82.1953266,26.5487797 L79.6138191,26.5487797 C78.9462814,26.5487797 78.6505025,26.2865593 78.6505025,25.6111017 L78.649598,12.3129153 L74.3526633,12.3129153 C73.9067337,12.3129153 73.6100503,12.0497797 73.6100503,11.5999322 L73.6100503,8.95713559 C73.6100503,8.46884746 73.8705528,8.31920339 74.3137688,8.31920339 L87.4953769,8.31920339" id="Fill-10" fill="#4E7AB0"></path>
                    <path d="M88.419799,25.3699322 L88.648191,25.3699322 C88.8413065,25.3699322 89.0172362,25.3607797 89.0172362,25.1365424 C89.0172362,24.9475424 88.8575879,24.9187119 88.7092462,24.9187119 L88.419799,24.9187119 L88.419799,25.3699322 Z M88.201809,24.7397797 L88.7436181,24.7397797 C89.0782915,24.7397797 89.2361307,24.8729492 89.2361307,25.1466102 C89.2361307,25.4019661 89.0764824,25.5104237 88.8666332,25.5328475 L89.2686935,26.1602542 L89.0335176,26.1602542 L88.651809,25.5484068 L88.419799,25.5484068 L88.419799,26.1602542 L88.201809,26.1602542 L88.201809,24.7397797 Z M88.670804,26.4883729 C89.2270854,26.4883729 89.6567337,26.0403559 89.6567337,25.4449831 C89.6567337,24.8637966 89.2270854,24.4144068 88.670804,24.4144068 C88.1086432,24.4144068 87.6780905,24.8637966 87.6780905,25.4449831 C87.6780905,26.0403559 88.1086432,26.4883729 88.670804,26.4883729 Z M88.670804,24.2359322 C89.3261307,24.2359322 89.8747236,24.759 89.8747236,25.4449831 C89.8747236,26.1428644 89.3261307,26.6668475 88.670804,26.6668475 C88.0123116,26.6668475 87.4601005,26.1428644 87.4601005,25.4449831 C87.4601005,24.759 88.0123116,24.2359322 88.670804,24.2359322 L88.670804,24.2359322 Z" id="Fill-11" fill="#4E7AB0"></path>
                </g>
            </g>
        </g>
    </g>
</svg>