<?xml version="1.0" encoding="UTF-8"?>
<svg width="104px" height="28px" viewBox="0 0 104 28" version="1.1" xmlns="http://www.w3.org/2000/svg" xmlns:xlink="http://www.w3.org/1999/xlink">
    <!-- Generator: Sketch 52.2 (67145) - http://www.bohemiancoding.com/sketch -->
    <title>netflix-seeklogo.com</title>
    <desc>Created with Sketch.</desc>
    <style>
        * {
            fill: white !important;
        }
    </style>
    <g id="Page-1" stroke="none" stroke-width="1" fill="none" fill-rule="evenodd">
        <g id="home" transform="translate(-867.000000, -1919.000000)" fill="#E30A14">
            <g id="section-3" transform="translate(8.000000, 1631.000000)">
                <g id="netflix-seeklogo.com" transform="translate(859.000000, 288.000000)">
                    <path d="M14.2597963,0.0164137921 L9.88168519,0.0164137921 C9.87325926,5.98572414 9.86483333,9.85189655 9.85640741,15.8212069 C7.97501852,9.996 6.09194444,6.13948276 4.20405556,0.0164137921 L0,0.0164137921 L0,28 C1.41916667,27.7974828 2.93872222,27.6034138 4.35933333,27.4175517 C4.36342593,21.5686897 4.36751852,17.9733448 4.37161111,12.1242414 C6.32666667,17.8813793 7.52868519,21.2771034 9.47796296,26.7482069 C11.0059444,26.5732069 12.6848704,26.3578966 14.214537,26.2022069 C14.2297037,17.4736897 14.2446296,8.74493103 14.2597963,0.0164137921" id="Fill-1"></path>
                    <path d="M30.6133148,0.0164137921 L18.4845556,0.0164137921 C18.4681852,8.62206896 18.4520556,17.2279655 18.4356852,25.8336207 C22.4926481,25.4635862 26.5544259,25.1611379 30.6190926,24.9262759 C30.6212593,23.6679655 30.6236667,21.8593103 30.6258333,20.6012414 C27.9827407,20.7641724 25.4542407,20.9338621 22.820537,21.1115172 C22.8251111,18.7978966 22.8296852,16.8844828 22.8340185,14.5706207 C24.7589815,14.5373103 26.792037,14.5665172 28.7584074,14.5329655 C28.7605741,13.2681379 28.7629815,11.4529655 28.7653889,10.1883793 C26.8168333,10.2228966 24.7589815,10.227 22.8417222,10.2634483 C22.8462963,7.94958621 22.8508704,6.68041379 22.8554444,4.36655172 C24.0615556,4.35206896 25.2435926,4.35013793 26.423463,4.35013793 C26.6307407,4.35013793 26.8377778,4.35013793 27.0450556,4.35037931 L27.6635185,4.35037931 C28.6476667,4.35037931 29.6359074,4.34917241 30.6407593,4.34048276 C30.6431667,3.08217241 30.6111481,1.27448276 30.6133148,0.0164137921" id="Fill-2"></path>
                    <path d="M46.961537,0.0357241379 C42.5097593,0.0357241379 37.908,0.0359655172 33.4562222,0.0362068966 C33.4540556,1.28631034 33.4521296,3.087 33.449963,4.33686207 C33.6437593,4.33565517 33.8375556,4.33517241 34.0311111,4.33517241 C34.6177963,4.33517241 35.2044815,4.34072414 35.7914074,4.34651724 C36.3776111,4.35231034 36.9638148,4.35810345 37.5502593,4.35810345 C37.7007222,4.35810345 37.8509444,4.35762069 38.0014074,4.35689655 C37.9922593,11.2948621 37.9831111,17.6315517 37.9742037,24.5695172 C39.4032407,24.5161724 40.9321852,24.4712759 42.361463,24.4348276 C42.367963,17.535 42.374463,11.2359655 42.3807222,4.33637931 C43.8904074,4.33058621 45.4501667,4.32624138 46.9598519,4.32310345 C46.9603333,3.09424138 46.9610556,1.26458621 46.961537,0.0357241379" id="Fill-3"></path>
                    <path d="M61.9815926,0.0164137921 L49.803,0.0164137921 C49.8017963,8.11686207 49.8005926,16.2168276 49.7993889,24.3170345 C50.270037,24.3151034 50.7462222,24.3143793 51.2243333,24.3143793 C52.1981296,24.3143793 53.1793889,24.318 54.1385,24.3254828 C54.1372963,20.888 54.1363333,17.7507931 54.1353704,14.313069 C54.3744259,14.3137931 54.6158889,14.3142759 54.859037,14.3142759 C55.4252593,14.3142759 56.0006296,14.3121034 56.5784074,14.3096897 C57.1561852,14.3072759 57.7363704,14.3048621 58.3115,14.3048621 C58.9042037,14.3048621 59.4913704,14.3072759 60.065537,14.3152414 C60.0645741,13.083 60.0633704,11.2497241 60.0621667,10.0174828 C59.5200185,10.011931 58.9660741,10.01 58.4065926,10.01 C57.8071481,10.01 57.2016852,10.0121724 56.5986296,10.0143448 C55.9962963,10.0165172 55.3961296,10.0186897 54.8065556,10.0186897 C54.5809815,10.0186897 54.3566111,10.0184483 54.1341667,10.0177241 C54.1334444,7.80765517 54.132963,6.56044827 54.1322407,4.35037931 C54.6084259,4.35110345 55.0834074,4.35134483 55.5567037,4.35134483 C56.0372222,4.35134483 56.5162963,4.35110345 56.9951296,4.35086207 C57.4780556,4.35062069 57.9607407,4.35037931 58.4436667,4.35037931 C59.6201667,4.35037931 60.7976296,4.35158621 61.9854444,4.35689655 C61.9842407,3.12175862 61.9827963,1.25155172 61.9815926,0.0164137921" id="Fill-4"></path>
                    <path d="M64.8242593,0.0359655172 C64.8348519,8.21437931 64.7956111,16.3927931 64.8062037,24.5714483 C68.6999444,24.7167586 72.7915741,24.8743793 76.6805,25.144 C76.6780926,23.885931 76.6756852,22.0767931 76.6732778,20.8187241 C74.2119444,20.6734138 71.6495,20.4993793 69.1862407,20.3967931 C69.1751667,13.3926897 69.2136852,7.04006897 69.2026111,0.0362068966 C67.7762222,0.0359655172 66.2504074,0.0359655172 64.8242593,0.0359655172" id="Fill-5"></path>
                    <path d="M80.2735556,0.0366896552 C80.2904074,8.49437931 80.3067778,16.952069 80.3233889,25.41 C81.7500185,25.5205517 83.226,25.639069 84.6514259,25.7662759 C84.6564815,17.1956207 84.6682778,8.61337931 84.6519074,0.0369310345 C83.2257593,0.0366896552 81.6997037,0.0366896552 80.2735556,0.0366896552" id="Fill-6"></path>
                    <path d="M88.4052963,0.0371724138 C90.1562037,4.31368966 91.7578519,8.60227586 93.535963,13.1438276 C91.688037,17.5060345 89.8071296,21.8395172 87.9611296,26.024069 C89.4903148,26.1754138 91.0722222,26.3967586 92.599963,26.5674138 C93.6960556,23.8724138 94.6932037,21.7977586 95.7902593,19.0301034 C96.8856296,21.9783103 97.8813333,24.2562069 98.9738148,27.2995172 C100.499148,27.497931 102.476593,27.7825172 104,28 C102.153278,23.0502759 100.133463,17.8963448 98.2766296,13.2184138 C100.125759,8.82531034 102.012685,4.63158621 103.933556,0.0386206897 C102.356463,0.0386206897 100.729537,0.0383793103 99.1524444,0.038137931 C97.967037,2.877 97.1516481,4.70110345 96.0153519,7.40334483 C94.9568148,4.59175862 94.2466296,2.77224138 93.1864074,0.0376551724 C91.6093148,0.0374137931 89.9821481,0.0374137931 88.4052963,0.0371724138" id="Fill-7"></path>
                </g>
            </g>
        </g>
    </g>
</svg>