<?xml version="1.0" encoding="UTF-8"?>
<svg width="116px" height="32px" viewBox="0 0 116 32" version="1.1" xmlns="http://www.w3.org/2000/svg" xmlns:xlink="http://www.w3.org/1999/xlink">
    <!-- Generator: Sketch 52.2 (67145) - http://www.bohemiancoding.com/sketch -->
    <title>LinkedIn_Logo</title>
    <desc>Created with Sketch.</desc>
    <style>
        * {
            fill: white !important;
        }
        .cyan {
            fill: #45F0F9 !important;
        }
    </style>
    <g id="Page-1" stroke="none" stroke-width="1" fill="none" fill-rule="evenodd">
        <g id="home" transform="translate(-202.000000, -2046.000000)">
            <g id="section-3" transform="translate(8.000000, 1631.000000)">
                <g id="LinkedIn_Logo" transform="translate(194.000000, 415.000000)">
                    <g id="g3019" transform="translate(57.918111, 15.750687) scale(-1, 1) rotate(-180.000000) translate(-57.918111, -15.750687) translate(0.252503, 0.068489)">
                        <path d="M84.9008101,28.9031161 C84.9008101,30.1246767 85.9034988,31.115544 87.1404363,31.115544 L112.968108,31.115544 C114.205005,31.115544 115.207735,30.1246767 115.207735,28.9031161 L115.207735,2.44270866 C115.207735,1.2207353 114.205005,0.230280695 112.968108,0.230280695 L87.1404363,0.230280695 C85.9034988,0.230280695 84.9008101,1.2207353 84.9008101,2.44270866 L84.9008101,28.9031161 L84.9008101,28.9031161 Z" id="path14" fill="#006699" fill-rule="nonzero"></path>
                        <polygon id="path16" fill="#000000" points="0.0617816693 5.24486981 12.7097446 5.24486981 12.7097446 9.44976229 4.6389231 9.44976229 4.6389231 25.4926507 0.0617816693 25.4926507 0.0617816693 5.24486981"></polygon>
                        <path d="M19.1132353,5.24486981 L19.1132353,19.1908833 L14.5356863,19.1908833 L14.5356863,5.24486981 L19.1132353,5.24486981 L19.1132353,5.24486981 Z M16.8244608,21.0950323 C18.4207589,21.0950323 19.414319,22.1659613 19.414319,23.5051385 C19.3845693,24.8732039 18.4207589,25.9140066 16.8549033,25.9140066 C15.288844,25.9140066 14.2650451,24.8732039 14.2650451,23.5051385 C14.2650451,22.1659613 15.2584014,21.0950323 16.7945888,21.0950323 L16.8243385,21.0950323 L16.8244608,21.0950323 Z" id="path18" fill="#000000"></path>
                        <path d="M21.2386307,5.24486981 L25.8162204,5.24486981 L25.8162204,13.0331445 C25.8162204,13.4499608 25.8459701,13.8663644 25.9670475,14.1643262 C26.2977588,14.9967208 27.0509164,15.8592416 28.3155253,15.8592416 C29.9720972,15.8592416 30.6347423,14.5799044 30.6347423,12.7062945 L30.6347423,5.24486981 L35.2118837,5.24486981 L35.2118837,13.2415527 C35.2118837,17.5252688 32.953348,19.5185587 29.9416547,19.5185587 C27.4723848,19.5185587 26.3881083,18.1207796 25.7857371,17.1687052 L25.8163019,17.1687052 L25.8163019,19.1908833 L21.2387122,19.1908833 C21.298823,17.8822452 21.2387122,5.24486981 21.2387122,5.24486981 L21.2386307,5.24486981 Z" id="path20" fill="#000000"></path>
                        <path d="M41.6694945,25.4926507 L37.0917418,25.4926507 L37.0917418,5.24486981 L41.6694945,5.24486981 L41.6694945,9.76629507 L42.813515,11.2247395 L46.3973001,5.24486981 L52.0285199,5.24486981 L46.0059075,13.9018557 L51.2759328,19.7917591 L45.7650975,19.7917591 C45.7650975,19.7917591 42.0008171,14.5221279 41.6694945,13.8973161 L41.6694945,25.4926507 L41.6694945,25.4926507 Z" id="path22" fill="#000000"></path>
                        <path d="M64.2701339,11.0621398 C64.3302446,11.4203543 64.420798,12.1074821 64.420798,12.8841636 C64.420798,16.4894184 62.6135619,20.1491481 57.8557213,20.1491481 C52.7661507,20.1491481 50.4173061,16.0730148 50.4173061,12.3761429 C50.4173061,7.8035442 53.2781724,4.94773343 58.2771897,4.94773343 C60.2648804,4.94773343 62.101581,5.24486981 63.6075295,5.86968159 L63.0049952,8.93101169 C61.7704622,8.51625882 60.5056496,8.30908874 58.9398348,8.30908874 C56.8016837,8.30908874 54.9347443,9.19760905 54.7839172,11.0918535 L64.2701339,11.0629652 L64.2701339,11.0621398 Z M54.7540859,14.1981667 C54.8744705,15.388363 55.6575002,17.1439438 57.6149521,17.1439438 C59.6923811,17.1439438 60.1745308,15.2690958 60.1745308,14.1981667 L54.7540859,14.1981667 L54.7540859,14.1981667 Z" id="path24" fill="#000000"></path>
                        <path d="M75.7196302,25.4926507 L75.7196302,18.4835336 L75.6595194,18.4835336 C74.9968743,19.4644964 73.6113103,20.1190218 71.7748543,20.1190218 C68.2511392,20.1190218 65.1495038,17.263211 65.1793351,12.3848094 C65.1793351,7.86255879 67.9801312,4.9176071 71.473363,4.9176071 C73.3705411,4.9176071 75.1773697,5.75082704 76.080784,7.35742694 L76.1713373,7.35742694 L76.3519957,5.24486981 L80.4177675,5.24486981 C80.3574529,6.22665793 80.2967716,7.92239875 80.2967716,9.58801324 L80.2967716,25.4926507 L75.7196302,25.4926507 L75.7196302,25.4926507 Z M75.7196302,11.7001577 C75.7196302,11.343594 75.6894729,10.986205 75.6290768,10.6890686 C75.3584356,9.40973141 74.2739554,8.51749689 72.9492765,8.51749689 C71.0519354,8.51749689 69.8171986,10.0642568 69.8171986,12.503664 C69.8171986,14.7940902 70.87144,16.6383993 72.9791486,16.6383993 C74.39434,16.6383993 75.3883076,15.6570238 75.6595194,14.4375266 C75.7196302,14.1692785 75.7196302,13.8717294 75.7196302,13.6043067 L75.7196302,11.7001577 L75.7196302,11.7001577 Z" id="path26" fill="#000000"></path>
                        <path class="cyan" d="M94.0877769,5.26137739 L94.0877769,19.2078036 L89.5101872,19.2078036 L89.5101872,5.26137739 L94.0877769,5.26137739 L94.0877769,5.26137739 Z M91.7989617,21.1119525 C93.3952598,21.1119525 94.3888199,22.1828816 94.3888199,23.5212334 C94.3590701,24.8897115 93.3952598,25.9309269 91.8292412,25.9309269 C90.2633856,25.9309269 89.2395867,24.8897115 89.2395867,23.5212334 C89.2395867,22.1828816 90.232943,21.1119525 91.7691304,21.1119525 L91.7988801,21.1119525 L91.7989617,21.1119525 Z" id="path28" fill="#FFFFFF"></path>
                        <path class="cyan" d="M96.6207031,5.26137739 L101.198252,5.26137739 L101.198252,13.0496521 C101.198252,13.4664684 101.228002,13.882872 101.348875,14.1808338 C101.67979,15.013641 102.432989,15.8761619 103.697557,15.8761619 C105.353966,15.8761619 106.01657,14.5972374 106.01657,12.7223894 L106.01657,5.26137739 L110.593752,5.26137739 L110.593752,13.2580602 C110.593752,17.5417764 108.33542,19.5350663 105.323727,19.5350663 C102.854253,19.5350663 101.77014,18.1372872 101.167809,17.1852127 L101.198374,17.1852127 L101.198374,19.2078036 L96.6208253,19.2078036 C96.6808954,17.8991654 96.6208253,5.26137739 96.6208253,5.26137739 L96.6207031,5.26137739 Z" id="path30" fill="#FFFFFF"></path>
                    </g>
                </g>
            </g>
        </g>
    </g>
</svg>