<?xml version="1.0" encoding="UTF-8"?>
<svg width="187px" height="26px" viewBox="0 0 187 26" version="1.1" xmlns="http://www.w3.org/2000/svg" xmlns:xlink="http://www.w3.org/1999/xlink">
    <!-- Generator: Sketch 52.2 (67145) - http://www.bohemiancoding.com/sketch -->
    <title>The_New_York_Times</title>
    <desc>Created with Sketch.</desc>
    <style>
        * {
            fill: white !important;
        }
    </style>
    <defs>
        <polygon id="path-1" points="14.1957887 0.0126829268 0.0192123288 0.0126829268 0.0192123288 19.7176493 14.1957887 19.7176493 14.1957887 0.0126829268"></polygon>
        <polygon id="path-3" points="0.0218308514 0.0126829268 55.9575086 0.0126829268 55.9575086 10.1764678 55.9575086 20.3402526 0.0218308514 20.3402526 0.0218308514 0.0126829268"></polygon>
    </defs>
    <g id="Page-1" stroke="none" stroke-width="1" fill="none" fill-rule="evenodd">
        <g id="home" transform="translate(-496.000000, -2049.000000)">
            <g id="section-3" transform="translate(8.000000, 1631.000000)">
                <g id="The_New_York_Times" transform="translate(488.000000, 418.000000)">
                    <g id="Group-3">
                        <mask id="mask-2" fill="white">
                            <use xlink:href="#path-1"></use>
                        </mask>
                        <g id="Clip-2"></g>
                        <path d="M11.5549349,0.029804878 C12.0781507,0.0754634146 12.8991575,0.330390244 13.5177945,0.867195122 C14.1748562,1.49912195 14.3247123,2.45795122 14.0944846,3.32958537 C13.8895531,4.10609756 13.660286,4.50973171 12.8600925,5.04653659 C12.0512534,5.58682927 11.0733459,5.54117073 11.0733459,5.54117073 L11.0733459,8.90563415 L12.7262466,10.2303659 L11.0730257,11.5509756 L11.0733459,16.1342683 C11.0733459,16.1342683 12.7294486,15.1941463 13.7566678,13.0890976 C13.7566678,13.0890976 13.7989349,12.9746341 13.895637,12.7577561 C13.9868955,13.3215122 13.9347021,14.4632927 13.2904486,15.9284878 C12.8050171,17.0322195 11.9222106,18.0940976 10.8149401,18.6993902 C8.85272089,19.7768049 7.38137671,19.8795366 5.80372432,19.5558049 C3.9564589,19.179122 2.2789024,18.1511707 1.1338476,16.358439 C0.329171233,15.0987073 -0.0310599315,13.6297073 0.00192123288,12.0497317 C0.0666027397,8.9474878 2.39705822,6.27202439 5.08710445,5.2745122 C5.41467466,5.15307317 5.54499829,5.07317073 6.00961644,5.031 C5.79539897,5.17590244 5.54788014,5.36234146 5.24400514,5.56019512 C4.37784932,6.12363415 3.63561301,7.24639024 3.31892979,8.11041463 L8.54020034,5.80370732 L8.54020034,13.0323415 L4.32949829,15.1215366 C4.8094863,15.7800976 6.26706164,16.7776098 7.51394178,16.9180732 C9.63530308,17.1504878 10.8799418,16.2331951 10.8799418,16.2331951 L10.8796216,11.5509756 L9.23568664,10.2303659 L10.8805822,8.9097561 L10.8805822,5.54117073 C9.98400685,5.43843902 8.89466781,5.14546341 8.25777911,4.98914634 C7.32149829,4.76085366 4.19917466,3.89302439 3.70829966,3.82073171 C3.21806507,3.74843902 2.61287671,3.77126829 2.24688185,4.095 C1.88056678,4.42221951 1.6538613,4.9967561 1.80980137,5.51453659 C1.89785788,5.8075122 2.10150856,5.97873171 2.2555274,6.14614634 C2.2555274,6.14614634 2.07525171,6.13092683 1.74864212,5.93687805 C1.15914384,5.58682927 0.710856164,4.90163415 0.656741438,4.05663415 C0.587577055,2.94909756 1.04803253,1.95190244 1.97054452,1.2822439 C2.77201884,0.772073171 3.67852055,0.444536585 4.73263699,0.593243902 C6.2702637,0.810121951 8.33783048,1.67034146 10.1793322,2.10790244 C10.89275,2.27943902 11.4451045,2.3365122 11.9465462,2.04702439 C12.1802962,1.87960976 12.5911199,1.44934146 12.2552243,0.878609756 C11.8632928,0.208634146 11.1117705,0.223853659 10.4752021,0.105902439 C11.0230736,-0.00824390244 11.1431507,-0.00824390244 11.5549349,0.029804878 Z M5.34647089,14.4020976 L5.34647089,7.42141463 L3.22639041,8.35773171 C3.22575,8.35773171 2.68588356,9.55658537 2.78034418,11.2960488 C2.85495205,12.6550244 3.62216438,14.2806585 4.21166267,14.9617317 L5.34647089,14.4020976 L5.34647089,14.4020976 Z" id="Fill-1" fill="#1A1919" mask="url(#mask-2)"></path>
                    </g>
                    <path d="M31.8066507,7.08246341 C31.8066507,7.08246341 30.2069041,8.04192683 29.1310137,8.67734146 C28.0554435,9.30926829 26.6122774,10.005878 26.6122774,10.005878 L26.6122774,16.6666341 L25.6500599,17.4323659 L25.7775017,17.580122 L26.7163442,16.830878 L29.6587123,19.4648049 L34.7723938,15.452878 L34.6513562,15.3079756 L31.8252226,17.5040244 L29.5024521,15.3501463 L29.5027723,14.547 L34.1684863,11.1476585 L31.8066507,7.08246341 Z M31.8745342,12.5827317 L29.5024521,14.3034878 L29.5024521,8.57841463 L31.8745342,12.5827317 L31.8745342,12.5827317 Z" id="Fill-4" fill="#1A1919"></path>
                    <path d="M18.4025291,21.9690488 C19.074,22.1326585 20.2584401,22.2242927 21.6865565,21.5156341 C23.2677312,20.7318293 24.0628014,19.0684634 24.0522346,17.363561 L24.1191575,14.9465122 L24.1194777,9.66692683 L25.1303664,8.90214634 L25.0125308,8.75343902 L24.0176524,9.49570732 L21.7217791,6.96863415 L18.7765291,9.47287805 L18.7765291,0.962317073 L15.0964075,3.77887805 C15.2600325,3.88160976 15.7816473,3.97704878 15.7970171,4.70378049 L15.7970171,16.6254146 L14.2385771,17.771 L14.3452055,17.9308049 L15.0976884,17.3746585 L17.1934332,19.3043659 L20.4925103,16.7053171 L20.3727534,16.5566098 L19.5972158,17.1653902 L18.7765291,16.358439 L18.7845342,9.71670732 L19.7457911,8.90563415 L21.1790308,10.6682439 C21.1790308,10.6682439 21.176149,14.9693415 21.1799914,16.3968049 C21.1694247,17.9190732 21.1643014,19.8183415 20.3564229,20.7356341 C19.5488647,21.6570488 19.225137,21.7293415 18.4025291,21.9690488" id="Fill-5" fill="#1A1919"></path>
                    <path d="M41.2985017,21.367878 C39.980536,21.2191707 39.4269007,20.4277561 39.4419503,19.803439 C39.4515565,19.4032927 39.8181918,18.6194878 40.6196661,18.5129512 C41.4205,18.4026098 42.2392654,18.7754878 42.930589,19.5786341 L45.9747825,16.2480976 L45.8281284,16.1187317 L45.0103236,17.0246098 C44.1797106,16.0882927 43.0010342,15.4982195 41.8268408,15.3273171 L41.8268408,5.17939024 L49.7339949,19.4416585 C49.7339949,19.4416585 49.8098836,19.6052683 50.1348921,19.6052683 C50.4147517,19.6052683 50.3475086,19.3804634 50.3475086,19.3804634 L50.3462277,5.02719512 C50.9885599,5.00056098 51.9696695,4.6505122 52.4458151,4.16729268 C53.9683921,2.61807317 53.3465531,0.928073171 53.1794058,0.764463415 C53.086226,1.50292683 52.512738,2.24519512 51.5556438,2.24868293 C50.2997979,2.2524878 49.5341866,1.33519512 49.5341866,1.33519512 L46.4922346,4.76846341 L46.6372877,4.89782927 L47.508887,3.91204878 C48.57325,4.88260976 49.3503887,4.97392683 50.1541045,5.02719512 L50.153464,13.355439 L44.2882603,2.8045122 C43.7576798,1.93287805 42.9485205,1.16778049 41.6811473,1.15636585 C40.2242123,1.1487561 39.1813031,2.41990244 39.0567432,3.51602439 C38.9158527,4.7532439 39.0717928,5.03860976 39.0717928,5.03860976 C39.0717928,5.03860976 39.2863305,3.66092683 40.147363,3.67234146 C40.9206592,3.6837561 41.3231575,4.38765854 41.6334366,4.91685366 L41.6334366,7.97312195 C40.8358048,8.02639024 38.7592723,8.11802439 38.6324709,10.257 C38.6231849,11.0525366 39.1220651,11.886122 39.5591455,12.1676829 C40.1211062,12.5329512 40.5594675,12.5253415 40.5594675,12.5253415 C40.5594675,12.5253415 39.8860753,12.1714878 40.0878048,11.4710732 C40.2680805,10.8432683 41.5866866,10.7405366 41.6343973,11.0030732 L41.6340771,15.3155854 C40.99975,15.3079756 38.9680462,15.3767805 38.0516182,17.1010244 C37.4992637,18.143878 37.5316045,19.3088049 38.1220634,20.1303415 C38.6033322,20.8006341 39.5937277,21.6570488 41.2985017,21.367878" id="Fill-6" fill="#1A1919"></path>
                    <path d="M57.9988185,7.08246341 C57.9988185,7.08246341 56.3987517,8.04192683 55.3228613,8.67734146 C54.2469709,9.30926829 52.8044452,10.005878 52.8044452,10.005878 L52.8044452,16.6666341 L51.8419075,17.4323659 L51.9696695,17.580122 L52.9081918,16.830878 L55.8505599,19.4648049 L60.9645616,15.452878 L60.8432038,15.3079756 L58.0173904,17.5040244 L55.6942997,15.3501463 L55.6946199,14.547 L60.3606541,11.1476585 L57.9988185,7.08246341 Z M58.0670223,12.5827317 L55.6942997,14.3034878 L55.6942997,8.57841463 L58.0670223,12.5827317 L58.0670223,12.5827317 Z" id="Fill-7" fill="#1A1919"></path>
                    <path d="M65.1467654,19.5142683 L62.6395565,17.4507561 L61.5383699,18.2428049 L61.4262979,18.0868049 L62.5466969,17.2760488 L62.5466969,11.509122 C62.6004914,9.1342439 60.3497671,9.724 60.4717654,7.20453659 C60.5255599,6.097 61.6081747,5.25929268 62.1544452,4.98185366 C62.7394606,4.68856098 63.3725068,4.68856098 63.3725068,4.68856098 C63.3725068,4.68856098 62.3462483,5.32397561 62.5953682,6.23746341 C62.9792945,7.64590244 65.4109349,7.77146341 65.4567243,9.64790244 L65.4567243,16.1910244 L67.2524366,17.615 L67.7244195,17.2494146 L67.7244195,10.1656829 L66.7561182,9.21414634 L69.2489178,7.02919512 L71.525899,9.02770732 L70.6571815,9.96021951 L70.6571815,16.237 L72.78975,17.9802683 L73.1688733,17.7399268 L73.1688733,10.1847073 L72.1989709,9.28643902 L74.6965736,7.02570732 L77.031512,8.93639024 L77.9639503,8.11802439 L78.0901113,8.26260976 L75.9908442,10.0895854 L75.9908442,16.2480976 L70.6193973,19.5291707 L67.8720342,17.3746585 L65.1467654,19.5142683" id="Fill-8" fill="#1A1919"></path>
                    <path d="M175.027197,7.08246341 C175.027197,7.08246341 173.42681,8.04192683 172.35156,8.67734146 C171.275349,9.30926829 169.832503,10.005878 169.832503,10.005878 L169.832503,16.6666341 L168.869966,17.4323659 L168.998368,17.580122 L169.93689,16.830878 L172.879579,19.4648049 L177.99294,15.452878 L177.872223,15.3079756 L175.045769,17.5040244 L172.722678,15.3501463 L172.722678,14.547 L177.389353,11.1476585 L175.027197,7.08246341 Z M175.095401,12.5827317 L172.722678,14.3034878 L172.722678,8.57841463 L175.095401,12.5827317 L175.095401,12.5827317 Z" id="Fill-9" fill="#1A1919"></path>
                    <polyline id="Fill-10" fill="#1A1919" points="151.019471 9.86890244 151.144671 10.0134878 152.107849 9.19131707 153.537567 10.7938049 153.537567 16.297561 152.843361 16.9256829 155.071031 19.4188293 157.356658 17.1882195 156.417495 16.2252683 156.417495 9.568 156.98586 9.11902439 158.566394 10.9456829 158.566394 16.4345366 157.972092 17.021122 160.069759 19.3582683 162.313118 17.1349512 161.488909 16.2785366 161.467455 9.59463415 162.073604 9.10760976 163.721382 10.9041463 163.721382 16.362561 163.179274 16.8990488 165.49532 19.3998049 168.604836 16.5566098 168.472911 16.4158293 167.718187 17.1045122 166.560003 15.8333659 166.560003 9.6022439 167.678161 8.76104878 167.561606 8.60885366 166.442168 9.45004878 164.32657 7.1014878 161.301269 9.46907317 159.182149 7.1855122 156.260274 9.45004878 154.122262 7.19692683 151.019471 9.86890244"></polyline>
                    <polyline id="Fill-11" fill="#1A1919" points="144.688688 9.69736585 144.814209 9.84226829 145.627851 9.14565854 146.900668 10.6374878 146.900668 16.9294878 146.003132 17.706 146.128332 17.8509024 147.070697 17.0550488 149.123214 19.3998049 152.089598 16.7776098 151.964397 16.6327073 151.090877 17.394 149.86449 15.9931707 149.86449 9.84226829 150.898753 8.95541463 150.773873 8.81082927 149.791163 9.64790244 147.631057 7.15507317 144.688688 9.69736585"></polyline>
                    <g id="Group-16" transform="translate(130.964041, 0.000000)">
                        <mask id="mask-4" fill="white">
                            <use xlink:href="#path-3"></use>
                        </mask>
                        <g id="Clip-13"></g>
                        <polyline id="Fill-12" fill="#1A1919" mask="url(#mask-4)" points="14.5795959 4.48690244 16.8127089 2.46207317 18.6289144 4.45646341 16.3855548 6.47368293 14.5795959 4.48690244"></polyline>
                        <path d="M11.5763887,0.029804878 C12.0999247,0.0754634146 12.9209315,0.330390244 13.5395685,0.867195122 C14.1966301,1.49912195 14.3461661,2.45795122 14.1159384,3.32958537 C13.9110068,4.10609756 13.6820599,4.50973171 12.8809058,5.04653659 C12.0730274,5.58682927 11.0947997,5.54117073 11.0947997,5.54117073 L11.0947997,8.90563415 L12.7483408,10.2303659 L11.0947997,11.5509756 L11.0947997,16.1342683 C11.0947997,16.1342683 12.7509024,15.1941463 13.7784418,13.0890976 C13.7784418,13.0890976 13.8210291,12.9746341 13.9164503,12.7577561 C14.0080291,13.3215122 13.956476,14.4632927 13.3119024,15.9284878 C12.8264709,17.0322195 11.9433442,18.0940976 10.8363938,18.6993902 C8.87449486,19.7768049 7.40315068,19.8795366 5.82581849,19.5558049 C3.97823288,19.179122 2.30099658,18.1511707 1.15594178,16.358439 C0.350945205,15.0987073 -0.00992636986,13.6297073 0.024015411,12.0497317 C0.0883767123,8.9474878 2.41851199,6.27202439 5.10919863,5.2745122 C5.43612842,5.15307317 5.56613185,5.07317073 6.03139041,5.031 C5.81717295,5.17590244 5.5693339,5.36234146 5.26609932,5.56019512 C4.39994349,6.12363415 3.65738699,7.24639024 3.34038356,8.11041463 L8.5613339,5.80370732 L8.5613339,13.0323415 L4.35095205,15.1215366 C4.83126027,15.7800976 6.28851541,16.7776098 7.53635616,16.9180732 C9.65707705,17.1504878 10.9013955,16.2331951 10.9013955,16.2331951 L10.9013955,11.5509756 L9.25810103,10.2303659 L10.9013955,8.9097561 L10.9013955,5.54117073 C10.0054606,5.43843902 8.91644178,5.14546341 8.27987329,4.98914634 C7.34295205,4.76085366 4.22030822,3.89302439 3.73007363,3.82073171 C3.23983904,3.74843902 2.63433048,3.77126829 2.26833562,4.095 C1.90202055,4.42221951 1.67563527,4.9967561 1.83125514,5.51453659 C1.91963185,5.8075122 2.12264212,5.97873171 2.27730137,6.14614634 C2.27730137,6.14614634 2.09638527,6.13092683 1.77009589,5.93687805 C1.1802774,5.58682927 0.731989726,4.90163415 0.678195205,4.05663415 C0.609351027,2.94909756 1.0694863,1.95190244 1.99199829,1.2822439 C2.79379281,0.772073171 3.69997432,0.444536585 4.75441096,0.593243902 C6.29171747,0.810121951 8.35928425,1.67034146 10.2011062,2.10790244 C10.914524,2.27943902 11.4668784,2.3365122 11.9676798,2.04702439 C12.20175,1.87960976 12.6125736,1.44934146 12.2766781,0.878609756 C11.8847466,0.208634146 11.1335445,0.223853659 10.496976,0.105902439 C11.0448476,-0.00824390244 11.1649247,-0.00824390244 11.5763887,0.029804878 Z M5.36856507,14.4020976 L5.36856507,7.42141463 L3.24848459,8.35773171 C3.24848459,8.35773171 2.70765753,9.55658537 2.80179795,11.2960488 C2.87640582,12.6550244 3.64361815,14.2806585 4.23343664,14.9617317 L5.36856507,14.4020976 L5.36856507,14.4020976 Z" id="Fill-14" fill="#1A1919" mask="url(#mask-4)"></path>
                        <path d="M49.7535274,20.3250244 C49.41475,20.4233171 47.9418048,20.0697805 47.5886182,18.5586098 C47.2443973,17.0854878 48.2770599,16.0882927 49.8374212,14.5203659 L47.9955993,12.852878 L47.9955993,9.67073171 C47.9955993,9.67073171 49.3491079,9.00107317 50.4096284,8.34631707 C51.4704692,7.6877561 52.5553253,6.97592683 52.5553253,6.97592683 C52.5553253,6.97592683 53.3465531,7.96582927 54.240887,7.88592683 C55.6411455,7.76385366 55.5761438,6.67153659 55.5354777,6.41280488 C55.774351,6.83514634 56.4141216,8.09139024 53.9539829,10.9000244 L55.9575086,12.5025122 L55.9575086,16.6365122 C55.9575086,16.6365122 53.6299349,17.8353659 51.4285223,19.426439 C51.4285223,19.426439 50.1995736,17.9041707 49.132649,18.6312195 C48.4121866,19.1217317 48.7416781,19.9515122 49.7535274,20.3250244 Z M48.0218562,17.1387561 C48.0218562,17.1387561 49.0794949,15.4072195 50.8963408,15.7800976 C52.6392192,16.1377561 53.2440873,17.9609268 53.2440873,17.9609268 L53.2440873,13.762878 L52.0282671,12.7159024 C50.6930103,14.0447561 48.3164452,15.9662195 48.0218562,17.1387561 Z M50.7186267,8.36914634 L50.7186267,11.6768537 L51.8307003,12.636 C51.8307003,12.636 54.2460103,10.7211951 55.1227329,8.9474878 C55.1227329,8.9474878 54.0375565,10.4053902 52.5761387,9.96021951 C51.3529538,9.59114634 50.7186267,8.36914634 50.7186267,8.36914634 L50.7186267,8.36914634 Z" id="Fill-15" fill="#1A1919" mask="url(#mask-4)"></path>
                    </g>
                    <path d="M105.516671,9.83053659 L106.41901,9.00868293 L106.548373,9.15326829 L105.669729,9.96021951 L105.669729,16.5337805 C105.669729,16.5337805 104.000498,17.4092195 102.835591,18.0601707 C101.671644,18.711122 100.427646,19.4759024 100.427646,19.4759024 L97.3652003,16.921878 L96.5554007,17.6184878 L96.4244366,17.4735854 L97.275863,16.7392439 L97.275863,9.67073171 L97.2870702,9.67073171 C97.2870702,9.67073171 98.7315171,9.02358537 99.949899,8.3425122 C101.039878,7.73341463 102.259541,7.02919512 102.259541,7.02919512 L105.516671,9.83053659 Z M100.181408,15.6237805 L102.769308,17.9419024 L102.769308,10.8467561 L100.181408,8.47568293 L100.181408,15.6237805 L100.181408,15.6237805 Z" id="Fill-17" fill="#1A1919"></path>
                    <path d="M111.538135,9.16468293 L113.483063,7.19692683 C113.483063,7.19692683 113.750755,7.42902439 114.000836,7.55078049 C114.143327,7.61926829 114.731865,7.92017073 115.272372,7.62687805 C115.565039,7.46707317 115.606986,7.42521951 115.927832,7.12431707 C115.993474,8.6545122 115.251558,9.73160976 114.326164,10.1770976 C113.947041,10.3597317 112.840731,10.7097805 111.683188,9.31307317 L111.683188,16.3850732 L112.914378,17.4624878 L113.941918,16.6209756 L114.060714,16.7696829 L110.842009,19.4299268 L108.392757,17.2227805 L107.511551,18.0446341 L107.367139,17.892439 L108.70944,16.6935854 L108.720647,10.5880244 L107.691187,9.23697561 L106.806139,10.0096829 L106.678057,9.86890244 L109.796217,7.09419512 L111.538135,9.16468293" id="Fill-18" fill="#1A1919"></path>
                    <path d="M119.739558,12.1106098 L123.336106,6.93026829 C123.336106,6.93026829 123.81033,7.48609756 124.636461,7.70297561 C125.759741,7.99246341 126.740211,6.91885366 126.740211,6.91885366 C126.55257,8.30446341 125.843315,9.87619512 124.378695,10.1162195 C123.088587,10.3292927 121.888457,9.33590244 121.888457,9.33590244 L121.655027,9.69356098 L126.648312,17.1615854 L127.647033,16.2940732 L127.775755,16.4383415 L124.349236,19.4032927 L119.739558,12.1106098" id="Fill-19" fill="#1A1919"></path>
                    <path d="M116.768372,5.19460976 C116.768372,4.07565854 116.305354,3.38697561 115.700807,3.43612195 L119.623644,0.707390244 L119.623644,16.1532927 L119.624284,16.1532927 L120.660149,17.2341951 L121.444973,16.5604146 L121.568252,16.7053171 L118.406863,19.4381707 L116.265329,17.4469512 L115.407818,18.1933415 L115.272372,18.048439 L116.768372,16.7585854 L116.768372,5.19460976" id="Fill-20" fill="#1A1919"></path>
                    <path d="M83.9716455,4.93968293 C83.9713253,3.89682927 83.5435308,3.31468293 82.8506062,3.29914634 C81.8534863,3.27631707 81.6171747,4.66953659 81.6171747,4.66953659 C81.6171747,4.66953659 81.4356182,3.5962439 82.3427603,2.62187805 C82.8528476,2.07746341 83.8044983,1.31236585 85.2924932,1.66653659 C86.8291592,2.03560976 87.2655993,3.21543902 87.2655993,4.25829268 L87.2655993,18.6267805 C87.2655993,18.6267805 87.8461318,18.6955854 88.2444675,18.7834146 C88.706524,18.8782195 89.1442449,19.0002927 89.1442449,19.0002927 L89.1442449,1.67414634 L89.3354075,1.67414634 L89.3354075,4.01097561 L92.4859092,1.49912195 L94.7942705,3.53156098 L95.8704812,2.61046341 L95.9931199,2.75504878 L94.8679178,3.71419512 L94.8679178,17.0743902 C94.8122021,17.9457073 94.670351,18.832561 93.8390976,19.3427317 C91.9851079,20.4312439 89.7484726,19.1756341 87.7564743,18.8899512 C86.2774452,18.6727561 83.9559555,18.3953171 83.3731815,19.738439 C83.1829795,20.180122 83.1961079,20.8611951 83.8672586,21.3063659 C85.2134024,22.1976585 91.207649,19.8110488 93.2636884,20.7584634 C95.1381712,21.6221707 95.1311267,22.9890732 94.841661,23.9291951 C94.3543082,25.6914878 92.1074264,26 92.1074264,26 C92.1074264,26 93.2063716,25.3677561 92.8932106,24.3210976 C92.7343887,23.7922195 92.3715959,23.6435122 91.195161,23.7731951 C88.6258322,24.0623659 85.5547414,25.2951463 83.4910171,24.4393659 C82.4272945,24.0014878 81.6751318,22.6843659 81.7481387,21.3907073 C81.8009726,19.5291707 83.9716455,18.7945122 83.9716455,18.7945122 L83.9710051,11.9089512 C83.9088853,11.6346829 82.7507021,11.7069756 82.4977397,12.2133415 C82.1125325,12.9787561 82.9761267,13.3288049 82.9761267,13.3288049 C82.9761267,13.3288049 82.2601473,13.4353415 81.6600822,12.7501463 C81.3680548,12.415 80.7577432,11.2427805 81.5512123,10.1580732 C82.2034709,9.26360976 82.9854127,9.10760976 83.9716455,9.00107317 L83.9716455,4.93968293 Z M89.3354075,19.053561 C89.3354075,19.053561 90.2495942,19.2932683 90.9159418,18.7526585 C91.6565771,18.1473659 91.5787671,17.2991951 91.5787671,17.2991951 L91.5787671,11.947 C91.5787671,11.947 91.1493716,11.3987805 90.4670137,11.3987805 C89.784976,11.3987805 89.3354075,11.9660244 89.3354075,11.9660244 L89.3354075,19.053561 Z M91.5787671,5.00436585 L90.065476,3.68756098 L89.3354075,4.25829268 L89.3354075,9.21795122 C89.3354075,9.21795122 89.784976,9.78107317 90.4670137,9.78107317 C91.1493716,9.78107317 91.5787671,9.24078049 91.5787671,9.24078049 L91.5787671,5.00436585 Z M91.5787671,9.53756098 C91.5787671,9.53756098 91.1455291,10.0249024 90.4634914,10.0249024 C89.7814538,10.0249024 89.3354075,9.5337561 89.3354075,9.5337561 L89.3354075,11.6502195 C89.3354075,11.6502195 89.7814538,11.1590732 90.4634914,11.1590732 C91.1455291,11.1590732 91.5787671,11.6232683 91.5787671,11.6232683 L91.5787671,9.53756098 L91.5787671,9.53756098 Z" id="Fill-21" fill="#1A1919"></path>
                </g>
            </g>
        </g>
    </g>
</svg>