<?xml version="1.0" encoding="UTF-8"?>
<svg width="164px" height="35px" viewBox="0 0 164 35" version="1.1" xmlns="http://www.w3.org/2000/svg" xmlns:xlink="http://www.w3.org/1999/xlink">
    <!-- Generator: Sketch 52.2 (67145) - http://www.bohemiancoding.com/sketch -->
    <title>microsoft-seeklogo.com</title>
    <desc>Created with Sketch.</desc>
    <style>
        .hover {
            fill: white;
        }
        .hover.hover__cyan {
            fill: #45F0F9;
        }
    </style>
    <g id="Page-1" stroke="none" stroke-width="1" fill="none" fill-rule="evenodd">
        <g id="home" transform="translate(-837.000000, -2045.000000)">
            <g id="section-3" transform="translate(8.000000, 1631.000000)">
                <g id="microsoft-seeklogo.com" transform="translate(829.000000, 414.000000)">
                    <path d="M0,0 L16.6601586,0 C16.659158,5.55 16.6601586,11.1 16.659158,16.65 L0,16.65 L0,0" id="Fill-1" fill="#F25022"></path>
                    <path d="M18.3611959,0 L35.0213545,0 C35.0213545,5.55 35.0223551,11.1 35.0203539,16.65 C29.4679683,16.649 23.9145821,16.65 18.3621965,16.65 C18.3601952,11.1 18.3611959,5.55 18.3611959,0" id="Fill-3" fill="#80BA01"></path>
                    <path d="M150.236608,6.344 C151.772544,5.345 153.756754,5.252 155.48781,5.728 C155.502819,6.756 155.489811,7.785 155.494814,8.814 C154.672312,8.452 153.704722,8.216 152.839195,8.571 C152.152776,8.843 151.744527,9.547 151.637462,10.251 C151.508383,11.144 151.592434,12.049 151.570421,12.947 C153.327492,12.951 155.084564,12.948 156.841635,12.949 C156.854643,11.809 156.827627,10.668 156.856644,9.528 C158.051373,9.188 159.233093,8.807 160.421818,8.449 C160.431824,9.951 160.40781,11.454 160.434826,12.957 C161.62255,12.94 162.811275,12.953 164,12.949 L164,15.873 C162.807273,15.824 161.613545,15.86 160.420818,15.856 C160.425821,17.537 160.421818,19.218 160.422819,20.9 C160.44183,21.831 160.372788,22.767 160.481855,23.695 C160.547895,24.242 160.747016,24.848 161.260329,25.131 C162.119854,25.612 163.210519,25.402 164,24.874 L164,27.827 C162.970372,28.274 161.819671,28.41 160.705991,28.331 C159.649347,28.253 158.55468,27.869 157.865259,27.029 C157.068774,26.08 156.863649,24.795 156.847639,23.593 C156.838633,21.013 156.848639,18.433 156.843636,15.852 C155.085564,15.851 153.327492,15.85 151.570421,15.853 C151.56842,19.902 151.56942,23.951 151.56942,28 L147.966223,28 C147.966223,23.952 147.96122,19.905 147.968225,15.857 C147.132715,15.841 146.296205,15.861 145.460696,15.844 C145.463697,14.883 145.4677,13.921 145.458694,12.959 C146.290201,12.94 147.122709,12.948 147.956217,12.954 C148.017254,11.676 147.822135,10.361 148.204369,9.116 C148.527566,7.992 149.246004,6.978 150.236608,6.344" id="Fill-4" fill="#777777"></path>
                    <path d="M73.091568,6.554 C73.818011,6.444 74.6044905,6.692 75.085784,7.26 C75.6501281,7.882 75.7541916,8.872 75.3359365,9.599 C74.8736547,10.419 73.8390238,10.8 72.9374741,10.603 C72.0019036,10.435 71.2224283,9.566 71.2644539,8.597 C71.2374375,7.577 72.0909579,6.668 73.091568,6.554" id="Fill-5" fill="#777777"></path>
                    <path d="M45.4777303,7 L50.7179256,7 C52.3489201,11.139 53.9919219,15.274 55.6249176,19.413 C56.0421721,20.448 56.43241,21.495 56.8696766,22.522 C58.9679561,17.35 61.0962538,12.191 63.1785235,7.012 C64.8585479,6.985 66.5395729,7.006 68.2205979,7.002 C68.2165955,14.001 68.2185967,21 68.2195973,27.999 C67.0068578,27.996 65.795119,28.009 64.5833801,27.992 C64.596388,22.827 64.5823795,17.662 64.5893838,12.496 C64.591385,12.264 64.5833801,12.032 64.5673703,11.8 C64.496327,11.908 64.4332886,12.02 64.378255,12.136 C62.2959854,17.423 60.1736913,22.695 58.1034289,27.987 C57.240903,28.018 56.3773764,27.989 55.5138499,28.003 C53.36554,22.716 51.2442465,17.417 49.1069433,12.126 C49.0509091,12.016 48.9908725,11.909 48.9258328,11.806 C48.881806,14.069 48.9188286,16.334 48.9068212,18.597 C48.9078218,21.731 48.90482,24.865 48.9078218,27.999 C47.7641245,28.002 46.6204271,27.999 45.4777303,28 C45.4767297,21 45.4757291,14 45.4777303,7" id="Fill-6" fill="#777777"></path>
                    <path d="M83.0076144,12.935 C84.7466748,12.44 86.6218182,12.46 88.359878,12.951 C88.7180964,13.051 89.0653081,13.19 89.3875046,13.379 C89.3674924,14.526 89.3875046,15.674 89.3764979,16.822 C88.2147895,15.935 86.7408908,15.373 85.2639902,15.559 C84.0912752,15.665 82.972593,16.273 82.2711653,17.22 C81.3696156,18.394 81.1614887,19.953 81.3165833,21.389 C81.4326541,22.513 81.8979378,23.636 82.772471,24.381 C83.681025,25.188 84.9548017,25.474 86.1435265,25.384 C87.3182428,25.249 88.4269189,24.752 89.3764979,24.058 C89.386504,25.145 89.3714948,26.232 89.3845027,27.319 C87.9116046,28.195 86.1455278,28.421 84.4594997,28.338 C82.7344478,28.247 81.014399,27.594 79.7656376,26.382 C78.4088103,25.075 77.6723612,23.211 77.5853081,21.344 C77.4972544,19.403 77.8924954,17.378 79.0101769,15.757 C79.946748,14.374 81.4116412,13.395 83.0076144,12.935" id="Fill-7" fill="#777777"></path>
                    <path d="M107.4195,12.676 C109.148554,12.456 110.972666,12.554 112.577645,13.284 C113.970494,13.912 115.099182,15.073 115.724564,16.463 C116.391971,17.943 116.55407,19.605 116.441001,21.21 C116.329933,22.777 115.837633,24.347 114.857035,25.592 C113.853423,26.914 112.3405,27.81 110.720513,28.143 C109.335668,28.431 107.886785,28.43 106.50194,28.139 C104.84493,27.785 103.310995,26.824 102.339402,25.426 C101.198707,23.806 100.874509,21.746 101.019597,19.805 C101.117657,18.158 101.629969,16.498 102.682611,15.206 C103.835314,13.759 105.603392,12.905 107.4195,12.676" id="Fill-8" fill="#777777"></path>
                    <path d="M122.366614,12.706 C124.03263,12.413 125.776693,12.628 127.353655,13.225 C127.355656,14.329 127.353655,15.432 127.354655,16.535 C126.252984,15.778 124.907163,15.371 123.570348,15.418 C122.896937,15.444 122.156486,15.729 121.849298,16.369 C121.605149,17.002 121.774253,17.832 122.371617,18.211 C123.39324,18.894 124.611983,19.184 125.670628,19.796 C126.504137,20.264 127.31263,20.876 127.734887,21.758 C128.528371,23.41 128.192166,25.593 126.797315,26.825 C125.465503,28.069 123.547334,28.413 121.783258,28.347 C120.530494,28.266 119.271727,28.019 118.120024,27.507 C118.125027,26.346 118.11302,25.186 118.126028,24.026 C119.094619,24.729 120.2123,25.232 121.395021,25.436 C122.218523,25.57 123.11407,25.576 123.881538,25.208 C124.615985,24.843 124.748066,23.8 124.3118,23.162 C123.903551,22.67 123.304185,22.399 122.738841,22.133 C121.677193,21.656 120.561513,21.257 119.628944,20.542 C118.973545,20.031 118.477242,19.311 118.283124,18.499 C117.994948,17.302 118.085003,15.953 118.781428,14.907 C119.576913,13.688 120.958755,12.957 122.366614,12.706" id="Fill-9" fill="#777777"></path>
                    <path d="M136.138011,12.671 C137.936107,12.448 139.845272,12.569 141.486272,13.397 C142.917145,14.112 144.026821,15.404 144.581159,16.898 C145.014423,18.041 145.166516,19.275 145.141501,20.492 C145.144503,22.31 144.653203,24.176 143.511507,25.618 C142.442855,27.014 140.807858,27.921 139.081806,28.206 C137.393777,28.479 135.610689,28.408 134.006711,27.777 C132.381721,27.138 131.030897,25.834 130.34648,24.228 C129.633045,22.591 129.557999,20.749 129.780134,19 C130.013276,17.251 130.80576,15.541 132.156583,14.378 C133.263258,13.407 134.688127,12.857 136.138011,12.671" id="Fill-10" fill="#777777"></path>
                    <path d="M97.4444173,13.18 C98.4390238,12.583 99.7027944,12.533 100.788456,12.898 C100.783453,14.099 100.788456,15.3 100.785455,16.501 C100.075021,16.041 99.1884808,15.844 98.3499695,15.929 C97.3273459,16.045 96.5168517,16.83 96.0965955,17.73 C95.6403173,18.683 95.5542648,19.761 95.5832825,20.803 C95.5832825,23.202 95.5842831,25.601 95.5832825,28 L92.0311165,28 C92.0281147,22.986 92.035119,17.971 92.0281147,12.957 C93.2138377,12.942 94.3995607,12.948 95.5852837,12.954 C95.5802807,13.815 95.5852837,14.676 95.5822819,15.538 C95.9675168,14.601 96.5408664,13.691 97.4444173,13.18" id="Fill-11" fill="#777777"></path>
                    <path d="M71.5916534,12.954 C72.7863819,12.949 73.982111,12.937 75.1768395,12.96 C75.162831,17.973 75.1758389,22.987 75.1708359,28 L71.5936547,28 C71.5906528,22.985 71.5946553,17.97 71.5916534,12.954" id="Fill-12" fill="#777777"></path>
                    <path class="hover__cyan" d="M108.494155,15.534 C109.576815,15.463 110.729518,15.769 111.507993,16.556 C112.3405,17.374 112.662697,18.561 112.751751,19.693 C112.81579,20.932 112.764759,22.223 112.244442,23.371 C111.900232,24.145 111.269847,24.799 110.474362,25.109 C109.543795,25.466 108.498157,25.487 107.537572,25.238 C106.559976,24.981 105.73047,24.275 105.279195,23.376 C104.698841,22.218 104.611788,20.879 104.731861,19.609 C104.840927,18.454 105.243173,17.266 106.12371,16.469 C106.762099,15.873 107.63263,15.582 108.494155,15.534" id="Fill-13" fill="#FEFEFE"></path>
                    <path class="hover__cyan" d="M137.110604,15.537 C138.128225,15.466 139.214887,15.701 139.997364,16.388 C140.718804,16.986 141.118048,17.882 141.301159,18.784 C141.507285,19.842 141.505284,20.937 141.331178,22 C141.193093,22.792 140.918926,23.582 140.39961,24.209 C139.87629,24.839 139.097816,25.223 138.294326,25.341 C137.4318,25.47 136.523246,25.408 135.716754,25.061 C134.846223,24.693 134.171812,23.94 133.816595,23.074 C133.389335,22.042 133.304283,20.899 133.389335,19.795 C133.471385,18.726 133.77457,17.629 134.481001,16.798 C135.125394,16.022 136.113996,15.593 137.110604,15.537" id="Fill-14" fill="#FEFEFE"></path>
                    <path class="hover__cyan" d="M160.420818,15.856 C161.613545,15.86 162.807273,15.824 164,15.873 L164,24.874 C163.210519,25.402 162.119854,25.612 161.260329,25.131 C160.747016,24.848 160.547895,24.242 160.481855,23.695 C160.372788,22.767 160.44183,21.831 160.422819,20.9 C160.421818,19.218 160.425821,17.537 160.420818,15.856" id="Fill-15" fill="#FEFEFE"></path>
                    <path d="M0,18.349 C5.55338621,18.351 11.1067724,18.348 16.6601586,18.351 C16.6611592,23.901 16.6601586,29.45 16.6601586,35 L0,35 L0,18.349" id="Fill-16" fill="#02A4EF"></path>
                    <path d="M18.3621965,18.351 C23.9145821,18.349 29.4679683,18.35 35.0213545,18.35 L35.0213545,35 L18.3611959,35 C18.3621965,29.45 18.3601952,23.9 18.3621965,18.351" id="Fill-17" fill="#FFB902"></path>
                </g>
            </g>
        </g>
    </g>
</svg>