<?xml version="1.0" encoding="UTF-8"?>
<svg width="80px" height="17px" viewBox="0 0 80 17" version="1.1" xmlns="http://www.w3.org/2000/svg" xmlns:xlink="http://www.w3.org/1999/xlink">
    <!-- Generator: Sketch 52.2 (67145) - http://www.bohemiancoding.com/sketch -->
    <title>Uber_logo</title>
    <desc>Created with Sketch.</desc>
    <style>
        * {
            fill: white !important;
        }
    </style>
    <g id="Page-1" stroke="none" stroke-width="1" fill="none" fill-rule="evenodd">
        <g id="home" transform="translate(-219.000000, -2184.000000)" fill="#000203" fill-rule="nonzero">
            <g id="section-3" transform="translate(8.000000, 1631.000000)">
                <g id="Uber_logo" transform="translate(211.000000, 553.000000)">
                    <path d="M12.5753425,0.40995082 L12.5753425,9.76886885 C12.5753425,12.894082 11.2153425,14.1919344 8.02547945,14.1919344 C4.83534247,14.1919344 3.47534247,12.894082 3.47534247,9.76886885 L3.47534247,0 L0.403013699,0 C0.134520548,0 0,0.136836066 0,0.40995082 L0,9.92242623 C0,15.1486721 3.2739726,16.9760328 8.02547945,16.9760328 C12.7767123,16.9760328 16.0506849,15.1486721 16.0506849,9.92242623 L16.0506849,0 L12.9780822,0 C12.709589,0 12.5753425,0.136836066 12.5753425,0.40995082" id="Fill-1"></path>
                    <path d="M57.1147945,2.71554098 C57.3665753,2.71554098 57.4841096,2.6302623 57.5679452,2.44214754 L58.4580822,0.204836066 C58.5084932,0.068557377 58.4580822,0 58.3235616,0 L45.949863,0 C44.7912329,0 44.3550685,0.358672131 44.3550685,1.16129508 L44.3550685,15.6949016 C44.3550685,16.3782459 44.690411,16.6856393 45.5805479,16.6856393 L57.1147945,16.6856393 C57.3665753,16.6856393 57.4841096,16.600082 57.5679452,16.4125246 L58.4580822,14.1749344 C58.5084932,14.038377 58.4580822,13.9700984 58.3235616,13.9700984 L47.7632877,13.9700984 L47.7632877,11.0154426 C47.7632877,9.99070492 48.3172603,9.52947541 49.8112329,9.52947541 L54.3950685,9.52947541 C54.6468493,9.52947541 54.7641096,9.44447541 54.8482192,9.25663934 L55.7046575,7.10460656 C55.7547945,6.96777049 55.7046575,6.89977049 55.570137,6.89977049 L47.7632877,6.89977049 L47.7632877,2.71554098 L57.1147945,2.71554098" id="Fill-2"></path>
                    <path d="M32.1084932,14.004377 L26.0457534,14.004377 L26.0457534,10.9471639 C26.0457534,9.92242623 26.599726,9.46147541 28.0942466,9.46147541 L32.1084932,9.46147541 C34.0391781,9.46147541 34.5764384,10.2128197 34.5764384,11.7500656 C34.5764384,13.2870328 34.0391781,14.004377 32.1084932,14.004377 Z M26.0457534,2.6812623 L31.470411,2.6812623 C33.2835616,2.6812623 33.7873973,3.37603279 33.7873973,4.81601639 C33.7873973,6.25627869 33.2835616,6.95104918 31.470411,6.95104918 L26.0457534,6.95104918 L26.0457534,2.6812623 Z M35.3320548,7.89022951 C36.6750685,7.17288525 37.2290411,5.8237541 37.2290411,4.2355082 C37.2290411,0.546508197 34.2742466,0 31.2186301,0 L24.2342466,0 C23.0756164,0 22.6394521,0.358672131 22.6394521,1.16129508 L22.6394521,15.6949016 C22.6394521,16.3782459 22.9750685,16.6856393 23.8649315,16.6856393 L32.4610959,16.6856393 C35.7013699,16.6856393 38.0180822,15.4047869 38.0180822,12.074459 C38.0180822,10.0762623 37.1786301,8.38545902 35.3320548,7.89022951 L35.3320548,7.89022951 Z" id="Fill-3"></path>
                    <path d="M73.4920548,7.73639344 L67.7835616,7.73639344 L67.7835616,2.68154098 L73.4920548,2.68154098 C75.6241096,2.68154098 76.0942466,3.51816393 76.0942466,5.20896721 C76.0942466,6.91677049 75.6241096,7.73639344 73.4920548,7.73639344 Z M79.9054795,16.3952459 L76.2287671,9.97370492 C78.0586301,9.4957541 79.5361644,8.26618033 79.5361644,5.14068852 C79.5361644,1.09329508 77.0679452,0 72.9882192,0 L65.970411,0 C64.8120548,0 64.3753425,0.358672131 64.3753425,1.16129508 L64.3753425,16.2756885 C64.3753425,16.5488033 64.509863,16.6856393 64.7783562,16.6856393 L67.7835616,16.6856393 L67.7835616,11.8183443 C67.7835616,10.7936066 68.3375342,10.332377 69.8320548,10.332377 L72.8539726,10.332377 L76.1780822,16.4125246 C76.2789041,16.583082 76.379726,16.6856393 76.6315068,16.6856393 L79.7545205,16.6856393 C79.9728767,16.6856393 79.9728767,16.4975246 79.9054795,16.3952459 L79.9054795,16.3952459 Z" id="Fill-4"></path>
                </g>
            </g>
        </g>
    </g>
</svg>